/* XPM */
static char * xearth32_xpm[] = {
"32 32 359 2",
"  	c None",
". 	c #275386",
"+ 	c #4A76A0",
"@ 	c #779386",
"# 	c #729184",
"$ 	c #819579",
"% 	c #7A8C76",
"& 	c #7B8968",
"* 	c #5F6E56",
"= 	c #414A39",
"- 	c #2C5989",
"; 	c #5387BB",
"> 	c #ABB4AC",
", 	c #90A29D",
"' 	c #789599",
") 	c #8C9B92",
"! 	c #9AA287",
"~ 	c #96A27D",
"{ 	c #849272",
"] 	c #83916A",
"^ 	c #849164",
"/ 	c #737E51",
"( 	c #383A25",
"_ 	c #3E71A6",
": 	c #5182B3",
"< 	c #BBC5BE",
"[ 	c #EBE9C8",
"} 	c #DADEC3",
"| 	c #B3BFB9",
"1 	c #6A8BA2",
"2 	c #8A959A",
"3 	c #A5A191",
"4 	c #B0A990",
"5 	c #929181",
"6 	c #B4A780",
"7 	c #A6A477",
"8 	c #AFA466",
"9 	c #615937",
"0 	c #3E73A8",
"a 	c #97B3C3",
"b 	c #E9ECCA",
"c 	c #FBFBD9",
"d 	c #FBFBE9",
"e 	c #FBFBE5",
"f 	c #F9F9D3",
"g 	c #C2CEC0",
"h 	c #B2C5C1",
"i 	c #8BA1A5",
"j 	c #999E96",
"k 	c #DCCA99",
"l 	c #EDDA9F",
"m 	c #B0B091",
"n 	c #B7B683",
"o 	c #BAA763",
"p 	c #69613F",
"q 	c #2F5981",
"r 	c #5C8CB7",
"s 	c #F0F2E7",
"t 	c #FBFBE7",
"u 	c #FBFBE8",
"v 	c #FBFBDC",
"w 	c #FBFBD4",
"x 	c #FBFAD1",
"y 	c #EDEFD5",
"z 	c #CDD1AC",
"A 	c #F3EBAA",
"B 	c #F9F3AE",
"C 	c #D1C696",
"D 	c #BEB683",
"E 	c #B0A066",
"F 	c #948B60",
"G 	c #2D2B1E",
"H 	c #477EB4",
"I 	c #A8BBBE",
"J 	c #F5F3CC",
"K 	c #FBFBE0",
"L 	c #FBFBE4",
"M 	c #FBFADD",
"N 	c #FBF9CB",
"O 	c #D8D9B1",
"P 	c #B9BC98",
"Q 	c #F4EFAB",
"R 	c #D1CD99",
"S 	c #AFAA84",
"T 	c #A19967",
"U 	c #8C875F",
"V 	c #6F6D54",
"W 	c #12120E",
"X 	c #2B567F",
"Y 	c #4981B8",
"Z 	c #93ACAF",
"` 	c #C7CE9E",
" .	c #E5E5B1",
"..	c #F8F8CB",
"+.	c #FBFBD7",
"@.	c #FBFBE1",
"#.	c #FBFBD8",
"$.	c #F0EDB6",
"%.	c #929E90",
"&.	c #E6DB9E",
"*.	c #EAE39F",
"=.	c #B8B385",
"-.	c #797B62",
";.	c #888259",
">.	c #777657",
",.	c #282821",
"'.	c #3C70A6",
").	c #4B82B9",
"!.	c #6B95B8",
"~.	c #A0B4A6",
"{.	c #A2B5A6",
"].	c #ADBF9F",
"^.	c #C1D1A3",
"/.	c #D7E1AC",
"(.	c #D7DDA8",
"_.	c #EBE7B0",
":.	c #F5EDB2",
"<.	c #F7ECAD",
"[.	c #EFDBA1",
"}.	c #A5A28B",
"|.	c #CFC898",
"1.	c #EBE49F",
"2.	c #CCC188",
"3.	c #414E56",
"4.	c #414B4B",
"5.	c #68674C",
"6.	c #4B4D3D",
"7.	c #000000",
"8.	c #3E74A9",
"9.	c #4B82B8",
"0.	c #5189BC",
"a.	c #5A8EBB",
"b.	c #5D8EB7",
"c.	c #7097AA",
"d.	c #95B397",
"e.	c #8FB68D",
"f.	c #8CB18A",
"g.	c #A6B78C",
"h.	c #C2BE8D",
"i.	c #D5C191",
"j.	c #CCBA8B",
"k.	c #BBAE86",
"l.	c #9A9D88",
"m.	c #7A867F",
"n.	c #485F6B",
"o.	c #253E57",
"p.	c #263C4C",
"q.	c #5B5E48",
"r.	c #4C5142",
"s.	c #3F73A8",
"t.	c #4980B5",
"u.	c #4E84B9",
"v.	c #5287BA",
"w.	c #5487B4",
"x.	c #698DA8",
"y.	c #A5B395",
"z.	c #A1B68B",
"A.	c #A0B38B",
"B.	c #A7B187",
"C.	c #B9B789",
"D.	c #C9BA8C",
"E.	c #CCBC8A",
"F.	c #DEC189",
"G.	c #E4CD8C",
"H.	c #7A867C",
"I.	c #234561",
"J.	c #213D55",
"K.	c #243C4F",
"L.	c #4C524B",
"M.	c #35454A",
"N.	c #3C6EA3",
"O.	c #457CB2",
"P.	c #4C80B5",
"Q.	c #4E83B5",
"R.	c #5081AE",
"S.	c #5C85A7",
"T.	c #ADB3A0",
"U.	c #C4BD93",
"V.	c #CFBD90",
"W.	c #C6B888",
"X.	c #BBAF84",
"Y.	c #AEA684",
"Z.	c #C6B784",
"`.	c #B2A378",
" +	c #8A8A77",
".+	c #2D4E69",
"++	c #204160",
"@+	c #213C53",
"#+	c #223C4F",
"$+	c #36464D",
"%+	c #2C414D",
"&+	c #37689B",
"*+	c #4374A9",
"=+	c #4778AC",
"-+	c #497AAB",
";+	c #4B7AA5",
">+	c #507BA1",
",+	c #ADB5AF",
"'+	c #DECEA2",
")+	c #DDC290",
"!+	c #CDB988",
"~+	c #BDAE81",
"{+	c #B5A67A",
"]+	c #9A8E74",
"^+	c #3E5B70",
"/+	c #284D6C",
"(+	c #204461",
"_+	c #203D57",
":+	c #233C4F",
"<+	c #223C4E",
"[+	c #233C4E",
"}+	c #203849",
"|+	c #2F5F90",
"1+	c #3D6DA1",
"2+	c #4272A5",
"3+	c #4575A3",
"4+	c #46739C",
"5+	c #63859D",
"6+	c #C7C5A9",
"7+	c #E6DAAB",
"8+	c #DEC790",
"9+	c #B9B683",
"0+	c #AEA97E",
"a+	c #AEA073",
"b+	c #636F6F",
"c+	c #2A4F6D",
"d+	c #264866",
"e+	c #203F5B",
"f+	c #203C51",
"g+	c #243C4E",
"h+	c #213C4F",
"i+	c #203B50",
"j+	c #1A3040",
"k+	c #234B73",
"l+	c #366497",
"m+	c #3C699B",
"n+	c #3E6B9B",
"o+	c #3F6A95",
"p+	c #688194",
"q+	c #CDC49E",
"r+	c #DDD39C",
"s+	c #D4C892",
"t+	c #AEAC7E",
"u+	c #9B9F77",
"v+	c #959371",
"w+	c #546769",
"x+	c #2B4962",
"y+	c #28425B",
"z+	c #203B51",
"A+	c #203B4D",
"B+	c #213C4E",
"C+	c #203C50",
"D+	c #15222C",
"E+	c #17314D",
"F+	c #2F5C8D",
"G+	c #356091",
"H+	c #396491",
"I+	c #3B648D",
"J+	c #4B6D8B",
"K+	c #BFBEA0",
"L+	c #EBD89D",
"M+	c #CFC490",
"N+	c #B2AD7C",
"O+	c #8C9270",
"P+	c #5B6C6E",
"Q+	c #3F5564",
"R+	c #606662",
"S+	c #374857",
"T+	c #1F3A4D",
"U+	c #203C4F",
"V+	c #1E3749",
"W+	c #091016",
"X+	c #244C77",
"Y+	c #2A5785",
"Z+	c #2F5B87",
"`+	c #315C85",
" @	c #355D82",
".@	c #9FACA5",
"+@	c #F0DDA1",
"@@	c #CCBD89",
"#@	c #ABA277",
"$@	c #666F68",
"%@	c #254561",
"&@	c #4C5756",
"*@	c #515A5B",
"=@	c #243E55",
"-@	c #152531",
";@	c #020304",
">@	c #112237",
",@	c #254A75",
"'@	c #27507C",
")@	c #295079",
"!@	c #2A5176",
"~@	c #566F7E",
"{@	c #D9C58C",
"]@	c #CBAE82",
"^@	c #75716B",
"/@	c #304A63",
"(@	c #214164",
"_@	c #344858",
":@	c #274056",
"<@	c #213C56",
"[@	c #203D53",
"}@	c #203C4E",
"|@	c #1D3647",
"1@	c #04070A",
"2@	c #15263B",
"3@	c #254265",
"4@	c #254567",
"5@	c #234770",
"6@	c #1F497D",
"7@	c #254A79",
"8@	c #28466C",
"9@	c #1F3F65",
"0@	c #1E3E68",
"a@	c #1E3E5F",
"b@	c #1F3E57",
"c@	c #203E56",
"d@	c #1F3E56",
"e@	c #1F3D54",
"f@	c #0C141A",
"g@	c #17273C",
"h@	c #223B5C",
"i@	c #203F6B",
"j@	c #1E406F",
"k@	c #1D406E",
"l@	c #1D3F6A",
"m@	c #1F3E62",
"n@	c #1E3E5E",
"o@	c #203E58",
"p@	c #1F3E5A",
"q@	c #1F3E58",
"r@	c #1B3951",
"s@	c #0B141C",
"t@	c #010102",
"u@	c #09121D",
"v@	c #1A324F",
"w@	c #1E3B5F",
"x@	c #1F3C60",
"y@	c #1E3C60",
"z@	c #1F3C5C",
"A@	c #1F3C57",
"B@	c #203E55",
"C@	c #1F3E59",
"D@	c #1E3E5D",
"E@	c #1D3A51",
"F@	c #122737",
"G@	c #03080B",
"H@	c #04080D",
"I@	c #0C1621",
"J@	c #192C44",
"K@	c #1B3553",
"L@	c #1C3B5E",
"M@	c #1D3C5E",
"N@	c #1C3851",
"O@	c #193145",
"P@	c #10202E",
"Q@	c #081117",
"R@	c #010204",
"                                                                ",
"                                                                ",
"                                                                ",
"                                                                ",
"                                                                ",
"                      . + @ # $ % & * =                         ",
"                  - ; > , ' ) ! ~ { ] ^ / (                     ",
"                _ : < [ } | 1 2 3 4 5 6 7 8 9                   ",
"              0 a b c d e f g h i j k l m n o p                 ",
"            q r s t u v c w x v y z A B C D E F G               ",
"            H I J K v w L M N v L O P Q R S T U V W             ",
"          X Y Z `  ...+.e @.#.K #.$.%.&.*.=.-.;.>.,.            ",
"          '.).!.~.{.].^./.(._.:.<.[.}.|.1.2.3.4.5.6.7.          ",
"          8.9.0.a.b.c.d.e.f.g.h.i.j.k.l.m.n.o.p.q.r.7.          ",
"          s.t.u.v.w.x.y.z.A.B.C.D.E.F.G.H.I.J.K.L.M.7.          ",
"          N.O.P.Q.R.S.T.U.V.W.X.Y.Z.`. +.+++@+#+$+%+7.7.        ",
"          &+*+=+-+;+>+,+'+)+!+~+{+]+^+/+(+_+:+<+[+}+7.7.        ",
"          |+1+2+3+4+5+6+7+8+9+0+a+b+c+d+e+f+g+h+i+j+7.7.        ",
"          k+l+m+n+o+p+q+r+s+t+u+v+w+x+y+z+A+B+h+C+D+7.7.        ",
"          E+F+G+H+I+J+K+L+M+N+O+P+Q+R+S+T+A+A+U+V+W+7.7.        ",
"            X+Y+Z+`+ @.@+@@@#@$@%@&@*@=@f+A+A+A+-@;@7.          ",
"            >@,@'@)@!@~@{@]@^@/@(@_@:@<@[@}@A+|@1@7.7.          ",
"              2@3@4@5@6@7@8@9@0@a@b@c@d@b@e@|@f@7.7.            ",
"                g@h@i@j@k@l@m@n@o@o@p@q@b@r@s@t@7.7.            ",
"                  u@v@w@x@y@z@A@B@C@D@E@F@G@7.7.7.              ",
"                    H@I@J@K@L@M@N@O@P@Q@R@7.7.7.                ",
"                        7.7.7.7.7.7.7.7.7.7.7.                  ",
"                          7.7.7.7.7.7.7.7.                      ",
"                                                                ",
"                                                                ",
"                                                                ",
"                                                                "};
