<?xml version="1.0" encoding="UTF-8" standalone="no"?>
<!-- Created with Inkscape (http://www.inkscape.org/) -->
<svg
   xmlns:dc="http://purl.org/dc/elements/1.1/"
   xmlns:cc="http://web.resource.org/cc/"
   xmlns:rdf="http://www.w3.org/1999/02/22-rdf-syntax-ns#"
   xmlns:svg="http://www.w3.org/2000/svg"
   xmlns="http://www.w3.org/2000/svg"
   xmlns:sodipodi="http://sodipodi.sourceforge.net/DTD/sodipodi-0.dtd"
   xmlns:inkscape="http://www.inkscape.org/namespaces/inkscape"
   width="64px"
   height="64px"
   id="svg2493"
   sodipodi:version="0.32"
   inkscape:version="0.45.1"
   sodipodi:docbase="/home/kstars/kde/src/kdeedu/kstars/kstars/icons"
   sodipodi:docname="action-kstars_stars.svg"
   inkscape:output_extension="org.inkscape.output.svg.inkscape">
  <defs
     id="defs2495" />
  <sodipodi:namedview
     id="base"
     pagecolor="#ffffff"
     bordercolor="#666666"
     borderopacity="1.0"
     inkscape:pageopacity="0.0"
     inkscape:pageshadow="2"
     inkscape:zoom="11"
     inkscape:cx="32"
     inkscape:cy="32"
     inkscape:current-layer="layer1"
     showgrid="true"
     inkscape:document-units="px"
     inkscape:grid-bbox="true"
     inkscape:window-width="1172"
     inkscape:window-height="967"
     inkscape:window-x="186"
     inkscape:window-y="244" />
  <metadata
     id="metadata2498">
    <rdf:RDF>
      <cc:Work
         rdf:about="">
        <dc:format>image/svg+xml</dc:format>
        <dc:type
           rdf:resource="http://purl.org/dc/dcmitype/StillImage" />
      </cc:Work>
    </rdf:RDF>
  </metadata>
  <g
     id="layer1"
     inkscape:label="Layer 1"
     inkscape:groupmode="layer">
    <rect
       style="fill:#000000"
       id="rect2501"
       width="64"
       height="64"
       x="0"
       y="-1.4210855e-14" />
    <path
       sodipodi:type="arc"
       style="fill:#ffffff;stroke:#ff0000;stroke-width:0.60000002;stroke-miterlimit:4;stroke-dasharray:none;stroke-opacity:1"
       id="path3482"
       sodipodi:cx="18.59091"
       sodipodi:cy="17.40909"
       sodipodi:rx="3.5"
       sodipodi:ry="3.5"
       d="M 22.09091 17.40909 A 3.5 3.5 0 1 1  15.09091,17.40909 A 3.5 3.5 0 1 1  22.09091 17.40909 z"
       transform="matrix(1.181818,0,0,1.181818,-5.9380164,-5.6363636)" />
    <path
       sodipodi:type="arc"
       style="fill:#ffffff;stroke:#5100ff;stroke-width:0.60000002;stroke-miterlimit:4;stroke-dasharray:none;stroke-opacity:1"
       id="path3484"
       sodipodi:cx="18.59091"
       sodipodi:cy="17.40909"
       sodipodi:rx="3.5"
       sodipodi:ry="3.5"
       d="M 22.09091 17.40909 A 3.5 3.5 0 1 1  15.09091,17.40909 A 3.5 3.5 0 1 1  22.09091 17.40909 z"
       transform="matrix(1.181818,0,0,1.181818,27.314048,27.91653)" />
    <path
       sodipodi:type="arc"
       style="fill:#ffffff;stroke:#00b2ff;stroke-width:1.05555558;stroke-miterlimit:4;stroke-dasharray:none;stroke-opacity:1"
       id="path3486"
       sodipodi:cx="18.59091"
       sodipodi:cy="17.40909"
       sodipodi:rx="3.5"
       sodipodi:ry="3.5"
       d="M 22.09091 17.40909 A 3.5 3.5 0 1 1  15.09091,17.40909 A 3.5 3.5 0 1 1  22.09091 17.40909 z"
       transform="matrix(0.5598086,0,0,0.5598086,21.709179,22.199697)" />
    <path
       sodipodi:type="arc"
       style="fill:#ffffff;stroke:#00b2ff;stroke-width:1.05555558;stroke-miterlimit:4;stroke-dasharray:none;stroke-opacity:1"
       id="path3488"
       sodipodi:cx="18.59091"
       sodipodi:cy="17.40909"
       sodipodi:rx="3.5"
       sodipodi:ry="3.5"
       d="M 22.09091 17.40909 A 3.5 3.5 0 1 1  15.09091,17.40909 A 3.5 3.5 0 1 1  22.09091 17.40909 z"
       transform="matrix(0.5598086,0,0,0.5598086,27.490757,19.42921)" />
    <path
       sodipodi:type="arc"
       style="fill:#ffffff;stroke:#00b2ff;stroke-width:1.05555558;stroke-miterlimit:4;stroke-dasharray:none;stroke-opacity:1"
       id="path3490"
       sodipodi:cx="18.59091"
       sodipodi:cy="17.40909"
       sodipodi:rx="3.5"
       sodipodi:ry="3.5"
       d="M 22.09091 17.40909 A 3.5 3.5 0 1 1  15.09091,17.40909 A 3.5 3.5 0 1 1  22.09091 17.40909 z"
       transform="matrix(0.5598086,0,0,0.5598086,15.672574,25.230861)" />
    <path
       sodipodi:type="arc"
       style="fill:#ffffff;stroke:#ffff00;stroke-width:1.05555558;stroke-miterlimit:4;stroke-dasharray:none;stroke-opacity:1"
       id="path3492"
       sodipodi:cx="18.59091"
       sodipodi:cy="17.40909"
       sodipodi:rx="3.5"
       sodipodi:ry="3.5"
       d="M 22.09091 17.40909 A 3.5 3.5 0 1 1  15.09091,17.40909 A 3.5 3.5 0 1 1  22.09091 17.40909 z"
       transform="matrix(0.5598086,0,0,0.5598086,29.854393,-2.4909737)" />
    <path
       sodipodi:type="arc"
       style="fill:#ffffff;stroke:#ffff00;stroke-width:1.05555558;stroke-miterlimit:4;stroke-dasharray:none;stroke-opacity:1"
       id="path3494"
       sodipodi:cx="18.59091"
       sodipodi:cy="17.40909"
       sodipodi:rx="3.5"
       sodipodi:ry="3.5"
       d="M 22.09091 17.40909 A 3.5 3.5 0 1 1  15.09091,17.40909 A 3.5 3.5 0 1 1  22.09091 17.40909 z"
       transform="matrix(0.5598086,0,0,0.5598086,13.091234,44.999458)" />
  </g>
</svg>
