<?xml version="1.0" encoding="UTF-8" standalone="no"?>
<svg
   xmlns:dc="http://purl.org/dc/elements/1.1/"
   xmlns:cc="http://creativecommons.org/ns#"
   xmlns:rdf="http://www.w3.org/1999/02/22-rdf-syntax-ns#"
   xmlns:svg="http://www.w3.org/2000/svg"
   xmlns="http://www.w3.org/2000/svg"
   xmlns:sodipodi="http://sodipodi.sourceforge.net/DTD/sodipodi-0.dtd"
   xmlns:inkscape="http://www.inkscape.org/namespaces/inkscape"
   width="64"
   height="48"
   viewBox="0 0 64.000001 48"
   version="1.1"
   id="svg6"
   sodipodi:docname="atikbase.svg"
   inkscape:version="0.92.3 (2405546, 2018-03-11)">  
  <defs
     id="defs10" />  
  <path
     style="fill:#000000;stroke-width:0.06605141"
     d="M 11.003906 3.1171875 C 10.17477 3.1171875 9.6562858 3.1454359 9.4726562 3.2011719 C 9.0705028 3.3232362 8.6533744 3.666162 8.4511719 4.0429688 C 8.264611 4.3906271 2.5712096 19.479271 2.3085938 20.322266 C 2.1071079 20.969034 2.1024018 21.684329 2.296875 22.107422 C 2.5491736 22.656316 2.9841836 22.989031 3.640625 23.140625 C 4.2183126 23.274029 5.0394323 23.167441 5.4707031 22.902344 C 5.8522359 22.667822 6.0361506 22.301931 6.6757812 20.498047 L 7.2988281 18.736328 L 10.869141 18.753906 L 14.4375 18.771484 L 15.015625 20.416016 C 15.333819 21.320431 15.670492 22.19061 15.763672 22.349609 C 16.062585 22.859664 16.70292 23.164062 17.476562 23.164062 C 18.310462 23.164062 18.954048 22.823723 19.341797 22.177734 C 19.783307 21.442172 19.727462 21.040331 18.853516 18.609375 C 16.153825 11.099937 13.778717 4.5769575 13.636719 4.2832031 C 13.416796 3.8282423 13.089448 3.5050361 12.628906 3.2890625 C 12.271367 3.1213897 12.21992 3.1171875 11.003906 3.1171875 z M 10.896484 7.90625 C 10.941639 7.90625 13.416016 15.490482 13.416016 15.628906 C 13.416016 15.678806 12.63827 15.699219 10.832031 15.699219 C 8.7934149 15.699219 8.2553339 15.682348 8.2792969 15.617188 C 8.2959967 15.571776 8.8814636 13.81866 9.5800781 11.720703 C 10.278694 9.6227447 10.871304 7.90625 10.896484 7.90625 z "
     id="path869" />
  <path
     style="fill:#000000;stroke-width:0.06605141"
     d="m 26.318299,23.098671 c -0.621882,-0.132473 -1.1826,-0.570136 -1.432868,-1.118402 -0.125176,-0.274226 -0.142657,-0.473206 -0.183305,-2.086525 -0.02471,-0.980863 -0.04783,-4.256181 -0.05138,-7.278482 L 24.64431,7.1201669 22.183895,7.0997379 C 19.859536,7.080439 19.704735,7.0716185 19.384507,6.940233 18.897679,6.7404935 18.615799,6.501929 18.398565,6.1057989 18.235968,5.8093007 18.208461,5.6865772 18.20974,5.2633574 c 0.0011,-0.3743529 0.03554,-0.5599363 0.140854,-0.7595912 0.271328,-0.5144004 0.786661,-0.8732148 1.458701,-1.0156587 0.246024,-0.052147 2.376686,-0.07419 7.171103,-0.07419 7.465228,0 7.141873,-0.016222 7.783017,0.390465 0.595051,0.3774494 0.881539,1.0964012 0.72163,1.81095 -0.09991,0.4464665 -0.283161,0.7297584 -0.655973,1.0141124 -0.548092,0.418044 -0.709485,0.440475 -3.364954,0.4676809 l -2.394363,0.024531 v 7.1545602 c 0,6.544513 -0.0095,7.184122 -0.111936,7.501155 -0.146982,0.455101 -0.634387,0.991062 -1.072786,1.179659 -0.374397,0.161059 -1.147474,0.230948 -1.566733,0.14164 z"
     id="path865"
     inkscape:connector-curvature="0" />
  <path
     style="fill:#000000;stroke-width:0.06605141"
     d="m 39.75947,23.092925 c -0.8088,-0.120042 -1.440436,-0.632092 -1.679761,-1.361756 -0.12132,-0.369881 -0.126041,-0.695983 -0.126041,-8.706751 0,-9.5207963 -0.04881,-8.7446387 0.590155,-9.3836082 0.439351,-0.4393502 0.853419,-0.5897294 1.624166,-0.5898556 0.502922,-6.6e-5 0.610033,0.023044 1.003206,0.2166024 0.496654,0.2445018 0.722939,0.4787743 0.970782,1.0050495 l 0.171084,0.3632828 v 8.4876061 8.487606 l -0.139082,0.300587 c -0.281928,0.609311 -0.83783,1.050871 -1.4498,1.151586 -0.497687,0.08192 -0.592842,0.08484 -0.964709,0.02965 z"
     id="path863"
     inkscape:connector-curvature="0" />
  <path
     style="fill:#000000;stroke-width:0.06605141"
     d="m 47.850312,22.978761 c -0.62574,-0.223148 -1.098293,-0.721816 -1.295075,-1.366643 -0.06206,-0.203379 -0.08094,-2.214254 -0.08094,-8.620746 0,-8.0773473 0.0042,-8.3664351 0.126649,-8.6838993 0.166498,-0.4317266 0.619493,-0.9074024 1.048157,-1.1006372 0.287248,-0.1294865 0.453949,-0.1553185 1.00489,-0.1557195 0.590604,-4.623e-4 0.700464,0.019137 1.037961,0.1848693 0.44499,0.2185179 0.85295,0.6548179 1.019014,1.0898034 0.106587,0.2791907 0.121886,0.6570537 0.153576,3.7931277 l 0.0352,3.4830446 3.520429,-3.8903955 C 56.356408,5.5718472 58.075129,3.6971649 58.239551,3.545606 58.670566,3.14831 59.056704,2.9956804 59.61853,3.0005339 c 0.839798,0.00725 1.583272,0.4191246 1.874341,1.0383467 0.213029,0.4531998 0.195551,1.1063399 -0.04142,1.5477232 -0.117829,0.219473 -1.028602,1.2341369 -2.592517,2.8882399 -1.325982,1.4024489 -2.404498,2.5731173 -2.396704,2.6014803 0.0078,0.02836 1.326609,2.038743 2.930697,4.467519 1.604091,2.428776 2.986976,4.564569 3.073087,4.74621 0.295527,0.6234 0.172064,1.544526 -0.277403,2.069635 -0.804763,0.940182 -2.681162,0.970936 -3.418803,0.05603 -0.122486,-0.151918 -1.389454,-2.07447 -2.815484,-4.272331 -1.42603,-2.197861 -2.605329,-4.009585 -2.620664,-4.026051 -0.01534,-0.01647 -0.575383,0.516964 -1.244552,1.185398 l -1.216671,1.215339 -0.01937,2.546507 c -0.0186,2.44447 -0.02506,2.558812 -0.161331,2.853592 -0.183431,0.396804 -0.610061,0.820597 -1.001539,0.994873 -0.443663,0.197514 -1.37682,0.23083 -1.839886,0.0657 z"
     id="path861"
     inkscape:connector-curvature="0" />
  <path
     style="fill:#c9252b;fill-opacity:1;stroke-width:0.06497212"
     d="M 0.30273438 23.988281 L 0.34570312 27.40625 C 0.36899223 29.286238 0.3886329 33.686998 0.38867188 37.183594 L 0.38867188 43.541016 L 1.6347656 43.541016 L 2.8808594 43.541016 L 2.8808594 42.814453 C 2.8808594 42.102439 2.914371 41.989403 3.0703125 42.183594 C 3.208461 42.355625 4.1516876 42.949721 4.6035156 43.148438 C 5.1892932 43.406058 6.0431145 43.652409 6.7480469 43.769531 C 7.627333 43.915627 9.996236 43.86341 10.8125 43.679688 C 13.642897 43.042629 15.568704 41.37559 16.238281 38.982422 C 16.314511 38.70996 16.392186 38.443162 16.410156 38.388672 C 16.428396 38.333367 16.504534 38.480124 16.583984 38.720703 C 17.244524 40.721011 19.067689 42.509377 21.189453 43.238281 C 22.036765 43.529363 22.744049 43.632152 23.908203 43.632812 C 26.272558 43.633651 27.969418 42.951691 29.546875 41.371094 L 30.042969 40.875 L 30.042969 42.042969 L 30.042969 43.210938 L 31.289062 43.210938 L 32.535156 43.210938 L 32.535156 42.251953 C 32.535156 41.725193 32.553289 41.294922 32.574219 41.294922 C 32.59515 41.294922 32.84887 41.456959 33.138672 41.65625 C 34.211581 42.394057 35.282866 42.877734 36.660156 43.244141 C 38.150101 43.640521 38.735459 43.704925 40.84375 43.703125 C 42.519239 43.701698 42.822196 43.685103 43.560547 43.550781 C 44.528631 43.374668 45.560577 43.037136 46.142578 42.707031 C 47.577355 41.893238 48.314819 40.67008 48.324219 39.087891 L 48.328125 38.552734 L 48.546875 39.175781 C 49.241243 41.152641 50.84754 42.658375 53.019531 43.369141 C 56.788945 44.602645 61.460134 43.391277 63.189453 40.730469 C 63.515502 40.228802 63.872584 39.576799 63.839844 39.542969 C 63.807565 39.5096 61.465925 38.848531 61.453125 38.869141 C 61.447861 38.877622 61.333062 39.076367 61.197266 39.3125 C 59.806287 41.731237 56.237025 42.541679 53.390625 41.083984 C 51.856723 40.298441 50.988869 39.057253 50.726562 37.28125 L 50.683594 37.001953 L 57.396484 37.001953 L 64.107422 37.001953 L 64.107422 36.679688 C 64.107422 36.194751 63.939247 35.304378 63.728516 34.664062 C 63.363899 33.556142 62.738408 32.547488 61.910156 31.734375 C 60.35568 30.208307 58.141972 29.444656 55.607422 29.560547 C 52.403169 29.70706 49.966426 31.113258 48.84375 33.466797 C 48.321454 34.561705 48.164763 35.312494 48.164062 36.720703 L 48.164062 37.794922 L 48.019531 37.501953 C 47.803833 37.063312 47.214417 36.444323 46.691406 36.107422 C 45.480552 35.327453 43.928528 34.91824 41.898438 34.84375 C 39.971965 34.773062 38.859559 35.108362 38.505859 35.867188 L 38.373047 36.152344 L 38.140625 35.800781 C 37.080306 34.200289 37.914375 32.502604 40.056641 31.904297 C 40.773174 31.703917 42.061599 31.704043 42.849609 31.904297 C 43.422049 32.049776 44.324679 32.446804 44.683594 32.710938 C 44.979889 32.928987 45.001053 32.793067 44.710938 32.535156 C 44.318399 32.186193 43.132485 31.603466 42.410156 31.40625 C 41.836188 31.249537 41.65678 31.232752 40.652344 31.232422 C 39.615876 31.23208 39.490432 31.244828 38.958984 31.412109 C 38.185693 31.655515 37.686085 31.940478 37.261719 32.376953 C 36.761205 32.891744 36.602009 33.265904 36.599609 33.929688 C 36.598088 34.361565 36.62745 34.525351 36.761719 34.822266 C 37.099026 35.568178 37.728221 36.193291 38.625 36.673828 C 39.057134 36.90538 39.288358 36.896363 38.974609 36.660156 C 38.620347 36.393447 38.822205 35.839471 39.380859 35.544922 C 39.899301 35.27157 40.411888 35.201094 41.611328 35.240234 C 42.769379 35.278016 43.264993 35.359449 44.052734 35.642578 C 44.99473 35.981145 45.681792 36.576189 46.072266 37.392578 C 46.300808 37.870321 46.308594 37.906978 46.308594 38.615234 C 46.308594 39.278852 46.291371 39.379142 46.130859 39.716797 C 45.532989 40.974495 43.888447 41.855452 41.576172 42.15625 C 40.71262 42.26859 38.516094 42.200738 37.361328 42.025391 C 35.997191 41.818254 33.995333 41.382298 32.775391 41.027344 L 32.535156 40.958984 L 32.535156 35.511719 L 32.535156 30.066406 L 31.289062 30.066406 L 30.042969 30.066406 L 30.042969 31.261719 L 30.042969 32.458984 L 29.447266 31.871094 C 28.021839 30.462726 26.500445 29.809159 24.375 29.693359 C 21.992098 29.563531 19.944984 30.30358 18.376953 31.859375 C 17.377738 32.8508 16.859901 33.716335 16.449219 35.085938 C 16.432877 35.140431 16.340801 34.930875 16.244141 34.621094 C 15.899766 33.517467 15.412791 32.714545 14.611328 31.927734 C 13.572464 30.907852 12.262916 30.239259 10.550781 29.857422 C 9.9764356 29.729333 9.6897003 29.707031 8.5683594 29.707031 C 7.4459511 29.707031 7.1627841 29.728976 6.5878906 29.857422 C 5.2548588 30.155257 4.0510554 30.678699 3.2832031 31.294922 C 3.0847866 31.454158 2.8981486 31.583984 2.8691406 31.583984 C 2.8401316 31.583984 2.8164062 29.875985 2.8164062 27.787109 L 2.8164062 23.988281 L 1.5605469 23.988281 L 0.30273438 23.988281 z M 56.527344 31.470703 C 58.225804 31.545028 59.433405 32.112266 60.355469 33.267578 C 60.683065 33.678035 61.199917 34.641568 61.242188 34.919922 C 61.262096 35.050996 61.22325 35.053542 56.039062 35.070312 C 52.097052 35.083063 50.8125 35.067796 50.8125 35.009766 C 50.8125 34.838726 51.304464 33.935968 51.625 33.517578 C 52.740328 32.061766 54.379486 31.376713 56.527344 31.470703 z M 8.5117188 31.736328 C 9.3534433 31.754059 10.1893 31.922054 10.933594 32.25 C 12.048569 32.741277 12.965973 33.606945 13.449219 34.623047 C 13.807917 35.377275 13.935547 35.954079 13.935547 36.835938 C 13.935547 38.235937 13.519146 39.294926 12.599609 40.240234 C 12.151398 40.701002 11.941373 40.861767 11.445312 41.117188 C 10.743646 41.478475 10.107712 41.657556 9.1992188 41.753906 C 8.5708763 41.820546 8.4258461 41.824397 7.8984375 41.779297 C 4.741529 41.509344 2.8411406 39.845125 2.7070312 37.232422 C 2.6126933 35.394555 3.2925818 33.864233 4.6445312 32.867188 C 5.6893514 32.096644 7.1088445 31.706776 8.5117188 31.736328 z M 24.433594 31.818359 C 24.988601 31.824098 25.544282 31.874605 25.902344 31.966797 C 27.22377 32.307021 28.356386 33.039324 29.130859 34.056641 C 30.456765 35.798305 30.331219 37.958485 28.806641 39.623047 C 27.964058 40.543004 26.97188 41.11571 25.792969 41.367188 C 25.180578 41.497817 23.785729 41.528611 23.181641 41.423828 C 21.495957 41.131418 19.89896 39.983688 19.210938 38.570312 C 18.7652 37.654649 18.669569 36.338068 18.976562 35.349609 C 19.47431 33.746944 21.067348 32.383382 22.964844 31.935547 C 23.324039 31.850773 23.878586 31.812621 24.433594 31.818359 z "
     id="path859" />
  <path
     style="fill:#000000;fill-opacity:1;stroke-width:0.06497212"
     d="M 39.668865,40.997339 C 38.6999,40.790261 37.793872,40.393484 37.10465,39.874392 36.722011,39.58621 36.595788,39.323603 36.96087,39.575265 c 0.403825,0.278367 1.236699,0.662866 1.74156,0.803991 0.698963,0.195387 2.283617,0.214496 2.907926,0.03507 1.000327,-0.287508 1.854733,-0.910459 2.165677,-1.579018 0.376311,-0.80909 0.233184,-1.777523 -0.368693,-2.494663 l -0.194026,-0.23118 -0.0026,0.176575 c -0.0059,0.403323 -0.673853,0.880386 -1.520469,1.085998 -0.510031,0.123866 -2.535494,0.137981 -3.366943,0.02347 -2.509522,-0.345641 -4.264036,-1.422193 -4.701069,-2.884538 -0.154504,-0.516991 -0.170877,-1.401545 -0.03566,-1.926601 0.435876,-1.692512 1.960108,-2.726671 4.636525,-3.145786 0.93974,-0.147158 2.980606,-0.201037 3.96245,-0.104607 2.107715,0.207005 3.954312,0.824657 5.326496,1.781617 0.445833,0.310923 0.650334,0.547333 0.381098,0.440554 -0.388512,-0.154082 -2.284429,-0.713344 -2.895534,-0.854132 -3.417453,-0.787324 -6.534161,-0.551131 -8.237241,0.624239 -0.527651,0.364156 -1.004187,0.914285 -1.23918,1.430543 -0.173733,0.381691 -0.202672,0.518226 -0.199592,0.941794 0.01039,1.430303 0.896562,2.51171 2.485568,3.033179 0.852054,0.279622 1.422832,0.362246 2.524981,0.365522 1.360679,0.004 1.928396,-0.154104 2.354762,-0.655976 0.245602,-0.289094 0.254492,-0.487994 0.03393,-0.758904 -0.09226,-0.113305 -0.152561,-0.221695 -0.134014,-0.240857 0.111818,-0.115563 1.346312,0.728072 1.777229,1.214534 1.438529,1.623966 0.68806,3.535111 -1.66722,4.245778 -0.621625,0.187559 -2.343111,0.241847 -3.027969,0.09548 z"
     id="path851"
     inkscape:connector-curvature="0" />
  <path
     style="fill:#000000;stroke-width:0.06497212"
     d="m 40.067462,36.537528 c -1.101669,-0.192309 -0.953998,-0.695785 0.253335,-0.863708 0.915786,-0.127374 1.997393,0.107076 2.043793,0.44302 0.04895,0.354392 -1.281297,0.59801 -2.297128,0.420688 z"
     id="path849"
     inkscape:connector-curvature="0" />
</svg>
