<?xml version="1.0" encoding="UTF-8" standalone="no"?>
<svg
   xmlns:dc="http://purl.org/dc/elements/1.1/"
   xmlns:cc="http://creativecommons.org/ns#"
   xmlns:rdf="http://www.w3.org/1999/02/22-rdf-syntax-ns#"
   xmlns:svg="http://www.w3.org/2000/svg"
   xmlns="http://www.w3.org/2000/svg"
   xmlns:sodipodi="http://sodipodi.sourceforge.net/DTD/sodipodi-0.dtd"
   xmlns:inkscape="http://www.inkscape.org/namespaces/inkscape"
   width="24"
   height="24"
   viewBox="0 0 24 24"
   id="svg2"
   version="1.1"
   inkscape:version="0.91 r13725"
   sodipodi:docname="center_telescope_red.svg">
  <metadata
     id="metadata10">
    <rdf:RDF>
      <cc:Work
         rdf:about="">
        <dc:format>image/svg+xml</dc:format>
        <dc:type
           rdf:resource="http://purl.org/dc/dcmitype/StillImage" />
        <dc:title></dc:title>
      </cc:Work>
    </rdf:RDF>
  </metadata>
  <defs
     id="defs8" />
  <sodipodi:namedview
     pagecolor="#ffffff"
     bordercolor="#666666"
     borderopacity="1"
     objecttolerance="10"
     gridtolerance="10"
     guidetolerance="10"
     inkscape:pageopacity="0"
     inkscape:pageshadow="2"
     inkscape:window-width="1077"
     inkscape:window-height="819"
     id="namedview6"
     showgrid="false"
     inkscape:zoom="9.8333333"
     inkscape:cx="26.745763"
     inkscape:cy="12"
     inkscape:window-x="173"
     inkscape:window-y="20"
     inkscape:window-maximized="0"
     inkscape:current-layer="svg2" />
  <path
     d="M24 11h-2.051c-.469-4.725-4.224-8.48-8.949-8.95v-2.05h-2v2.05c-4.725.47-8.48 4.225-8.949 8.95h-2.051v2h2.051c.469 4.725 4.224 8.48 8.949 8.95v2.05h2v-2.05c4.725-.469 8.48-4.225 8.949-8.95h2.051v-2zm-11 8.931v-3.931h-2v3.931c-3.611-.454-6.478-3.32-6.931-6.931h3.931v-2h-3.931c.453-3.611 3.32-6.477 6.931-6.931v3.931h2v-3.931c3.611.454 6.478 3.319 6.931 6.931h-3.931v2h3.931c-.453 3.611-3.32 6.477-6.931 6.931zm1-7.931c0 1.104-.896 2-2 2s-2-.896-2-2 .896-2 2-2 2 .896 2 2z"
     id="path4" />
  <path
     style="fill:#ff0000"
     d="m 11.064407,22.93832 0,-1.000661 -0.737288,-0.130228 C 9.2673538,21.620245 7.7965804,21.070014 6.8563496,20.50898 5.8961343,19.936022 4.3770071,18.488796 3.7446924,17.544599 3.5057878,17.187857 3.1516793,16.55262 2.9577846,16.132961 2.6077195,15.37529 2.1152542,13.659276 2.1152542,13.19713 c 0,-0.237721 -0.014661,-0.241198 -1.0169491,-0.241198 l -1.01694917,0 0,-0.966101 0,-0.966102 1.00540227,0 1.0054023,0 0.067936,-0.483051 C 2.3759974,9.0055275 3.0504766,7.3926125 4.0253625,6.0801758 5.6045555,3.9541927 7.9044153,2.5891336 10.683051,2.1285704 l 0.381356,-0.06321 0,-1.0123411 0,-1.01234103 0.966101,0 0.966102,0 0,1.01501163 c 0,0.972138 0.0097,1.0168179 0.228814,1.0577733 0.125847,0.023519 0.572034,0.1173404 0.991525,0.2084922 3.67286,0.7980799 6.811024,3.9904744 7.501002,7.6306268 0.08516,0.4493001 0.169824,0.8741131 0.188135,0.9440281 0.02384,0.09103 0.322875,0.127119 1.053435,0.127119 l 1.02014,0 0,0.962544 0,0.962544 -1.03566,0.02898 -1.035661,0.02898 -0.133811,0.793397 c -0.395276,2.343683 -1.90579,4.748795 -3.910362,6.22626 -1.171672,0.86358 -2.738392,1.530814 -4.181116,1.780655 l -0.686441,0.118872 0,1.006509 0,1.00651 -0.966102,0 -0.966101,0 0,-1.000663 z m 0,-4.948489 0,-1.983051 0.966101,0 0.966102,0 0,1.987658 0,1.98766 0.381356,-0.06915 c 3.323421,-0.602619 5.9014,-3.167626 6.521919,-6.489101 l 0.08742,-0.467915 -1.969922,0 -1.969921,0 0,-0.966101 0,-0.966102 1.969168,0 1.969168,0 -0.09593,-0.527785 C 19.501026,8.3565903 18.01742,6.2334772 16.121623,5.1034017 15.415994,4.6827799 14.057598,4.173576 13.377966,4.0749231 l -0.381356,-0.055356 0,1.9766573 0,1.9766572 -0.966102,0 -0.966101,0 0,-1.987659 0,-1.9876589 -0.381356,0.068441 C 9.9426215,4.1988869 8.7680816,4.6209244 8.0892349,4.9980181 6.0312003,6.1412391 4.4473582,8.3603245 4.0887356,10.603027 l -0.067273,0.420702 1.9452008,0 1.9452008,0 0,0.966102 0,0.966101 -1.9437502,0 -1.9437503,0 0.068762,0.458536 c 0.098798,0.658831 0.5121478,1.821494 0.8822115,2.481467 1.0799767,1.926036 2.8685819,3.307125 5.021273,3.877224 1.1741198,0.310943 1.0677968,0.488513 1.0677968,-1.783328 z"
     id="path4138"
     inkscape:connector-curvature="0" />
  <path
     style="fill:#ff0000"
     d="m 11.43915,13.869472 c -1.217482,-0.365438 -1.7568586,-1.876025 -1.050815,-2.942929 0.98509,-1.4885714 3.355153,-0.914891 3.501304,0.847501 0.0603,0.727118 -0.10802,1.193834 -0.586419,1.626039 -0.556534,0.502796 -1.207047,0.6666 -1.86407,0.469389 z"
     id="path4140"
     inkscape:connector-curvature="0" />
</svg>
