<?xml version="1.0" encoding="UTF-8" standalone="no"?>
<svg
   xmlns:dc="http://purl.org/dc/elements/1.1/"
   xmlns:cc="http://creativecommons.org/ns#"
   xmlns:rdf="http://www.w3.org/1999/02/22-rdf-syntax-ns#"
   xmlns:svg="http://www.w3.org/2000/svg"
   xmlns="http://www.w3.org/2000/svg"
   xmlns:sodipodi="http://sodipodi.sourceforge.net/DTD/sodipodi-0.dtd"
   xmlns:inkscape="http://www.inkscape.org/namespaces/inkscape"
   version="1.0"
   width="395.000000pt"
   height="395.000000pt"
   viewBox="0 0 395.000000 395.000000"
   preserveAspectRatio="xMidYMid meet"
   id="svg2"
   inkscape:version="0.92.3 (2405546, 2018-03-11)"
   sodipodi:docname="dome-park.svg">
  <defs
     id="defs14" />
  <sodipodi:namedview
     pagecolor="#ffffff"
     bordercolor="#666666"
     borderopacity="1"
     objecttolerance="10"
     gridtolerance="10"
     guidetolerance="10"
     inkscape:pageopacity="0"
     inkscape:pageshadow="2"
     inkscape:window-width="1920"
     inkscape:window-height="1055"
     id="namedview12"
     showgrid="false"
     inkscape:zoom="0.47797468"
     inkscape:cx="-134.94439"
     inkscape:cy="246.875"
     inkscape:window-x="0"
     inkscape:window-y="0"
     inkscape:window-maximized="1"
     inkscape:current-layer="svg2" />
  <metadata
     id="metadata4">
Created by potrace 1.15, written by Peter Selinger 2001-2017
<rdf:RDF>
  <cc:Work
     rdf:about="">
    <dc:format>image/svg+xml</dc:format>
    <dc:type
       rdf:resource="http://purl.org/dc/dcmitype/StillImage" />
  </cc:Work>
</rdf:RDF>
</metadata>
  <g
     transform="matrix(0.1,0,0,-0.1,0,395)"
     id="g6"
     style="fill:#da4453;stroke:none;fill-opacity:1">
    <path
       d="M 1300,3930 C 840,3832 484,3473 391,3013 372,2922 370,2876 370,2536 v -376 h -65 -65 v -125 -125 h 65 65 V 1080 250 H 305 240 V 125 0 h 1735 1735 v 125 125 h -65 -65 v 830 830 h 65 65 v 125 125 h -65 -65 v 376 c 0,340 -2,386 -21,477 -81,401 -369,735 -751,872 -179,64 -197,65 -842,64 -522,0 -590,-2 -666,-19 z m 1254,-56 c 14,-6 16,-87 16,-820 v -814 h -595 -595 v 814 c 0,642 3,815 13,819 18,8 1142,8 1161,1 z M 1340,3035 v -825 h 35 c 31,0 35,-3 35,-25 v -25 H 924 439 l 3,398 c 4,392 4,398 30,494 84,308 286,561 563,705 91,47 241,102 283,103 h 22 z m 1392,799 c 177,-55 346,-161 475,-297 129,-136 221,-300 271,-484 26,-97 26,-102 30,-495 l 3,-398 h -485 -486 v 25 c 0,22 4,25 35,25 h 35 v 825 c 0,811 0,825 19,825 11,0 57,-12 103,-26 z m 908,-1799 v -55 H 1975 310 v 55 55 H 1975 3640 Z M 670,1804 c 0,-112 9,-144 40,-144 31,0 40,32 40,144 v 106 h 115 114 l 3,-116 c 2,-95 6,-119 19,-127 9,-6 24,-7 33,-4 14,5 16,25 16,127 v 120 h 120 120 v -114 c 0,-122 8,-144 50,-131 19,6 20,14 20,126 v 119 h 120 120 v -114 c 0,-91 3,-116 16,-127 11,-9 20,-10 32,-2 14,8 18,31 20,127 l 3,116 h 119 120 v -119 c 0,-112 1,-120 20,-126 42,-13 50,9 50,131 v 114 h 120 120 v -120 c 0,-102 2,-122 16,-127 9,-3 24,-2 33,4 13,8 17,32 19,127 l 3,116 h 119 120 v -120 c 0,-102 2,-122 16,-127 9,-3 24,-2 33,4 13,8 17,32 19,127 l 3,116 h 114 115 v -106 c 0,-112 9,-144 40,-144 31,0 40,32 40,144 v 106 h 115 114 l 3,-116 c 2,-95 6,-119 19,-127 9,-6 24,-7 33,-4 14,5 16,25 16,127 v 120 h 150 150 V 1080 250 H 2870 2230 V 590 930 H 1975 1720 V 590 250 H 1080 440 v 830 830 H 555 670 Z M 3640,125 V 70 H 1975 310 v 55 55 h 1665 1665 z"
       id="path8"
       style="fill:#da4453;fill-opacity:1"
       inkscape:connector-curvature="0" />
    <path
       d="M 995,3598 C 733,3424 577,3148 553,2821 c -5,-72 -3,-89 10,-99 9,-8 24,-12 34,-10 15,3 20,21 29,113 18,164 42,253 102,370 62,124 185,259 314,346 61,41 78,56 78,71 0,9 -30,38 -40,38 -5,0 -43,-23 -85,-52 z"
       id="path10"
       style="fill:#da4453;fill-opacity:1"
       inkscape:connector-curvature="0" />
  </g>
</svg>
