<?xml version="1.0" encoding="iso-8859-1"?>
<!-- Generator: Adobe Illustrator 19.0.0, SVG Export Plug-In . SVG Version: 6.00 Build 0)  -->
<svg version="1.1" id="Capa_1" xmlns="http://www.w3.org/2000/svg" xmlns:xlink="http://www.w3.org/1999/xlink" x="0px" y="0px"
	 viewBox="0 0 394.83 394.83" style="enable-background:new 0 0 394.83 394.83;" xml:space="preserve">
<g>
	<path id="Observatory" d="M200.499,67.862c-1.703,0-3.085,1.382-3.085,3.085s1.382,3.085,3.085,3.085
		c7.348,0,15.423,8.076,15.423,15.423c0,1.703,1.382,3.085,3.085,3.085c1.703,0,3.085-1.382,3.085-3.085
		C222.091,78.763,211.19,67.862,200.499,67.862L200.499,67.862z M106.387,31.272C73.585,50.699,55.522,82.31,55.522,120.3
		c0,1.703,1.382,3.085,3.085,3.085s3.085-1.382,3.085-3.085c0-36.238,16.546-65.184,47.842-83.71c1.462-0.87,1.949-2.77,1.08-4.232
		C109.755,30.902,107.862,30.414,106.387,31.272L106.387,31.272z M30.844,197.415v-12.339h6.169H148.06h98.708h111.046h6.169v12.339
		H30.844z M178.906,370.154h37.015v-61.692h-37.015V370.154L178.906,370.154z M70.944,228.262c1.697,0,3.085-1.388,3.085-3.085
		v-21.592h24.677v21.592c0,1.697,1.388,3.085,3.085,3.085s3.085-1.388,3.085-3.085v-21.592h24.677v21.592
		c0,1.697,1.388,3.085,3.085,3.085s3.085-1.388,3.085-3.085v-21.592h24.675v21.592c0,1.697,1.388,3.085,3.085,3.085
		c1.697,0,3.085-1.388,3.085-3.085v-21.592h24.677v21.592c0,1.697,1.388,3.085,3.085,3.085c1.697,0,3.085-1.388,3.085-3.085v-21.592
		h24.677v21.592c0,1.697,1.388,3.085,3.085,3.085c1.697,0,3.085-1.388,3.085-3.085v-21.592h24.677v21.592
		c0,1.697,1.388,3.085,3.085,3.085c1.697,0,3.085-1.388,3.085-3.085v-21.592h24.677v21.592c0,1.697,1.388,3.085,3.085,3.085
		c1.697,0,3.085-1.388,3.085-3.085v-21.592h24.677v21.592c0,1.697,1.388,3.085,3.085,3.085c1.697,0,3.085-1.388,3.085-3.085v-21.592
		h30.846v166.569H222.091v-67.862h-49.354v67.862H43.184V203.585h24.677v21.592C67.861,226.874,69.249,228.262,70.944,228.262
		L70.944,228.262z M363.983,376.323v12.339H30.844v-12.339h141.892h49.354H363.983z M43.184,117.215
		c0-56.967,42.851-104.316,98.708-110.522v172.214H43.184V117.215L43.184,117.215z M148.061,178.908h98.708V30.846h-98.708V178.908z
		 M252.936,6.694c55.856,6.206,98.708,53.555,98.708,110.522v61.692h-98.708V6.694z M370.152,203.585v-24.677h-12.338v-61.692
		c0-62.389-49.434-113.958-111.046-117.215v24.677H148.06V0C86.448,3.257,37.014,54.826,37.014,117.215v61.692H24.676v24.677h12.338
		v166.569H24.676v24.677h345.477v-24.677h-12.338V203.585H370.152z M197.414,123.385c-17.009,0-30.846-13.838-30.846-30.846
		s13.838-30.846,30.846-30.846c17.009,0,30.846,13.838,30.846,30.846S214.423,123.385,197.414,123.385L197.414,123.385z
		 M197.414,55.523c-20.445,0-37.015,16.571-37.015,37.015c0,20.445,16.571,37.015,37.015,37.015
		c20.445,0,37.015-16.571,37.015-37.015C234.43,72.094,217.858,55.523,197.414,55.523L197.414,55.523z"/>
</g>
<g>
</g>
<g>
</g>
<g>
</g>
<g>
</g>
<g>
</g>
<g>
</g>
<g>
</g>
<g>
</g>
<g>
</g>
<g>
</g>
<g>
</g>
<g>
</g>
<g>
</g>
<g>
</g>
<g>
</g>
</svg>
