<?xml version="1.0" standalone="no"?>
<!DOCTYPE svg PUBLIC "-//W3C//DTD SVG 20010904//EN"
 "http://www.w3.org/TR/2001/REC-SVG-20010904/DTD/svg10.dtd">
<svg version="1.0" xmlns="http://www.w3.org/2000/svg"
 width="395.000000pt" height="395.000000pt" viewBox="0 0 395.000000 395.000000"
 preserveAspectRatio="xMidYMid meet">
<metadata>
Created by potrace 1.15, written by Peter Selinger 2001-2017
</metadata>
<g transform="translate(0.000000,395.000000) scale(0.100000,-0.100000)"
fill="#000000" stroke="none">
<path d="M1300 3930 c-460 -98 -816 -457 -909 -917 -19 -91 -21 -137 -21 -477
l0 -376 -65 0 -65 0 0 -125 0 -125 65 0 65 0 0 -830 0 -830 -65 0 -65 0 0
-125 0 -125 1735 0 1735 0 0 125 0 125 -65 0 -65 0 0 830 0 830 65 0 65 0 0
125 0 125 -65 0 -65 0 0 376 c0 340 -2 386 -21 477 -81 401 -369 735 -751 872
-179 64 -197 65 -842 64 -522 0 -590 -2 -666 -19z m1254 -56 c14 -6 16 -87 16
-820 l0 -814 -595 0 -595 0 0 814 c0 642 3 815 13 819 18 8 1142 8 1161 1z
m-1214 -839 l0 -825 35 0 c31 0 35 -3 35 -25 l0 -25 -486 0 -485 0 3 398 c4
392 4 398 30 494 84 308 286 561 563 705 91 47 241 102 283 103 l22 0 0 -825z
m1392 799 c177 -55 346 -161 475 -297 129 -136 221 -300 271 -484 26 -97 26
-102 30 -495 l3 -398 -485 0 -486 0 0 25 c0 22 4 25 35 25 l35 0 0 825 c0 811
0 825 19 825 11 0 57 -12 103 -26z m908 -1799 l0 -55 -1665 0 -1665 0 0 55 0
55 1665 0 1665 0 0 -55z m-2970 -231 c0 -112 9 -144 40 -144 31 0 40 32 40
144 l0 106 115 0 114 0 3 -116 c2 -95 6 -119 19 -127 9 -6 24 -7 33 -4 14 5
16 25 16 127 l0 120 120 0 120 0 0 -114 c0 -122 8 -144 50 -131 19 6 20 14 20
126 l0 119 120 0 120 0 0 -114 c0 -91 3 -116 16 -127 11 -9 20 -10 32 -2 14 8
18 31 20 127 l3 116 119 0 120 0 0 -119 c0 -112 1 -120 20 -126 42 -13 50 9
50 131 l0 114 120 0 120 0 0 -120 c0 -102 2 -122 16 -127 9 -3 24 -2 33 4 13
8 17 32 19 127 l3 116 119 0 120 0 0 -120 c0 -102 2 -122 16 -127 9 -3 24 -2
33 4 13 8 17 32 19 127 l3 116 114 0 115 0 0 -106 c0 -112 9 -144 40 -144 31
0 40 32 40 144 l0 106 115 0 114 0 3 -116 c2 -95 6 -119 19 -127 9 -6 24 -7
33 -4 14 5 16 25 16 127 l0 120 150 0 150 0 0 -830 0 -830 -640 0 -640 0 0
340 0 340 -255 0 -255 0 0 -340 0 -340 -640 0 -640 0 0 830 0 830 115 0 115 0
0 -106z m2970 -1679 l0 -55 -1665 0 -1665 0 0 55 0 55 1665 0 1665 0 0 -55z"/>
<path d="M995 3598 c-262 -174 -418 -450 -442 -777 -5 -72 -3 -89 10 -99 9 -8
24 -12 34 -10 15 3 20 21 29 113 18 164 42 253 102 370 62 124 185 259 314
346 61 41 78 56 78 71 0 9 -30 38 -40 38 -5 0 -43 -23 -85 -52z"/>
</g>
</svg>
