<?xml version="1.0" encoding="UTF-8" standalone="no"?>
<!-- Generator: Adobe Illustrator 19.0.0, SVG Export Plug-In . SVG Version: 6.00 Build 0)  -->

<svg
   xmlns:dc="http://purl.org/dc/elements/1.1/"
   xmlns:cc="http://creativecommons.org/ns#"
   xmlns:rdf="http://www.w3.org/1999/02/22-rdf-syntax-ns#"
   xmlns:svg="http://www.w3.org/2000/svg"
   xmlns="http://www.w3.org/2000/svg"
   xmlns:sodipodi="http://sodipodi.sourceforge.net/DTD/sodipodi-0.dtd"
   xmlns:inkscape="http://www.inkscape.org/namespaces/inkscape"
   version="1.1"
   id="Capa_1"
   x="0px"
   y="0px"
   viewBox="0 0 394.83 394.83"
   style="enable-background:new 0 0 394.83 394.83;"
   xml:space="preserve"
   inkscape:version="0.92.3 (2405546, 2018-03-11)"
   sodipodi:docname="dome-unpark.svg"><metadata
     id="metadata40"><rdf:RDF><cc:Work
         rdf:about=""><dc:format>image/svg+xml</dc:format><dc:type
           rdf:resource="http://purl.org/dc/dcmitype/StillImage" /></cc:Work></rdf:RDF></metadata><defs
     id="defs38" /><sodipodi:namedview
     pagecolor="#ffffff"
     bordercolor="#666666"
     borderopacity="1"
     objecttolerance="10"
     gridtolerance="10"
     guidetolerance="10"
     inkscape:pageopacity="0"
     inkscape:pageshadow="2"
     inkscape:window-width="1920"
     inkscape:window-height="1017"
     id="namedview36"
     showgrid="false"
     inkscape:zoom="1.6906234"
     inkscape:cx="60.189977"
     inkscape:cy="231.36167"
     inkscape:window-x="1920"
     inkscape:window-y="0"
     inkscape:window-maximized="1"
     inkscape:current-layer="Capa_1" /><g
     id="g3"
     style="fill:#ececec"><path
       id="Observatory"
       d="M200.499,67.862c-1.703,0-3.085,1.382-3.085,3.085s1.382,3.085,3.085,3.085   c7.348,0,15.423,8.076,15.423,15.423c0,1.703,1.382,3.085,3.085,3.085c1.703,0,3.085-1.382,3.085-3.085   C222.091,78.763,211.19,67.862,200.499,67.862L200.499,67.862z M106.387,31.272C73.585,50.699,55.522,82.31,55.522,120.3   c0,1.703,1.382,3.085,3.085,3.085s3.085-1.382,3.085-3.085c0-36.238,16.546-65.184,47.842-83.71c1.462-0.87,1.949-2.77,1.08-4.232   C109.755,30.902,107.862,30.414,106.387,31.272L106.387,31.272z M30.844,197.415v-12.339h6.169H148.06h98.708h111.046h6.169v12.339   H30.844z M178.906,370.154h37.015v-61.692h-37.015V370.154L178.906,370.154z M70.944,228.262c1.697,0,3.085-1.388,3.085-3.085   v-21.592h24.677v21.592c0,1.697,1.388,3.085,3.085,3.085s3.085-1.388,3.085-3.085v-21.592h24.677v21.592   c0,1.697,1.388,3.085,3.085,3.085s3.085-1.388,3.085-3.085v-21.592h24.675v21.592c0,1.697,1.388,3.085,3.085,3.085   c1.697,0,3.085-1.388,3.085-3.085v-21.592h24.677v21.592c0,1.697,1.388,3.085,3.085,3.085c1.697,0,3.085-1.388,3.085-3.085v-21.592   h24.677v21.592c0,1.697,1.388,3.085,3.085,3.085c1.697,0,3.085-1.388,3.085-3.085v-21.592h24.677v21.592   c0,1.697,1.388,3.085,3.085,3.085c1.697,0,3.085-1.388,3.085-3.085v-21.592h24.677v21.592c0,1.697,1.388,3.085,3.085,3.085   c1.697,0,3.085-1.388,3.085-3.085v-21.592h24.677v21.592c0,1.697,1.388,3.085,3.085,3.085c1.697,0,3.085-1.388,3.085-3.085v-21.592   h30.846v166.569H222.091v-67.862h-49.354v67.862H43.184V203.585h24.677v21.592C67.861,226.874,69.249,228.262,70.944,228.262   L70.944,228.262z M363.983,376.323v12.339H30.844v-12.339h141.892h49.354H363.983z M43.184,117.215   c0-56.967,42.851-104.316,98.708-110.522v172.214H43.184V117.215L43.184,117.215z M148.061,178.908h98.708V30.846h-98.708V178.908z    M252.936,6.694c55.856,6.206,98.708,53.555,98.708,110.522v61.692h-98.708V6.694z M370.152,203.585v-24.677h-12.338v-61.692   c0-62.389-49.434-113.958-111.046-117.215v24.677H148.06V0C86.448,3.257,37.014,54.826,37.014,117.215v61.692H24.676v24.677h12.338   v166.569H24.676v24.677h345.477v-24.677h-12.338V203.585H370.152z M197.414,123.385c-17.009,0-30.846-13.838-30.846-30.846   s13.838-30.846,30.846-30.846c17.009,0,30.846,13.838,30.846,30.846S214.423,123.385,197.414,123.385L197.414,123.385z    M197.414,55.523c-20.445,0-37.015,16.571-37.015,37.015c0,20.445,16.571,37.015,37.015,37.015   c20.445,0,37.015-16.571,37.015-37.015C234.43,72.094,217.858,55.523,197.414,55.523L197.414,55.523z"
       style="fill:#ececec" /></g><g
     id="g6" /><g
     id="g8" /><g
     id="g10" /><g
     id="g12" /><g
     id="g14" /><g
     id="g16" /><g
     id="g18" /><g
     id="g20" /><g
     id="g22" /><g
     id="g24" /><g
     id="g26" /><g
     id="g28" /><g
     id="g30" /><g
     id="g32" /><g
     id="g34" /><path
     style="opacity:1;fill:#2ecc71;fill-opacity:1;stroke:#ffffff;stroke-width:2.95748901;stroke-miterlimit:4;stroke-dasharray:none;stroke-dashoffset:0;stroke-opacity:1"
     d="m 246.50716,0.28169572 c 0,8.04028838 0,16.08057628 0,24.12086428 -32.72646,0 -65.45292,0 -98.17939,0 -0.22214,-8.087782 0.43609,-16.5614057 -0.32463,-24.41314737 C 109.03426,2.0110845 72.071126,25.03749 52.744907,58.887126 41.975926,77.387083 36.595897,98.874015 37.212829,120.26333 c -0.171569,19.50617 -0.06602,39.01349 -0.09589,58.52016 -4.093878,0.21263 -8.536819,-0.41743 -12.421454,0.30037 0.205584,8.14024 -0.405252,16.61865 0.30037,24.55177 4.040361,0 8.080723,0 12.121084,0 0,55.40055 0,110.8011 0,166.20165 -4.093878,0.21263 -8.536819,-0.41744 -12.421454,0.30036 0.205584,8.14025 -0.405252,16.61866 0.30037,24.55178 114.947745,0 229.895485,0 344.843225,0 0.70001,-7.93544 0.0988,-16.40985 0.30036,-24.55178 -3.89199,-0.70004 -8.3236,-0.0973 -12.42145,-0.30036 0,-55.40055 0,-110.8011 0,-166.20165 4.09388,-0.21263 8.53682,0.41744 12.42145,-0.30036 -0.20558,-8.14025 0.40526,-16.61866 -0.30036,-24.55178 -4.04037,0 -8.08073,0 -12.12109,0 -0.27223,-24.78895 0.63676,-49.61694 -0.73244,-74.3797 C 352.70062,62.821337 324.20273,24.828354 285.5076,9.0106904 273.23327,3.8872397 260.13056,0.68990407 246.83295,-0.01751898 Z M 141.81205,92.689362 c 0,28.698038 0,57.396088 0,86.094128 -32.95213,0 -65.904251,0 -98.856378,0 C 43.3649,153.9473 42.754565,129.0663 44.015054,104.2617 47.460793,70.446886 68.090732,39.195128 97.279894,21.908334 110.81455,13.737914 126.11525,8.5204174 141.81205,6.6379863 c 0,28.6837927 0,57.3675827 0,86.0513757 z M 255.48822,6.9822569 c 38.73036,5.1789911 73.87289,32.1224671 88.03388,68.6988401 5.50505,13.731615 8.37694,28.460173 7.92568,43.259403 0.21924,19.94702 0.29026,39.89535 0.43725,59.84299 -32.95405,0 -65.9081,0 -98.86215,0 0,-57.38184 0,-114.763672 0,-172.1455037 0.82178,0.1147571 1.64356,0.2295136 2.46534,0.3442706 z M 197.41747,185.2992 c 55.59925,0 111.1985,0 166.79776,0 0,3.94024 0,7.88048 0,11.82072 -111.19851,0 -222.39702,0 -333.595522,0 1e-6,-3.94024 0,-7.88048 0,-11.82072 55.599254,0 111.198502,0 166.797762,0 z M 55.457995,203.63563 c 4.138944,0 8.277888,0 12.416833,0 0.09285,7.65162 -0.184345,15.39734 0.136321,22.99101 1.296301,1.66557 4.86613,2.47701 5.462113,-0.19523 0.698416,-7.56438 0.143892,-15.20438 0.325785,-22.79578 8.277889,0 16.55578,0 24.833668,0 0.34156,7.60013 -0.672261,15.37111 0.534885,22.88357 1.06386,2.03473 4.0075,2.56931 5.11669,0.21604 1.72711,-4.96068 0.42703,-10.53899 0.86414,-15.7105 0.40885,-3.23718 -1.78373,-9.07579 3.54899,-7.38911 6.89772,0 13.79545,0 20.69318,0 0.3739,7.537 -0.74965,15.27661 0.63077,22.70566 0.86539,2.0465 3.5967,2.83396 4.83019,0.6354 1.98785,-3.91952 0.57785,-8.75801 1.05476,-12.99446 0.41631,-3.22972 -0.81981,-8.11187 0.59149,-10.3466 7.88356,0 15.76712,0 23.65068,0 0.37389,7.537 -0.74965,15.27661 0.63077,22.70566 0.94569,2.47875 4.00352,2.54225 5.27265,0.32926 1.3641,-6.54577 0.22686,-13.45025 0.61229,-20.11555 -1.31637,-5.04981 5.29376,-2.17313 8.28097,-2.91937 5.51757,0 11.03513,0 16.5527,0 0.31219,7.76372 -0.61813,15.67205 0.50601,23.35955 1.68881,2.89401 6.74814,-0.0311 5.41821,-2.98522 0,-6.79144 0,-13.58288 0,-20.37433 8.27788,0 16.55578,0 24.83366,0 0.31084,7.68814 -0.63203,15.5179 0.5811,23.12965 1.1379,3.20501 5.42609,0.83876 5.16521,-1.82417 0.36781,-7.09269 0.0883,-14.20538 0.17791,-21.30548 8.27789,0 16.55578,0 24.83367,0 0.34156,7.60013 -0.67226,15.37111 0.53489,22.88357 0.99776,2.09957 4.36565,2.64383 4.92607,-0.11321 0.94433,-7.5338 0.23086,-15.19209 0.46326,-22.77036 8.27788,0 16.55578,0 24.83367,0 0.0928,7.65162 -0.18435,15.39734 0.13632,22.99101 1.2963,1.66557 4.86613,2.47701 5.46211,-0.19523 0.69841,-7.56438 0.14389,-15.20438 0.32578,-22.79578 8.27789,0 16.55578,0 24.83367,0 0.34156,7.60013 -0.67226,15.37111 0.53489,22.88357 1.06385,2.03473 4.0075,2.56931 5.11669,0.21604 1.72711,-4.96068 0.42703,-10.53899 0.86414,-15.7105 0.40885,-3.23718 -1.78373,-9.07579 3.54898,-7.38911 9.06656,0 18.13311,0 27.19966,0 0,55.40055 0,110.8011 0,166.20165 -43.17626,0 -86.35252,0 -129.52878,0 0,-22.3768 0,-44.75359 0,-67.13038 -10.00609,-0.69902 -20.54852,-0.10323 -30.7625,-0.30037 -6.26673,0.20665 -12.87414,-0.40919 -18.93255,0.30037 0,22.37679 0,44.75358 0,67.13038 -43.17626,0 -86.352522,0 -129.528778,0 0,-55.40055 0,-110.8011 0,-166.20165 4.138944,0 8.277888,0 12.416833,0 z M 197.41747,376.35299 c 55.59925,0 111.1985,0 166.79776,0 0,4.1374 0,8.27481 0,12.41222 -111.19851,0 -222.39702,0 -333.595522,0 0,-4.13741 1e-6,-8.27482 0,-12.41222 55.599254,0 111.198502,0 166.797762,0 z"
     id="path833"
     inkscape:connector-curvature="0" /></svg>