<?xml version="1.0" encoding="UTF-8" standalone="no"?>
<svg
   xmlns:dc="http://purl.org/dc/elements/1.1/"
   xmlns:cc="http://creativecommons.org/ns#"
   xmlns:rdf="http://www.w3.org/1999/02/22-rdf-syntax-ns#"
   xmlns:svg="http://www.w3.org/2000/svg"
   xmlns="http://www.w3.org/2000/svg"
   xmlns:sodipodi="http://sodipodi.sourceforge.net/DTD/sodipodi-0.dtd"
   xmlns:inkscape="http://www.inkscape.org/namespaces/inkscape"
   id="_x30_"
   version="1.2"
   width="394.26556"
   y="0px"
   xml:space="preserve"
   x="0px"
   height="998.2934"
   viewBox="0 0 295.69936 748.71874"
   gorn="0"
   sodipodi:docname="pi.svg"
   inkscape:version="0.92.3 (2405546, 2018-03-11)"><sodipodi:namedview
   pagecolor="#ffffff"
   bordercolor="#666666"
   borderopacity="1"
   objecttolerance="10"
   gridtolerance="10"
   guidetolerance="10"
   inkscape:pageopacity="0"
   inkscape:pageshadow="2"
   inkscape:window-width="1920"
   inkscape:window-height="1021"
   id="namedview1471"
   showgrid="false"
   inkscape:zoom="0.62742372"
   inkscape:cx="-58.695129"
   inkscape:cy="337.1909"
   inkscape:window-x="1600"
   inkscape:window-y="0"
   inkscape:window-maximized="1"
   inkscape:current-layer="_x30_"
   inkscape:pagecheckerboard="true"
   units="px"
   fit-margin-top="0"
   fit-margin-left="0"
   fit-margin-right="0"
   fit-margin-bottom="0" /><desc
   id="desc3"><referenceFile>raspberry_pi3_v1.2_breadboard.svg</referenceFile></desc><metadata
   id="metadata1156"><rdf:RDF><cc:Work
       rdf:about=""><dc:format>image/svg+xml</dc:format><dc:type
         rdf:resource="http://purl.org/dc/dcmitype/StillImage" /><dc:title></dc:title></cc:Work></rdf:RDF></metadata><defs
   id="defs1154"><marker
     inkscape:isstock="true"
     style="overflow:visible"
     id="marker47037"
     refX="0"
     refY="0"
     orient="auto"
     inkscape:stockid="Torso"><g
       style="fill:#e65a16;fill-opacity:1;stroke:#e65a16;stroke-opacity:1"
       transform="scale(0.7)"
       id="g47035"><path
         style="fill:#e65a16;fill-opacity:1;fill-rule:evenodd;stroke:#e65a16;stroke-width:1.25;stroke-opacity:1"
         d="m -4.7792281,-3.239542 c 2.350374,0.3659393 5.30026732,1.9375477 5.03715532,3.62748546 C -0.00518779,2.0778819 -2.2126741,2.6176539 -4.5630471,2.2517169 -6.9134221,1.8857769 -8.521035,0.75201414 -8.257922,-0.93792336 -7.994809,-2.6278615 -7.1296041,-3.6054813 -4.7792281,-3.239542 Z"
         id="path47021"
         inkscape:connector-curvature="0" /><path
         style="fill:#e65a16;fill-opacity:1;fill-rule:evenodd;stroke:#e65a16;stroke-width:1.00000003pt;stroke-opacity:1"
         d="M 4.4598789,0.08866574 C -2.5564571,-4.378332 5.2248769,-3.9061806 -0.84829578,-8.7197331"
         id="path47023"
         inkscape:connector-curvature="0" /><path
         style="fill:#e65a16;fill-opacity:1;fill-rule:evenodd;stroke:#e65a16;stroke-width:1.00000003pt;stroke-opacity:1"
         d="M 4.9298719,0.05752074 C -1.3872731,1.7494689 1.8027579,5.4782079 -4.9448731,7.5462725"
         id="path47025"
         inkscape:connector-curvature="0" /><rect
         style="fill:#e65a16;fill-opacity:1;fill-rule:evenodd;stroke:#e65a16;stroke-width:1.00000003pt;stroke-opacity:1"
         width="2.6366582"
         height="2.7608147"
         x="-10.391706"
         y="-1.7408575"
         transform="matrix(0.527536,-0.849533,0.887668,0.460484,0,0)"
         id="rect47027" /><rect
         style="fill:#e65a16;fill-opacity:1;fill-rule:evenodd;stroke:#e65a16;stroke-width:1.00000003pt;stroke-opacity:1"
         width="2.7327356"
         height="2.8614161"
         x="4.9587269"
         y="-7.9629307"
         transform="matrix(0.671205,-0.741272,0.790802,0.612072,0,0)"
         id="rect47029" /><path
         style="fill:#e65a16;fill-opacity:1;fill-rule:evenodd;stroke:#e65a16;stroke-width:1.00000003pt;stroke-opacity:1"
         d="m 16.779951,-28.685045 a 0.60731727,0.60731727 0 1 0 -1.214634,0 0.60731727,0.60731727 0 1 0 1.214634,0 z"
         transform="matrix(0,-1.109517,1.109517,0,25.96648,19.71619)"
         id="path47031"
         inkscape:connector-curvature="0" /><path
         style="fill:#e65a16;fill-opacity:1;fill-rule:evenodd;stroke:#e65a16;stroke-width:1.00000003pt;stroke-opacity:1"
         d="m 16.779951,-28.685045 a 0.60731727,0.60731727 0 1 0 -1.214634,0 0.60731727,0.60731727 0 1 0 1.214634,0 z"
         transform="matrix(0,-1.109517,1.109517,0,26.8245,16.99126)"
         id="path47033"
         inkscape:connector-curvature="0" /></g></marker><marker
     inkscape:isstock="true"
     style="overflow:visible"
     id="marker46869"
     refX="0"
     refY="0"
     orient="auto"
     inkscape:stockid="Torso"><g
       style="fill:#e65a16;fill-opacity:1;stroke:#e65a16;stroke-opacity:1"
       transform="scale(0.7)"
       id="g46867"><path
         style="fill:#e65a16;fill-opacity:1;fill-rule:evenodd;stroke:#e65a16;stroke-width:1.25;stroke-opacity:1"
         d="m -4.7792281,-3.239542 c 2.350374,0.3659393 5.30026732,1.9375477 5.03715532,3.62748546 C -0.00518779,2.0778819 -2.2126741,2.6176539 -4.5630471,2.2517169 -6.9134221,1.8857769 -8.521035,0.75201414 -8.257922,-0.93792336 -7.994809,-2.6278615 -7.1296041,-3.6054813 -4.7792281,-3.239542 Z"
         id="path46853"
         inkscape:connector-curvature="0" /><path
         style="fill:#e65a16;fill-opacity:1;fill-rule:evenodd;stroke:#e65a16;stroke-width:1.00000003pt;stroke-opacity:1"
         d="M 4.4598789,0.08866574 C -2.5564571,-4.378332 5.2248769,-3.9061806 -0.84829578,-8.7197331"
         id="path46855"
         inkscape:connector-curvature="0" /><path
         style="fill:#e65a16;fill-opacity:1;fill-rule:evenodd;stroke:#e65a16;stroke-width:1.00000003pt;stroke-opacity:1"
         d="M 4.9298719,0.05752074 C -1.3872731,1.7494689 1.8027579,5.4782079 -4.9448731,7.5462725"
         id="path46857"
         inkscape:connector-curvature="0" /><rect
         style="fill:#e65a16;fill-opacity:1;fill-rule:evenodd;stroke:#e65a16;stroke-width:1.00000003pt;stroke-opacity:1"
         width="2.6366582"
         height="2.7608147"
         x="-10.391706"
         y="-1.7408575"
         transform="matrix(0.527536,-0.849533,0.887668,0.460484,0,0)"
         id="rect46859" /><rect
         style="fill:#e65a16;fill-opacity:1;fill-rule:evenodd;stroke:#e65a16;stroke-width:1.00000003pt;stroke-opacity:1"
         width="2.7327356"
         height="2.8614161"
         x="4.9587269"
         y="-7.9629307"
         transform="matrix(0.671205,-0.741272,0.790802,0.612072,0,0)"
         id="rect46861" /><path
         style="fill:#e65a16;fill-opacity:1;fill-rule:evenodd;stroke:#e65a16;stroke-width:1.00000003pt;stroke-opacity:1"
         d="m 16.779951,-28.685045 a 0.60731727,0.60731727 0 1 0 -1.214634,0 0.60731727,0.60731727 0 1 0 1.214634,0 z"
         transform="matrix(0,-1.109517,1.109517,0,25.96648,19.71619)"
         id="path46863"
         inkscape:connector-curvature="0" /><path
         style="fill:#e65a16;fill-opacity:1;fill-rule:evenodd;stroke:#e65a16;stroke-width:1.00000003pt;stroke-opacity:1"
         d="m 16.779951,-28.685045 a 0.60731727,0.60731727 0 1 0 -1.214634,0 0.60731727,0.60731727 0 1 0 1.214634,0 z"
         transform="matrix(0,-1.109517,1.109517,0,26.8245,16.99126)"
         id="path46865"
         inkscape:connector-curvature="0" /></g></marker><marker
     inkscape:stockid="Torso"
     orient="auto"
     refY="0"
     refX="0"
     id="marker3256"
     style="overflow:visible"
     inkscape:isstock="true"
     inkscape:collect="always"><g
       id="g3254"
       transform="scale(0.7)"
       style="fill:#e65a16;fill-opacity:1;stroke:#e65a16;stroke-opacity:1"><path
         id="path3240"
         d="m -4.7792281,-3.239542 c 2.350374,0.3659393 5.30026732,1.9375477 5.03715532,3.62748546 C -0.00518779,2.0778819 -2.2126741,2.6176539 -4.5630471,2.2517169 -6.9134221,1.8857769 -8.521035,0.75201414 -8.257922,-0.93792336 -7.994809,-2.6278615 -7.1296041,-3.6054813 -4.7792281,-3.239542 Z"
         style="fill:#e65a16;fill-opacity:1;fill-rule:evenodd;stroke:#e65a16;stroke-width:1.25;stroke-opacity:1"
         inkscape:connector-curvature="0" /><path
         id="path3242"
         d="M 4.4598789,0.08866574 C -2.5564571,-4.378332 5.2248769,-3.9061806 -0.84829578,-8.7197331"
         style="fill:#e65a16;fill-opacity:1;fill-rule:evenodd;stroke:#e65a16;stroke-width:1.00000003pt;stroke-opacity:1"
         inkscape:connector-curvature="0" /><path
         id="path3244"
         d="M 4.9298719,0.05752074 C -1.3872731,1.7494689 1.8027579,5.4782079 -4.9448731,7.5462725"
         style="fill:#e65a16;fill-opacity:1;fill-rule:evenodd;stroke:#e65a16;stroke-width:1.00000003pt;stroke-opacity:1"
         inkscape:connector-curvature="0" /><rect
         id="rect3246"
         transform="matrix(0.527536,-0.849533,0.887668,0.460484,0,0)"
         y="-1.7408575"
         x="-10.391706"
         height="2.7608147"
         width="2.6366582"
         style="fill:#e65a16;fill-opacity:1;fill-rule:evenodd;stroke:#e65a16;stroke-width:1.00000003pt;stroke-opacity:1" /><rect
         id="rect3248"
         transform="matrix(0.671205,-0.741272,0.790802,0.612072,0,0)"
         y="-7.9629307"
         x="4.9587269"
         height="2.8614161"
         width="2.7327356"
         style="fill:#e65a16;fill-opacity:1;fill-rule:evenodd;stroke:#e65a16;stroke-width:1.00000003pt;stroke-opacity:1" /><path
         id="path3250"
         transform="matrix(0,-1.109517,1.109517,0,25.96648,19.71619)"
         d="m 16.779951,-28.685045 a 0.60731727,0.60731727 0 1 0 -1.214634,0 0.60731727,0.60731727 0 1 0 1.214634,0 z"
         style="fill:#e65a16;fill-opacity:1;fill-rule:evenodd;stroke:#e65a16;stroke-width:1.00000003pt;stroke-opacity:1"
         inkscape:connector-curvature="0" /><path
         id="path3252"
         transform="matrix(0,-1.109517,1.109517,0,26.8245,16.99126)"
         d="m 16.779951,-28.685045 a 0.60731727,0.60731727 0 1 0 -1.214634,0 0.60731727,0.60731727 0 1 0 1.214634,0 z"
         style="fill:#e65a16;fill-opacity:1;fill-rule:evenodd;stroke:#e65a16;stroke-width:1.00000003pt;stroke-opacity:1"
         inkscape:connector-curvature="0" /></g></marker><marker
     inkscape:stockid="Torso"
     orient="auto"
     refY="0"
     refX="0"
     id="Torso"
     style="overflow:visible"
     inkscape:isstock="true"
     inkscape:collect="always"><g
       id="g2812"
       transform="scale(0.7)"
       style="fill:#e65a16;fill-opacity:1;stroke:#e65a16;stroke-opacity:1"><path
         id="path2798"
         d="m -4.7792281,-3.239542 c 2.350374,0.3659393 5.30026732,1.9375477 5.03715532,3.62748546 C -0.00518779,2.0778819 -2.2126741,2.6176539 -4.5630471,2.2517169 -6.9134221,1.8857769 -8.521035,0.75201414 -8.257922,-0.93792336 -7.994809,-2.6278615 -7.1296041,-3.6054813 -4.7792281,-3.239542 Z"
         style="fill:#e65a16;fill-opacity:1;fill-rule:evenodd;stroke:#e65a16;stroke-width:1.25;stroke-opacity:1"
         inkscape:connector-curvature="0" /><path
         id="path2800"
         d="M 4.4598789,0.08866574 C -2.5564571,-4.378332 5.2248769,-3.9061806 -0.84829578,-8.7197331"
         style="fill:#e65a16;fill-opacity:1;fill-rule:evenodd;stroke:#e65a16;stroke-width:1.00000003pt;stroke-opacity:1"
         inkscape:connector-curvature="0" /><path
         id="path2802"
         d="M 4.9298719,0.05752074 C -1.3872731,1.7494689 1.8027579,5.4782079 -4.9448731,7.5462725"
         style="fill:#e65a16;fill-opacity:1;fill-rule:evenodd;stroke:#e65a16;stroke-width:1.00000003pt;stroke-opacity:1"
         inkscape:connector-curvature="0" /><rect
         id="rect2804"
         transform="matrix(0.527536,-0.849533,0.887668,0.460484,0,0)"
         y="-1.7408575"
         x="-10.391706"
         height="2.7608147"
         width="2.6366582"
         style="fill:#e65a16;fill-opacity:1;fill-rule:evenodd;stroke:#e65a16;stroke-width:1.00000003pt;stroke-opacity:1" /><rect
         id="rect2806"
         transform="matrix(0.671205,-0.741272,0.790802,0.612072,0,0)"
         y="-7.9629307"
         x="4.9587269"
         height="2.8614161"
         width="2.7327356"
         style="fill:#e65a16;fill-opacity:1;fill-rule:evenodd;stroke:#e65a16;stroke-width:1.00000003pt;stroke-opacity:1" /><path
         id="path2808"
         transform="matrix(0,-1.109517,1.109517,0,25.96648,19.71619)"
         d="m 16.779951,-28.685045 a 0.60731727,0.60731727 0 1 0 -1.214634,0 0.60731727,0.60731727 0 1 0 1.214634,0 z"
         style="fill:#e65a16;fill-opacity:1;fill-rule:evenodd;stroke:#e65a16;stroke-width:1.00000003pt;stroke-opacity:1"
         inkscape:connector-curvature="0" /><path
         id="path2810"
         transform="matrix(0,-1.109517,1.109517,0,26.8245,16.99126)"
         d="m 16.779951,-28.685045 a 0.60731727,0.60731727 0 1 0 -1.214634,0 0.60731727,0.60731727 0 1 0 1.214634,0 z"
         style="fill:#e65a16;fill-opacity:1;fill-rule:evenodd;stroke:#e65a16;stroke-width:1.00000003pt;stroke-opacity:1"
         inkscape:connector-curvature="0" /></g></marker></defs>
<g
   id="g2395"
   transform="matrix(0.19744376,0,0,0.19744376,58.864846,-14.696922)"
   style="fill:#e6e6e6"><g
     id="g2335"
     style="fill:#e6e6e6">
	<g
   id="g2333"
   style="fill:#e6e6e6">
		<path
   id="path2325"
   d="M 662.914,632.351 H 530.07 254.474 c -11.49,0 -20.806,9.315 -20.806,20.806 v 12.805 c 0,11.49 9.315,20.81 20.806,20.81 h 275.598 132.844 68.82 v -54.418 z"
   inkscape:connector-curvature="0"
   style="fill:#e6e6e6" />
		<circle
   id="circle2327"
   r="115.19"
   cy="189.625"
   cx="211.187"
   style="fill:#e6e6e6" />
		<path
   id="path2329"
   d="m 492.234,472.147 -263.969,-0.146 -6.25,-0.02 v -30.632 l -0.217,-25.64 c 0,-61.245 -49.651,-110.898 -110.899,-110.898 -2.075,0 -4.136,0.07 -6.184,0.182 l -0.156,-0.182 C 46.813,304.813 0,351.625 0,409.372 V 704.675 H 222.015 V 578.876 l -2.937,-0.231 c -0.209,-0.019 -0.261,0.002 -0.391,0.002 -15.021,0 -29.417,-6.324 -39.562,-17.399 L 89.013,462.885 c -2.873,-3.135 -2.66,-8.003 0.476,-10.874 3.133,-2.873 8.003,-2.659 10.874,0.476 l 90.111,98.362 c 7.322,7.993 17.648,12.881 28.521,13.039 0.723,0.01 10.594,0.152 10.594,0.152 h 262.645 c 25.375,0 45.947,-20.571 45.947,-45.947 10e-4,-25.376 -20.572,-45.946 -45.947,-45.946 z"
   inkscape:connector-curvature="0"
   style="fill:#e6e6e6" />
		<path
   id="path2331"
   d="m 765.197,309.111 c -10.744,-3.681 -22.439,2.049 -26.123,12.794 l -87.209,254.59 H 339.803 c -11.356,0 -20.567,9.206 -20.567,20.564 0,11.358 9.211,20.566 20.567,20.566 H 666.31 c 6.994,0 13.168,-3.503 16.879,-8.841 1.283,-1.694 2.33,-3.607 3.059,-5.729 L 778,335.225 c 3.67,-10.739 -2.053,-22.435 -12.803,-26.114 z"
   inkscape:connector-curvature="0"
   style="fill:#e6e6e6" />
	</g>
</g><g
     id="g2337"
     style="fill:#e6e6e6">
</g><g
     id="g2339"
     style="fill:#e6e6e6">
</g><g
     id="g2341"
     style="fill:#e6e6e6">
</g><g
     id="g2343"
     style="fill:#e6e6e6">
</g><g
     id="g2345"
     style="fill:#e6e6e6">
</g><g
     id="g2347"
     style="fill:#e6e6e6">
</g><g
     id="g2349"
     style="fill:#e6e6e6">
</g><g
     id="g2351"
     style="fill:#e6e6e6">
</g><g
     id="g2353"
     style="fill:#e6e6e6">
</g><g
     id="g2355"
     style="fill:#e6e6e6">
</g><g
     id="g2357"
     style="fill:#e6e6e6">
</g><g
     id="g2359"
     style="fill:#e6e6e6">
</g><g
     id="g2361"
     style="fill:#e6e6e6">
</g><g
     id="g2363"
     style="fill:#e6e6e6">
</g><g
     id="g2365"
     style="fill:#e6e6e6">
</g></g><rect
   style="opacity:1;fill:#ff3535;fill-opacity:1;stroke:#db3630;stroke-width:7.61038542;stroke-miterlimit:4;stroke-dasharray:none;stroke-opacity:1"
   id="rect2397"
   width="1.777493"
   height="135.84521"
   x="141.52811"
   y="131.51015" /><flowRoot
   xml:space="preserve"
   id="flowRoot2399"
   style="font-style:normal;font-weight:normal;font-size:40px;line-height:1.25;font-family:sans-serif;letter-spacing:0px;word-spacing:0px;fill:#000000;fill-opacity:1;stroke:none"
   transform="matrix(0.75000048,0,0,0.75000048,12.373473,411.79141)"><flowRegion
     id="flowRegion2401"><rect
       id="rect2403"
       width="134.11305"
       height="67.620026"
       x="-231.03508"
       y="-267.74512" /></flowRegion><flowPara
     style="font-style:normal;font-variant:normal;font-weight:normal;font-stretch:normal;font-family:Arbial;-inkscape-font-specification:Arbial;fill:#e6e6e6"
     id="flowPara2407" /></flowRoot><flowRoot
   transform="matrix(0,-0.75000048,0.75000048,0,311.7803,68.356628)"
   style="font-style:normal;font-weight:normal;font-size:40px;line-height:1.25;font-family:sans-serif;letter-spacing:0px;word-spacing:0px;fill:#e6e6e6;fill-opacity:1;stroke:none"
   id="flowRoot2433"
   xml:space="preserve"><flowRegion
     style="fill:#e6e6e6"
     id="flowRegion2429"><rect
       style="fill:#e6e6e6"
       y="-288.03113"
       x="-309.92511"
       height="68.747025"
       width="166.79605"
       id="rect2427" /></flowRegion><flowPara
     style="font-style:normal;font-variant:normal;font-weight:bold;font-stretch:normal;font-family:sans-serif;-inkscape-font-specification:'sans-serif Bold';fill:#e6e6e6"
     id="flowPara2431">Ethernet</flowPara></flowRoot><path
   id="path2443"
   d="m 10.084666,677.60883 c 4.237559,-1.05939 30.32502,-7.813 30.32502,-7.813 -0.132426,0.79454 -0.264846,2.51605 -0.264846,2.51605 0,9.40208 6.488759,16.95023 16.950224,16.95023 10.461471,0 16.950229,-7.813 16.950229,-16.95023 0,-1.45666 -1.05939,-2.91332 -2.516045,-4.23756 l 6.488758,0.39727 c 0,0 0.926964,-0.26484 4.105133,-1.05939 -6.75361,1.85394 -14.301758,-4.10513 -16.685384,-13.10994 -2.383624,-9.0048 1.05939,-17.87719 7.94542,-19.73112 -3.178163,0.79454 -4.105133,1.05938 -4.105133,1.05938 l -22.247171,14.56661 c -4.502406,1.19181 -7.283303,6.09149 -6.091494,10.59389 0.264853,1.19181 0.926971,2.2512 1.589088,3.04575 -0.92697,1.58908 -1.589088,3.44301 -1.986353,5.29694 -3.575441,-0.13242 -6.753611,-2.51605 -7.813,-6.09149 -1.191816,-4.5024 1.456661,-9.13723 5.959066,-10.32904 l -32.4437989,8.60754 c -4.5024074,1.19181 -7.15087735,5.69421 -5.95906735,10.19662 1.19181995,4.50241 5.42937635,7.15088 9.66692835,6.09149 z m 55.485515,20.26082 H 48.619953 v 8.47511 L 6.2443791,748.72034 H 23.194609 l 25.425344,-16.95023 v 16.95023 h 16.950228 v -16.95023 l 25.425342,16.95023 H 107.94575 L 65.570181,706.34476 Z m 56.809749,-59.3258 c -2.38363,-9.00481 -9.26966,-14.56661 -16.15569,-12.71268 -9.137231,2.38363 -12.977511,3.70787 -24.630799,6.75361 -6.753604,1.85393 -10.461465,10.5939 -8.07784,19.59871 2.383626,9.0048 9.799348,15.22871 16.552958,13.5072 11.520851,-3.04574 15.493571,-4.36997 24.630791,-6.7536 6.75361,-1.85393 10.0642,-11.25601 7.68058,-20.39324 z m -9.26966,11.91813 c -2.2512,0.66212 -5.56179,-2.25121 -6.7536,-6.75361 -1.19182,-4.50241 -0.5297,-8.73997 1.7215,-9.26966 2.25121,-0.52969 5.56179,2.25121 6.75361,6.75361 1.19181,4.5024 0.52969,8.73996 -1.72151,9.26966 z"
   inkscape:connector-curvature="0"
   style="fill:#e6e6e6;stroke-width:0.13242365" /><g
   id="g2458"
   transform="matrix(0.32619123,0,0,0.32619123,133.58232,606.14898)"
   style="fill:#f2f2f2">
	<circle
   id="circle2454"
   r="75.217003"
   cy="285.30899"
   cx="255.811"
   style="fill:#f2f2f2" />
	<path
   id="path2456"
   d="M 477,137 H 352.718 L 349,108 C 349,91.432 335.568,78 319,78 H 191 c -16.568,0 -30,13.432 -30,30 l -3.718,29 H 34 c -11.046,0 -20,8.454 -20,19.5 v 258 c 0,11.046 8.954,20.5 20,20.5 h 443 c 11.046,0 20,-9.454 20,-20.5 v -258 C 497,145.454 488.046,137 477,137 Z M 255.595,408.562 c -67.928,0 -122.994,-55.066 -122.994,-122.993 0,-67.928 55.066,-122.994 122.994,-122.994 67.928,0 122.994,55.066 122.994,122.994 0,67.926 -55.066,122.993 -122.994,122.993 z M 474,190 H 369 v -31 h 105 z"
   inkscape:connector-curvature="0"
   style="fill:#f2f2f2" />
</g><rect
   style="opacity:1;fill:none;fill-opacity:1;stroke:#f1f1f1;stroke-width:3.75000237;stroke-linecap:round;stroke-linejoin:round;stroke-miterlimit:4;stroke-dasharray:none;stroke-dashoffset:0;stroke-opacity:1"
   id="rect70436"
   width="262.45038"
   height="159.57767"
   x="17.750267"
   y="410.3714" /><path
   style="fill:none;stroke:#e65a16;stroke-width:1.50000095;stroke-linecap:butt;stroke-linejoin:miter;stroke-miterlimit:4;stroke-dasharray:36.00002311, 1.50000096;stroke-dashoffset:0;stroke-opacity:1;marker-start:url(#Torso);marker-end:url(#marker3256)"
   d="m 217.82628,574.68837 c 0,0 14.62132,38.28402 -9.3944,68.06536"
   id="path2584"
   inkscape:connector-curvature="0"
   sodipodi:nodetypes="cc" /><path
   sodipodi:nodetypes="cc"
   inkscape:connector-curvature="0"
   id="path46851"
   d="m 72.443139,570.46212 c 0,0 -20.456594,37.86139 -5.168151,75.24999"
   style="fill:none;stroke:#e65a16;stroke-width:1.50000095;stroke-linecap:butt;stroke-linejoin:miter;stroke-miterlimit:4;stroke-dasharray:36.00002311, 1.50000096;stroke-dashoffset:0;stroke-opacity:1;marker-start:url(#marker46869);marker-end:url(#marker47037)" /><g
   aria-label="REMOTE
DEVICE"
   transform="matrix(0.75000047,0,0,0.75000047,-7.6072575,11.832621)"
   style="font-style:normal;font-weight:normal;font-size:40px;line-height:1.25;font-family:sans-serif;letter-spacing:0px;word-spacing:0px;fill:#ececec;fill-opacity:1;stroke:none"
   id="flowRoot70516"><path
     d="m 87.808597,622.35856 v -38.17708 h 19.661453 q 5.46875,0 8.35938,0.9375 2.89062,0.9375 4.66146,3.48958 1.77083,2.52604 1.77083,6.17187 0,3.17709 -1.35417,5.4948 -1.35416,2.29166 -3.72395,3.72395 -1.51042,0.91146 -4.14063,1.51042 2.10938,0.70313 3.07292,1.40625 0.65104,0.46875 1.875,2.00521 1.25,1.53646 1.66666,2.36979 l 5.70313,11.06771 h -13.33333 l -6.30209,-11.66667 q -1.19791,-2.26562 -2.13541,-2.94271 -1.27605,-0.88541 -2.89063,-0.88541 h -1.041665 v 15.49479 z m 11.848958,-22.70833 h 4.973955 q 0.80729,0 3.125,-0.52084 1.17188,-0.23437 1.90104,-1.19791 0.75521,-0.96355 0.75521,-2.21355 0,-1.84895 -1.17187,-2.83854 -1.17188,-0.98958 -4.40104,-0.98958 h -5.182295 z"
     style="font-style:normal;font-variant:normal;font-weight:normal;font-stretch:normal;font-size:53.33333206px;font-family:'Arial Black';-inkscape-font-specification:'Arial Black, ';text-align:center;text-anchor:middle;fill:#ececec;fill-opacity:1"
     id="path70526" /><path
     d="m 129.08464,584.18148 h 31.61458 v 8.15104 h -19.79167 v 6.06771 h 18.35938 v 7.78645 h -18.35938 v 7.52605 h 20.36459 v 8.64583 h -32.1875 z"
     style="font-style:normal;font-variant:normal;font-weight:normal;font-stretch:normal;font-size:53.33333206px;font-family:'Arial Black';-inkscape-font-specification:'Arial Black, ';text-align:center;text-anchor:middle;fill:#ececec;fill-opacity:1"
     id="path70528" /><path
     d="m 167.52214,584.18148 h 15.52083 l 5.98958,23.22916 5.96355,-23.22916 h 15.46875 v 38.17708 h -9.63542 v -29.11458 l -7.47396,29.11458 h -8.72396 l -7.44791,-29.11458 v 29.11458 h -9.66146 z"
     style="font-style:normal;font-variant:normal;font-weight:normal;font-stretch:normal;font-size:53.33333206px;font-family:'Arial Black';-inkscape-font-specification:'Arial Black, ';text-align:center;text-anchor:middle;fill:#ececec;fill-opacity:1"
     id="path70530" /><path
     d="m 216.48047,603.29606 q 0,-9.34896 5.20833,-14.55729 5.20834,-5.20834 14.50521,-5.20834 9.53125,0 14.6875,5.13021 5.15625,5.10417 5.15625,14.32292 0,6.69271 -2.26562,10.98958 -2.23959,4.27084 -6.51042,6.66667 -4.24479,2.36979 -10.59896,2.36979 -6.45833,0 -10.70312,-2.05729 -4.21875,-2.05729 -6.84896,-6.51042 -2.63021,-4.45312 -2.63021,-11.14583 z m 11.79688,0.0521 q 0,5.78125 2.13541,8.30729 2.16146,2.52605 5.85938,2.52605 3.80208,0 5.88541,-2.47396 2.08334,-2.47396 2.08334,-8.88021 0,-5.39063 -2.1875,-7.86458 -2.16146,-2.5 -5.88542,-2.5 -3.56771,0 -5.72917,2.52604 -2.16145,2.52604 -2.16145,8.35937 z"
     style="font-style:normal;font-variant:normal;font-weight:normal;font-stretch:normal;font-size:53.33333206px;font-family:'Arial Black';-inkscape-font-specification:'Arial Black, ';text-align:center;text-anchor:middle;fill:#ececec;fill-opacity:1"
     id="path70532" /><path
     d="m 258.45963,584.18148 h 35.85938 v 9.42708 h -12.03125 v 28.75 h -11.79688 v -28.75 h -12.03125 z"
     style="font-style:normal;font-variant:normal;font-weight:normal;font-stretch:normal;font-size:53.33333206px;font-family:'Arial Black';-inkscape-font-specification:'Arial Black, ';text-align:center;text-anchor:middle;fill:#ececec;fill-opacity:1"
     id="path70534" /><path
     d="m 299.70963,584.18148 h 31.61459 v 8.15104 h -19.79167 v 6.06771 h 18.35937 v 7.78645 h -18.35937 v 7.52605 h 20.36458 v 8.64583 h -32.1875 z"
     style="font-style:normal;font-variant:normal;font-weight:normal;font-stretch:normal;font-size:53.33333206px;font-family:'Arial Black';-inkscape-font-specification:'Arial Black, ';text-align:center;text-anchor:middle;fill:#ececec;fill-opacity:1"
     id="path70536" /><path
     d="m 102.02735,650.84816 h 17.52604 q 5.18229,0 8.35937,1.40625 3.20313,1.40625 5.28646,4.03646 2.08333,2.63021 3.02083,6.11979 0.9375,3.48959 0.9375,7.39584 0,6.11979 -1.40625,9.5052 -1.3802,3.35938 -3.85416,5.65105 -2.47396,2.26562 -5.3125,3.02083 -3.88021,1.04167 -7.03125,1.04167 h -17.52604 z m 11.79687,8.64584 v 20.85937 h 2.89063 q 3.69791,0 5.26041,-0.80729 1.5625,-0.83333 2.44792,-2.86458 0.88542,-2.0573 0.88542,-6.64063 0,-6.06771 -1.97917,-8.30729 -1.97917,-2.23958 -6.5625,-2.23958 z"
     style="font-style:normal;font-variant:normal;font-weight:normal;font-stretch:normal;font-size:53.33333206px;font-family:'Arial Black';-inkscape-font-specification:'Arial Black, ';text-align:center;text-anchor:middle;fill:#ececec;fill-opacity:1"
     id="path70538" /><path
     d="m 143.30339,650.84816 h 31.61458 v 8.15104 H 155.1263 v 6.06771 h 18.35938 v 7.78646 H 155.1263 v 7.52604 h 20.36459 v 8.64584 h -32.1875 z"
     style="font-style:normal;font-variant:normal;font-weight:normal;font-stretch:normal;font-size:53.33333206px;font-family:'Arial Black';-inkscape-font-specification:'Arial Black, ';text-align:center;text-anchor:middle;fill:#ececec;fill-opacity:1"
     id="path70540" /><path
     d="m 178.09505,650.84816 h 12.34375 l 8.59375,27.47396 8.46355,-27.47396 h 11.97916 l -14.16666,38.17709 h -12.78646 z"
     style="font-style:normal;font-variant:normal;font-weight:normal;font-stretch:normal;font-size:53.33333206px;font-family:'Arial Black';-inkscape-font-specification:'Arial Black, ';text-align:center;text-anchor:middle;fill:#ececec;fill-opacity:1"
     id="path70542" /><path
     d="m 223.79817,650.84816 h 11.82292 v 38.17709 h -11.82292 z"
     style="font-style:normal;font-variant:normal;font-weight:normal;font-stretch:normal;font-size:53.33333206px;font-family:'Arial Black';-inkscape-font-specification:'Arial Black, ';text-align:center;text-anchor:middle;fill:#ececec;fill-opacity:1"
     id="path70544" /><path
     d="m 269.47526,673.42629 10.33854,3.125 q -1.04166,4.34896 -3.28125,7.26562 -2.23958,2.91667 -5.57291,4.40104 -3.30729,1.48438 -8.4375,1.48438 -6.22396,0 -10.18229,-1.79688 -3.9323,-1.82291 -6.79688,-6.3802 -2.86458,-4.5573 -2.86458,-11.66667 0,-9.47917 5.02604,-14.55729 5.05208,-5.10417 14.27083,-5.10417 7.21354,0 11.32813,2.91667 4.14062,2.91666 6.14583,8.95833 l -10.41667,2.31771 q -0.54687,-1.74479 -1.14583,-2.55208 -0.98958,-1.35417 -2.42187,-2.08334 -1.4323,-0.72916 -3.20313,-0.72916 -4.01042,0 -6.14583,3.22916 -1.61459,2.39584 -1.61459,7.52604 0,6.35417 1.92709,8.72396 1.92708,2.34375 5.41666,2.34375 3.38542,0 5.10417,-1.90104 1.74479,-1.90104 2.52604,-5.52083 z"
     style="font-style:normal;font-variant:normal;font-weight:normal;font-stretch:normal;font-size:53.33333206px;font-family:'Arial Black';-inkscape-font-specification:'Arial Black, ';text-align:center;text-anchor:middle;fill:#ececec;fill-opacity:1"
     id="path70546" /><path
     d="m 285.49088,650.84816 h 31.61459 v 8.15104 H 297.3138 v 6.06771 h 18.35937 v 7.78646 H 297.3138 v 7.52604 h 20.36458 v 8.64584 h -32.1875 z"
     style="font-style:normal;font-variant:normal;font-weight:normal;font-stretch:normal;font-size:53.33333206px;font-family:'Arial Black';-inkscape-font-specification:'Arial Black, ';text-align:center;text-anchor:middle;fill:#ececec;fill-opacity:1"
     id="path70548" /></g><g
   id="g70584"
   transform="matrix(0.01049703,0,0,-0.01049703,77.460284,400.77475)"
   style="fill:#f2f2f2;stroke:none"><path
     id="path70576"
     d="M 5950,11129 C 4208,11040 2547,10438 1160,9394 728,9069 208,8595 121,8448 50,8326 12,8202 3,8060 c -24,-384 227,-730 603,-831 106,-29 297,-31 399,-5 93,24 238,95 302,148 29,24 125,112 215,197 1105,1046 2483,1701 3978,1890 576,73 1224,73 1800,0 1081,-137 2108,-519 3014,-1122 373,-248 663,-480 1006,-806 167,-159 221,-202 317,-250 114,-57 202,-76 353,-76 154,0 214,13 346,76 436,206 593,740 343,1167 -39,66 -278,309 -474,483 -902,800 -1894,1375 -3035,1761 -1009,340 -2132,493 -3220,437 z"
     inkscape:connector-curvature="0"
     style="fill:#f2f2f2" /><path
     id="path70578"
     d="m 6090,8004 c -176,-11 -350,-27 -460,-40 -1257,-153 -2420,-671 -3390,-1508 -172,-149 -378,-356 -426,-427 -147,-222 -177,-520 -75,-767 162,-393 608,-594 1012,-457 136,46 206,94 369,250 493,471 1055,821 1683,1049 1018,369 2176,369 3194,0 634,-230 1172,-566 1690,-1056 137,-130 204,-178 313,-225 111,-47 221,-67 349,-60 122,6 197,24 298,72 152,71 282,187 362,322 127,215 147,500 51,733 -47,114 -109,196 -257,340 -651,636 -1468,1137 -2335,1435 -492,169 -953,267 -1503,321 -140,14 -751,26 -875,18 z"
     inkscape:connector-curvature="0"
     style="fill:#f2f2f2" /><path
     id="path70580"
     d="m 6155,4749 c -323,-25 -662,-105 -970,-229 -233,-93 -555,-283 -760,-446 -278,-223 -401,-365 -465,-541 -54,-151 -64,-341 -25,-488 41,-154 150,-321 277,-425 72,-59 213,-131 308,-157 94,-25 321,-25 410,1 155,45 245,100 400,241 225,206 470,333 764,397 85,19 132,22 306,22 174,0 221,-3 306,-22 294,-64 541,-192 763,-397 159,-145 260,-205 415,-245 108,-27 273,-27 382,0 166,42 335,149 444,282 58,71 131,214 155,303 39,147 29,337 -25,488 -51,139 -119,233 -277,379 -406,377 -916,646 -1453,766 -316,71 -638,95 -955,71 z"
     inkscape:connector-curvature="0"
     style="fill:#f2f2f2" /><path
     id="path70582"
     d="m 6205,1599 c -234,-57 -427,-212 -530,-424 -67,-137 -79,-196 -79,-365 0,-171 12,-229 81,-368 57,-117 176,-248 290,-318 261,-163 605,-163 866,0 114,71 233,201 289,318 71,144 83,199 83,368 0,171 -13,231 -80,365 -82,166 -197,281 -360,360 -173,85 -380,108 -560,64 z"
     inkscape:connector-curvature="0"
     style="fill:#f2f2f2" /></g></svg>