<svg xmlns="http://www.w3.org/2000/svg" width="420" height="245" xml:space="preserve"><g stroke-width=".094" stroke-miterlimit="10"><path fill="#C5DDE2" stroke="#C5DDE2" d="M256.579 57.827c.509-.322 1.006-.721 1.573-.932 1.196-.031 2.434.452 3.635-.06 2.077-.773 4.278-1.285 6.496-1.439.632-.06 1.241.243 1.832.428-.347.096-1.01.202-1.322.252l-.358.017c-1.708-.167-3.482-.244-5.041.525-1.637.782-3.356 1.297-5.189 1.109-.559.01-1.073.052-1.626.1zM282.21 53.332c2.494-.679 5.012-.961 7.531-1.484 1.054-.168 2.173-.428 3.213-.193.603.264.948.93 1.382 1.381-2.74.397-5.467.874-8.11 1.617a60.35 60.35 0 0 1-5.235 1.076c-.44-.25-.919-.494-1.359-.744.184-.11.516-.283.698-.392a7.454 7.454 0 0 0 5.182-.148c-1.033.045-2.028.084-3.018.163a14.676 14.676 0 0 0-.284-1.276z"/><path fill="#69AC78" stroke="#69AC78" d="M258.204 57.728c1.833.188 3.553-.328 5.189-1.109 1.559-.769 3.333-.692 5.041-.525-1.82.131-3.637.541-5.204 1.512-1.251.44-2.501.881-3.735 1.438-.149.064-.449.192-.638.262-1.032.565-2.056 1.17-3.151 1.585-.245-.281-.489-.563-.773-.837-1.436.79-2.884 1.501-4.442 2.031-.14-.378-.241-.763-.337-1.108 1.651-.704 3.3-1.408 4.943-2.151 1.159-.265 2.342-.374 3.52-.522l-.413-.576zM299.126 51.189c1.332-.693 2.777-1.164 4.313-1.33 2.857-.416 5.685-1.268 8.616-1.216 1.384-.101 2.188 1.172 2.943 2.133-.813.17-1.595.294-2.369.459-.31.57-.574 1.173-.93 1.71-.898.384-1.881.501-2.812.689-.187-.411-.371-.822-.551-1.194-2.973.195-5.892.221-8.848.013-.108-.423-.254-.841-.362-1.264z"/><path fill="#0791A0" stroke="#0791A0" d="M255.097 58.825c.508-.321 1.019-.643 1.482-.998.553-.048 1.066-.09 1.625-.1l.412.575c-1.178.149-2.36.258-3.519.523z"/><path fill="#39A186" stroke="#39A186" d="M263.23 57.605c1.567-.971 3.384-1.381 5.204-1.512l.358-.017c3.658.336 7.378-.939 11.02.041-1.272.564-2.733.437-4.063.649-1.52.763-2.923 1.749-4.578 2.173-.002-.521.028-1.085.058-1.651-2.696-.33-5.364.016-7.999.317z"/><path fill="#69AC78" stroke="#69AC78" d="M268.793 56.076c.313-.05.976-.156 1.322-.252 1.638-.262 3.325-.491 4.971-.713 1.522-.244 3.04.234 4.545-.126.44.25.919.494 1.359.744-.378.141-.762.242-1.178.389-3.641-.981-7.361.294-11.019-.042z"/><path fill="#8AC5E1" stroke="#8AC5E1" d="M295.912 52.624c1.101-.375 2.178-.909 3.214-1.435.108.423.254.841.363 1.264 2.956.208 5.875.183 8.848-.013.18.372.364.783.551 1.194-2.142.382-4.304.887-6.526.763-2.028-.157-4.063.129-6.055.447a42.29 42.29 0 0 1-.395-2.22zM259.495 59.043c1.234-.557 2.484-.998 3.735-1.438 2.635-.301 5.303-.647 7.999-.317-.029.566-.06 1.131-.058 1.651-.521.003-1 0-1.521.003-1.534.165-3.051.447-4.522.763.041-.247.096-.656.142-.864a34.842 34.842 0 0 0 2.774-.683c-2.896-.579-5.681.787-8.549.885z"/><path fill="#6BB6BD" stroke="#6BB6BD" d="M286.226 54.652c2.644-.743 5.37-1.219 8.11-1.617.508-.081 1.041-.247 1.576-.412.118.742.237 1.484.395 2.22-.275.284-.551.568-.778.885a25.654 25.654 0 0 1-3.457.433c.643-.743 1.55-1.088 2.461-1.395a5.912 5.912 0 0 0-.21-.807 20.312 20.312 0 0 0-4.389.341c-1.264.121-2.492.198-3.708.352z"/><path fill="#FFF" stroke="#FFF" d="M259.495 59.043c2.868-.098 5.653-1.464 8.549-.885-.918.267-1.843.494-2.774.683-.657.145-1.27.323-1.927.468-1.617.658-3.285 1.246-5.009 1.48.165-.466.364-.979.523-1.484.189-.07.489-.198.638-.262z"/><path fill="#39A186" stroke="#39A186" d="M254.933 60.053c.284.274.528.556.773.837-1.271.563-2.484 1.237-3.66 1.906a42.939 42.939 0 0 1-3.257.16l-.306-.151c.641-.263 1.324-.492 2.007-.722 1.559-.529 3.007-1.241 4.443-2.03z"/><path fill="#8AC5E1" stroke="#8AC5E1" d="M255.706 60.89c1.096-.415 2.119-1.02 3.151-1.585-.159.505-.358 1.019-.523 1.484 1.724-.234 3.392-.822 5.009-1.48.278.235.55.433.829.668-2.592 1.335-5.505 1.641-8.342 1.934-.037-.234-.08-.747-.124-1.021z"/><path fill="#0791A0" stroke="#0791A0" d="M145.602 151.467a77.737 77.737 0 0 0-2.105 1.857c-1.355 1.297-2.186 3.113-3.682 4.273-.325-.027-.93-.055-1.248-.041.381-.623.756-1.281 1.137-1.904-1.318.771-2.573 1.691-3.975 2.438-1.997 1.039-4.558 2.051-5.211 4.477a1.98 1.98 0 0 1-.443-.01c-.931 1.189-2.364 1.74-3.747 2.361-2.294 1.93-4.893 3.465-7.136 5.465-.424.348-.883.742-1.308 1.092-.242-.764-.529-1.559-.777-2.359-.066.09-.275.283-.341.373-1.246.721-2.441 1.512-3.861 1.898-.239-.24-.472-.445-.71-.686.188-.832.375-1.662.518-2.525-2.439 1.029-5.04 2.045-6.465 4.395-2.892 1.705-5.358 4.061-8.198 5.836-.177.146-.575.412-.751.561-2.56 1.77-4.573 4.213-6.888 6.266-1.764 1.244-3.281 2.766-4.949 4.113.057-.646.119-1.26.221-1.877-1.131.943-2.255 1.924-3.142 3.145-1.02-.117-2.067-.148-3.119-.223.421-.625.802-1.248 1.183-1.867-.58.131-1.192.309-1.771.441-.117-.982-.233-1.967-.357-2.984a36.66 36.66 0 0 1-3.33 1.211c.362-.738.771-1.443 1.178-2.15-.979-.363-1.925-.773-2.904-1.137.002-.482-.033-.957-.069-1.432 2.905-.865 5.148-2.865 7.668-4.389l-.375-2.342c-2.082 1.252-4.499 1.92-6.568 3.25-1.909 1.588-3.766 3.244-5.204 5.277-.304-.152-.842-.508-1.152-.697.564-.73 1.089-1.455 1.659-2.148.916-.785 1.774-1.684 2.638-2.543 4.156-4.068 9.046-7.291 13.543-10.973 1.026-.844 2.316-1.291 3.586-1.615.997-.277 2.044-.486 2.913-1.064 1.104-.859 2.215-1.676 3.422-2.391 1.75-1.078 3.712-1.834 5.403-3.025 1.248-.961 2.399-2.025 3.551-3.09 1.67-1.83 4.279-3.047 4.959-5.557 1.209-2.957 3.816-4.936 5.705-7.4 1.765-1.482 3.8-2.529 5.681-3.789 1.267-.846 11.582-11.102 12.989-11.566 1.377 1.1 5.393 10.365 6.214 11.998.18 1.373 1.518 2.219 1.736 3.586l1.183 1.033c-.604.977-.909-.697-1.559.248-.746.6 2.68.756 1.75.945-3.151.584-6.02 12.109-9.119 12.766l-17.4 1.779c.245 2.285-.903-4.398-.971-2.064-.352 1.059-1.673 1.311-2.612 1.701-1.454.674-3.291.205-4.604 1.254-1.966 1.477-3.882 3.023-5.57 4.736l-.209.193c-2.745 2.121-5.206 4.516-7.905 6.668-.928.709-1.817 1.412-2.557 2.291-1.139.143-2.284.244-3.389.342a31.391 31.391 0 0 1 2.579-2.654c1.656-1.666 2.892-3.707 4.315-5.576-2.254.68-3.956 2.314-5.534 3.967-1.857 1.658-3.657 3.428-5.611 4.982-1.313 1.051-2.434 2.313-3.062 3.893.407.293.776.598 1.184.893a21.748 21.748 0 0 0-2.85 3.217c2.332-.691 4.248-2.24 5.619-4.18.71-1.074 1.748-1.842 3.023-2.127.089.307.268.918.356 1.227-1.522 2.004-3.567 3.492-5.566 5.014-.764.482-.698 1.393-.814 2.174 1.029-.328 2.214-.436 3.018-1.164 1.067-1.094 1.584-2.617 2.748-3.602 1.413-1.188 3.404-1.506 4.764-2.766 1.321-1.252 2.553-2.57 3.926-3.75 2.248-1.721 4.689-3.232 7.316-4.332 2.861-1.139 5.358-3.059 7.485-5.281 3.188-.35 4.621-3.66 7.444-4.793 3.74-1.4 7.835-1.33 11.666-2.426 1.948-.59 3.878-1.539 5.235-3.076a15.92 15.92 0 0 0 3.793-9.338 5.152 5.152 0 0 0-.618-3.865c-1.734-4.088-4.362-7.752-7.802-10.486-.003-.52-.232-1.203.271-1.564 3.08-2.535 5.752-5.605 9.264-7.686.124 1.02-4.189 3.135 0 0 2.659-1.992 6.388-4.604 9.086-6.539 2.559-1.835.425 2.656 0 0 1.86-1.139 3.509-2.602 5.118-4.061 2.434-2.312 5.204-4.275 7.779-6.449 3.491-2.96 7.51-5.124 11.169-7.791 1.809-1.209 3.515-2.563 5.381-3.663 4.652-2.464 9.239-5.08 13.956-7.396 1.441-.751 3.106-.856 4.446-1.751 3.116-2.3 6.772-3.725 10.338-5.216.334.587.629 1.182.918 1.736a160.037 160.037 0 0 0 9.13-4.262c-.427-.413-.858-.864-1.284-1.276 1.301-1.129 2.871-1.821 4.449-2.472 1.174-.428 1.027-2.087 2.099-2.659 2.504-1.361 5.202-2.272 7.836-3.334 1.394-.302 2.896-.422 4.198.21-.582.373-1.156.785-1.686 1.23.967.286 1.921.494 2.914.695-.124-.781-.287-1.555-.412-2.337 2.346-1.096 4.943-1.63 7.351-2.615 1.015-.403 2.026-.845 3.056-1.169a38.088 38.088 0 0 1 2.025-.604 42.527 42.527 0 0 0 3.259-.16 54.597 54.597 0 0 0-2.475 1.557c.916.214 1.89.298 2.762-.001.545.394 1.05.793 1.651 1.057 1.515-.041 2.957-.552 4.427-.867l.131.819c-1.777.404-3.589 1.095-4.848 2.496 1.015.079 2.016.079 2.979-.155 3.126-.74 6.358-1.056 9.33-2.251 1.84-.775 3.818-1.171 5.49-2.239.312-.81.413-1.667.563-2.492.392-.303.789-.567 1.188-.831-.692-.33-1.386-.66-2.073-.95 1.653-.425 3.059-1.41 4.578-2.174 1.328-.212 2.789-.085 4.062-.648.417-.147.801-.248 1.179-.389.829.428 1.677.973 2.596.707 2.2-.512 4.351-1.096 6.347-2.135 1.438-.27 2.941-.39 4.39-.341.071.189.179.612.209.808-.911.306-1.817.651-2.459 1.394a25.504 25.504 0 0 0 3.455-.432c1.119-.259 2.228-.596 3.404-.745 1.932-.188 3.858.585 5.74.084 2.154-.544 4.317-1.05 6.502-1.159a71.523 71.523 0 0 0-1.419 2.149c1.389.418 2.807.272 4.213.047.272-.044.826-.092 1.06-.129 1.503.881 3.354 1.186 5.034.677.959-.514 1.454-1.674 2.574-1.933.496-.159.997-.279 1.536-.406.424-.108.887-.222 1.342-.374 1.305 1.393 3.178 1.333 4.907 1.137.636.219 1.234.444 1.868.664 2.411 1.057 5.062 1.354 7.672.896 2.672.934 5.574 1.553 8.08 2.954-1.412.186-2.805.487-4.109 1.097.912.695 1.851 1.306 2.696 2.091-.375.661-1.072 1.053-1.635 1.543 1.31.431 2.763.759 3.737 1.845 1.163 1.256 2.291 2.558 3.624 3.626.201-.232.563-.73.767-.963.837 1.228 1.869 2.424 3.092 3.311.13-.942.526-1.967-.092-2.83-1.24-2.003-2.423-4.137-4.023-5.884.137-.143.412-.427.551-.569 2.301 1.875 3.615 4.589 5.95 6.418l1.403 8.786c-.583-.146-1.129-.3-1.713-.447-.111 2.06-.626 4.104-.372 6.186.534 2.598-1.494 4.684-2.957 6.56-1.325.732-2.448 1.712-3.575 2.692-.908.826-2.187 1.351-2.766 2.485.004 1.28 1.436 1.973 2.145 2.899-.061.371-.122.741-.143 1.104.435-.029.877-.02 1.357-.018-.791.809-1.635 1.544-2.479 2.279-1.347 1.096-2.125 2.742-3.51 3.845-2.047 1.729-3.933 3.712-6.223 5.158.257-.642.554-1.288.889-1.943-.362-.263-.73-.563-1.093-.826-.556.528-1.123.98-1.59 1.575-.229 1.077.063 2.152.154 3.219a20.36 20.36 0 0 0-2.382 1.381c-2.097 1.416-3.988 3.119-6.089 4.498-2.175 1.428-4.047 3.25-5.925 5.031-.26-.119-.771-.316-1.024-.396a14.869 14.869 0 0 0 2.617-3.422c-1.898.904-3.429 2.35-5.28 3.285-2.486 1.24-4.114 3.582-6.554 4.852-1.586.855-3.12 1.781-4.487 3.002-1.261 1.119-2.835 2.053-3.579 3.654-.292-.316-.574-.59-.858-.865 1.218-1.635 2.626-3.104 4.383-4.145 1.397-1.023 3.416-1.668 3.839-3.535-1.624-.143-2.645 1.744-4.334 1.691.882-1.742 2.839-2.533 4.096-3.936 1.723-1.998 4.124-3.262 5.938-5.193 1.058-.65 1.83-1.574 2.078-2.775-.724.234-1.452.431-2.053.927-.107.578-.048 1.211-.025 1.848-2.386.861-4.075 2.813-6.081 4.295-.526-.275-1.089-.547-1.614-.824 1.998-1.281 4.256-2.441 5.213-4.717-1.064.611-2.082 1.254-3.146 1.863-.031-.193-.049-.551-.08-.746.061-.131.14-.383.198-.514 1.538-1.406 2.752-3.083 3.79-4.851-.803.489-1.572.934-2.381 1.384a35.19 35.19 0 0 1-.168-2.057c.002-.48.051-.929.06-1.371 1.909-1.345 3.888-2.743 5.452-4.476 1.967-.475 3.614-1.698 5.29-2.728 1.346-.855 2.756.201 3.941.853-.063.611-.119 1.26-.176 1.91.79-.566 1.672-1.067 2.224-1.877.54-1.128.496-2.402.745-3.603.302-2.371 2.886-3.746 2.934-6.195-.324-1.79-1.784-3.159-2.346-4.911a50.4 50.4 0 0 1 1.672.934c-.271-1.198-.498-2.363-.77-3.561.932-.43 1.896-.663 2.899-.903.459-1.636.704-3.356.358-5.023-.266-1.159-.112-2.705-1.337-3.351-1.197-.73-2.342-1.628-3.441-2.493-.472-.446-1.154-.457-1.797-.474-2.819.411-5.245-1.243-7.629-2.385-.947-.41-1.385.862-1.947 1.353-.648-.297-1.296-.595-1.945-.891.467-.596.926-1.229 1.341-1.896-2.111-.184-4.195-.692-6.32-.953-2.956-.209-5.74 1.157-8.674 1.105-3.808-.032-7.525.763-11.253 1.238-3.026.364-5.803 1.528-8.58 2.692-2.021.883-4.24 1.038-6.299 1.687.383.14.76.24 1.142.378-2.672.308-5.144 1.383-7.576 2.452-2.49.958-5.082 1.772-7.502 2.921-2.199.271-4.398.542-6.466 1.393-1.954.793-4.052 1.208-5.931 2.229 2.18-.147 4.327-.49 6.487-.755-3.045.486-6.234.835-8.993 2.357-.908.586-1.383 1.623-1.921 2.51-1.087-.027-2.184-.132-3.149.342-2.483.998-4.93 2.23-7.125 3.782-1.058.649-.905 2.106-1.425 3.11-.575 1.413-2.164 1.748-3.389 2.344-1.839.774-3.453 1.953-5.355 2.578-1.031-.437-2.121-.742-3.181-.854.028-.326.099-.896.132-1.183.893-.182 1.816-.41 2.709-.593-.066-.67-.129-1.302-.189-1.932-2.133-.061-4.336.172-6.133 1.46a24.336 24.336 0 0 0 3.361 1.746c-1.482.236-2.948.591-4.375.938-2.669.587-5.362 1.018-8.07 1.37-.877.02-1.723-.006-2.605-.023.713-.796 1.414-1.668 1.98-2.64-3.547.606-6.326 3.013-9.38 4.702-.563.73-.369 1.7-.349 2.579a80.16 80.16 0 0 0 3.097-1.417c.319 1.991.676 3.978 1 6.008-2.108.336-4.071 1.091-5.75 2.36"/><path fill="#0791A0" stroke="#0791A0" d="m159.448 135.119.106.664c.196 1.73.465 3.408.739 5.127-1.983 1.119-3.871 2.34-5.849 3.498-.759-5.006-1.636-9.99-2.552-14.971l-.056-.352"/><path fill="#39A186" stroke="#39A186" d="M280.99 55.729a60.65 60.65 0 0 0 5.235-1.076c1.217-.154 2.444-.231 3.708-.353-1.998 1.04-4.147 1.624-6.348 2.136-.917.266-1.765-.279-2.595-.707zM312.629 51.234c.774-.165 1.556-.289 2.369-.459a18.421 18.421 0 0 1 2.05-.207c1.281.756 2.682 2.254 4.332 1.55.188-.071.533-.166.684-.229.115.222.313.71.43.932.746.161 1.484.284 2.188.411-.178.389-.361.74-.509 1.083-.539.127-1.041.246-1.536.406-1.119.259-1.615 1.419-2.574 1.933-1.68.508-3.532.204-5.033-.678 1.606-.216 3.464.127 4.85-.974-.212-.328-.523-.518-.861-.625-1.679-.492-3.41-.296-5.081-.229.021.637.01 1.32.032 1.958-1.405.224-2.825.371-4.212-.048.446-.712.932-1.431 1.418-2.149-2.186.109-4.347.615-6.502 1.159-1.882.502-3.809-.272-5.74-.083-1.178.148-2.284.485-3.403.744.228-.316.503-.601.778-.885 1.991-.318 4.026-.604 6.055-.447 2.223.125 4.385-.38 6.526-.763.931-.188 1.913-.306 2.812-.689.353-.538.617-1.141.927-1.711z"/><path fill="#C5DDE2" stroke="#C5DDE2" d="M243.688 62.61c1.577-.653 3.374-.94 4.795.195l.306.151c-.69.19-1.342.375-2.026.604-.19-.45-.424-.894-.621-1.382-.82.131-1.634.301-2.454.432z"/><path fill="#6BB6BD" stroke="#6BB6BD" d="M263.343 59.31c.657-.146 1.27-.323 1.927-.468-.046.208-.101.617-.142.864 1.472-.315 2.988-.598 4.522-.763.188 1.412.326 2.791.356 4.228-.488-1.043-.78-2.118-1.078-3.231a44.41 44.41 0 0 1-1.069 1.573 47.768 47.768 0 0 1-.846-1.027c-.893.423-1.74.879-2.646 1.224-1.284.485-2.699.151-3.997.558-1.139.383-2.139 1.144-3.336 1.415-.873.06-1.67-.173-2.509-.16-.782.125-1.474.556-2.19.831-.872.3-1.846.215-2.762 0a54.512 54.512 0 0 1 2.473-1.556c1.176-.669 2.389-1.343 3.66-1.906.044.273.087.787.124 1.021 2.837-.293 5.75-.598 8.342-1.934-.279-.237-.551-.434-.829-.669z"/><path fill="#69AC78" stroke="#69AC78" d="M317.048 50.568c1.11-.058 2.262-.122 3.373-.179.336.588.63 1.181.959 1.729-1.651.705-3.051-.793-4.332-1.55z"/><path fill="#39A186" stroke="#39A186" d="M236.061 65.75c2.427-1.349 5.054-2.209 7.628-3.14.819-.131 1.634-.302 2.453-.433.197.489.431.933.621 1.382-1.029.325-2.04.766-3.057 1.168.086-.213.265-.602.396-.784-2.79.088-5.277 1.566-8.041 1.807zM269.65 58.942c.521-.003 1.001 0 1.521-.003.688.29 1.381.62 2.074.95-.397.264-.796.528-1.188.831-.149.824-.253 1.682-.563 2.492-1.671 1.068-3.65 1.465-5.489 2.239-2.972 1.195-6.205 1.512-9.331 2.251-.964.234-1.966.234-2.979.156 1.257-1.403 3.07-2.092 4.847-2.496l-.131-.821c-1.47.316-2.911.825-4.426.868-.603-.264-1.107-.664-1.651-1.057.717-.275 1.408-.706 2.19-.831.839-.014 1.636.219 2.509.16 1.197-.271 2.197-1.032 3.336-1.415 1.298-.407 2.713-.072 3.997-.558.906-.345 1.754-.801 2.646-1.224.253.32.549.673.846 1.027.361-.499.715-1.036 1.069-1.573.298 1.114.59 2.188 1.078 3.231-.028-1.436-.167-2.815-.355-4.227z"/><path fill="#69AC78" stroke="#69AC78" d="M236.061 65.75c2.765-.242 5.251-1.72 8.041-1.806-.131.182-.31.571-.396.784-2.405.986-5.003 1.521-7.351 2.617-.188.07-.594.294-.814.411-1.303-.633-2.806-.513-4.199-.21 1.532-.686 3.109-1.338 4.719-1.796zM322.063 51.889c2.989-.838 6.133-.459 9.126.224-1.992.318-3.882 1.021-5.675 1.827-.456.154-.919.267-1.343.375.147-.343.331-.694.509-1.083-.703-.127-1.441-.25-2.188-.411-.115-.221-.313-.71-.429-.932zM313.936 54.149c1.671-.067 3.402-.263 5.081.229.338.106.649.297.861.625-1.386 1.102-3.243.758-4.85.974-.234.038-.787.086-1.061.13-.022-.638-.011-1.321-.031-1.958z"/><path fill="#39A186" stroke="#39A186" d="M235.541 67.756c.221-.116.626-.34.814-.411.125.781.289 1.556.414 2.336-.994-.201-1.948-.409-2.916-.695a16.65 16.65 0 0 1 1.688-1.23z"/><path fill="#C5DDE2" stroke="#C5DDE2" d="M330.422 55.079c1.329-.453 2.686-.99 4.114-.817-.776.404-1.535.926-2.246 1.48-.636-.22-1.234-.444-1.868-.663z"/><path fill="#69AC78" stroke="#69AC78" d="M284.908 62.711c4.981-1.917 10.39-1.901 15.635-1.657 3.621-.138 7.135-1.46 10.8-1.325 2.124.261 4.311-.088 6.38.583 1.39.178 2.767.279 4.138.58-1.472.316-2.943.631-4.389 1.102-2.495-.322-5.031-.157-7.567.007-2.939-.091-5.918.305-8.808.767-1.295.167-2.437.79-3.579 1.412-1.934.43-4.083 1.013-5.94-.092a24.92 24.92 0 0 1 1.603-1.498c.354-.296.712-.554 1.033-.805-2.576.171-5.146.622-7.667 1.144-.534.167-1.086-.026-1.639-.218zM332.29 55.741c.711-.554 1.47-1.076 2.246-1.48 1.902.376 4.358.465 5.424 2.376-2.609.458-5.26.16-7.67-.896z"/><path fill="#39A186" stroke="#39A186" d="M290.343 62.883c.938-.15 1.881-.26 2.837-.293-.529.445-1.086.975-1.603 1.498 1.857 1.104 4.007.522 5.94.092 1.164.015 2.34.107 3.497.082-2.564.491-5.124 1.26-7.733 1.476-1.612.178-3.303.128-4.803.768-.756.281-1.028 1.086-1.369 1.7-1.721.516-3.489.718-5.171 1.227-3.055.929-6.379.419-9.339 1.693a7.481 7.481 0 0 1-4.23.596c.433-.549.705-1.354 1.486-1.479 1.783-.366 3.638-.541 5.326-1.252 2.659-1.146 5.777-.923 8.228-2.636-1.718-.727-3.516.802-5.192-.172 2.772-1.684 6.238-1.557 9.287-.763 1.006.28 2.028.157 3.037-.044-.053-.834-.105-1.666-.198-2.493zM266.14 67.792c2.18-.389 4.713-1.834 6.776-.442-1.374 1.421-3.449 1.472-5.275 1.563-.809.21-1.101-.624-1.501-1.121z"/><path fill="#0791A0" stroke="#0791A0" d="M297.518 64.18c1.143-.623 2.284-1.245 3.579-1.412 2.89-.462 5.868-.858 8.808-.767 2.536-.165 5.072-.33 7.567-.007-1.861 1.138-4.063.889-6.164 1.025-3.429.347-6.862.656-10.293 1.244-1.158.024-2.333-.068-3.497-.083z"/><path fill="#39A186" stroke="#39A186" d="M317.723 60.311c.964-.234 1.915-.546 2.91-.584 1.398-.023 2.646.778 3.8 1.476-1.84 1.015-3.999 1.038-6.017 1.441-.112.298-.22.635-.332.934a5.175 5.175 0 0 1 2.064 2.394c-2.435.548-5.11 1.096-7.496-.044-1.54-.875-3.396-.458-4.991-1.165 1.234-.558 2.408-1.226 3.646-1.744 2.101-.136 4.303.113 6.164-1.025 1.445-.471 2.917-.786 4.389-1.102-1.371-.302-2.748-.403-4.137-.581z"/><path fill="#FFF" stroke="#FFF" d="M228.471 75.893c1.397-.783 2.965-.994 4.501-1.16-1.171.948-2.181 2.151-3.621 2.661-1.771.684-3.429 1.589-5.079 2.534-1.658.906-3.478 1.797-5.432 1.349 1.13-.942 2.397-1.784 3.672-2.588 1.918-1.028 4.041-1.769 5.959-2.796z"/><path fill="#69AC78" stroke="#69AC78" d="M288.479 66.505c1.5-.64 3.19-.589 4.803-.768 2.609-.216 5.169-.985 7.733-1.476 3.431-.587 6.864-.896 10.293-1.244-1.238.518-2.412 1.186-3.646 1.744-6.212 1.713-12.811.766-18.984 2.473-.562.25-1.06.649-1.567.971.339-.614.612-1.418 1.368-1.7z"/><path fill="#39A186" stroke="#39A186" d="M238.533 76.208a21.944 21.944 0 0 1 2.975-1.676 25.2 25.2 0 0 0 .347 1.666 50.75 50.75 0 0 1-3.148 1.344c-.07-.43-.105-.905-.174-1.334z"/><path fill="#6BB6BD" stroke="#6BB6BD" d="M217.416 82.144c.873-2.062 2.947-3.113 5.096-3.456-1.274.804-2.542 1.646-3.672 2.588 1.954.449 3.773-.442 5.432-1.349-1.255 1.682-3.422 2.148-5.145 3.145l-1.711-.928z"/><path fill="#020304" stroke="#020304" d="M343.932 60.689c1.305-.609 2.699-.912 4.109-1.098 1.665.896 3.205 2.012 4.608 3.269l-.551.568c1.601 1.747 2.781 3.881 4.022 5.885.619.862.223 1.887.092 2.829-1.223-.886-2.255-2.082-3.092-3.31-.203.233-.563.731-.768.963-1.331-1.068-2.459-2.37-3.621-3.625-.976-1.086-2.43-1.414-3.739-1.845.563-.491 1.262-.883 1.637-1.543-.847-.787-1.785-1.398-2.697-2.093z"/><path fill="#39A186" stroke="#39A186" d="M304.644 67.166c.851-.176 1.71-.314 2.563-.49.01.559.02 1.118.027 1.678.469-.075.97-.196 1.433-.309.042-.488.04-1.007.081-1.495 2.111.424 4.292.796 6.098 2.069-1.367.219-2.745.358-4.074.57-.197-.488-.39-.938-.549-1.434-1.462.874-3.083 1.254-4.766 1.002-.289-.553-.572-1.069-.813-1.591z"/><path fill="#FEE80D" stroke="#FEE80D" d="M295.776 77.593c3.201-1.272 6.751-1.359 10.114-.855 2.867 2.145 4.47 5.413 6.381 8.351.369 1.062.893 2.58-.134 3.425-1.957 2.035-10.391 19.552-11.604 22.228-2.601-1.987-8.104-6.48-11.3-7.173.896-.663 10.389-13.937 11.188-14.705-2.363-.503-4.215 1.435-6.492 1.718-1.49-.802-3.23-1.166-4.903-.857-2.493.438-5.075.57-7.429 1.626-1.353.057-2.691-.05-4.074-.189.367-.458.767-.964 1.133-1.423 1.965-.994 3.723-2.276 5.421-3.668 4.24-3.281 9.523-4.805 14.598-6.137.008-.202.035-.527.011-.682-.907-.658-1.905-1.139-2.91-1.659z"/><path fill="#6BB6BD" stroke="#6BB6BD" d="M252.289 86.623c1.879-1.021 3.976-1.436 5.931-2.229 2.067-.851 4.267-1.122 6.465-1.394-1.369.7-2.833 1.053-4.306 1.369-.471.556-.764 1.483-1.602 1.498-2.161.265-4.309.608-6.488.756z"/><path fill="#39A186" stroke="#39A186" d="M176.815 100.205c1.342-1.616 3.153-3.067 5.351-3.098-1.144 1.864-3.283 2.768-5.351 3.098zM227.451 91.313c1.541-1.127 3.25-1.961 5.158-2.305-1.086 1.734-3.316 2.051-5.158 2.305z"/><path fill="#6BB6BD" stroke="#6BB6BD" d="M329.929 75.3c.643.017 1.325.028 1.796.473 1.102.866 2.246 1.764 3.443 2.494 1.225.645 1.07 2.191 1.335 3.35.348 1.667.102 3.387-.358 5.023-1.002.241-1.966.474-2.898.904-.41.186-.783.366-1.155.544.068.67.141 1.379.254 2.083.56 1.752 2.021 3.12 2.346 4.911-.049 2.45-2.633 3.824-2.935 6.194-.248 1.201-.205 2.476-.745 3.604-.552.81-1.433 1.311-2.223 1.877.056-.65.112-1.299.176-1.909-1.187-.653-2.597-1.709-3.941-.854-1.678 1.029-3.323 2.254-5.29 2.727 1.407-1.466 2.912-2.827 4.674-3.828 1.931-.949 3.624-2.623 3.745-4.884.469-.075 1.239.243 1.465-.354.243-.479.396-1.024.557-1.53-.626.1-1.257.161-1.842.255.624-1.102 1.58-2.135 1.654-3.428-.168-1.054-1.382-1.381-2.146-1.899l-1.115 1.539c.598-.015 1.196-.031 1.839-.013-.1.375-.167.708-.267 1.083-.648-.296-1.291-.554-1.932-.812.382-1.622.464-3.357 1.391-4.828 1.2-1.513 3.22-2.156 4.458-3.674.839-1.016.297-2.41.266-3.606l-2.323.491c-.236-1.968-.197-3.976-.229-5.933z"/><path fill="#39A186" stroke="#39A186" d="M220.866 95.208c.853-1.938 3.181-2.391 5.017-2.684-1.291 1.448-3.124 2.262-5.017 2.684z"/><path fill="#6BB6BD" stroke="#6BB6BD" d="M220.757 99.792c1.797-1.288 4.002-1.521 6.134-1.461.061.63.121 1.261.188 1.932-.892.182-1.817.41-2.708.593-.034.286-.104.856-.133 1.183-1.521.002-3.01.201-4.494.438 1.426-.348 2.893-.702 4.373-.939a24.54 24.54 0 0 1-3.36-1.746z"/><path fill="#C5DDE2" stroke="#C5DDE2" d="M276.372 90.984a56.631 56.631 0 0 0 2.283-1.246c-.366.459-.766.965-1.133 1.423 1.383.139 2.722.246 4.074.189-.38.381-.791.808-1.172 1.188l-1.132.181a27.163 27.163 0 0 0-2.92-1.735z"/><path fill="#69AC78" stroke="#69AC78" d="M204.343 106.338c-.723.234-1.453.432-2.136.661-.121-.261-.41-.815-.538-1.115 3.053-1.689 5.832-4.096 9.38-4.703-.567.972-1.268 1.845-1.981 2.64.883.02 1.729.044 2.605.024"/><path fill="#FFF" stroke="#FFF" d="M281.597 91.351c2.354-1.056 4.936-1.189 7.429-1.626 1.673-.308 3.413.055 4.903.857-4.554.327-8.988 1.396-13.504 1.957.381-.381.792-.807 1.172-1.188zM293.929 90.582c2.277-.283 4.129-2.221 6.492-1.718-.799.769-1.687 1.471-2.581 2.135-1.28-.237-2.612-.303-3.911-.417z"/><path fill="#39A186" stroke="#39A186" d="M201.319 108.463c-.02-.88-.214-1.849.35-2.579.128.3.417.854.538 1.115.684-.229 1.414-.427 2.136-.661.025.155.042.514.073.708a80.16 80.16 0 0 1-3.097 1.417z"/><path fill="#FEE80D" stroke="#FEE80D" d="M268.644 99.749c1.988-1.84 3.931-3.712 6.436-4.833.56 2.754.971 5.572 1.375 8.35l.036.233c2.935-.428 5.819-1.169 8.822-1.168l.2 1.249c-.45.193-.86.378-1.31.569-.634.302-1.312.57-1.887.982-.148.825-.018 1.645-.003 2.483-1.634.3-3.313.569-4.922 1.027 1.055 6.598 1.881 13.274 3.098 19.887-1.888.461-3.756.801-5.657 1.184-.445-.529-.929-1.053-1.335-1.588-.872-1.705-11.647-.463-12.48-2.174.153-.541 0 0-.519-.234-1.411-2.818-.352-.205-1.619-3.125.14-.625.596.225 0 0-2.482-4.432 6.117-11.409 3.765-16.28-.188-.931-.455-1.849-.403-2.778.257-1.402 1.285-2.486 2.156-3.548.466.406.805 1.032 1.395 1.219 1.176.092 2.04-.767 2.852-1.455z"/><path fill="#39A186" stroke="#39A186" d="M332.091 88.088c.372-.179.745-.358 1.155-.544.271 1.198.498 2.362.77 3.561a50.337 50.337 0 0 0-1.671-.934 35.228 35.228 0 0 1-.254-2.083zM327.84 91.051c.764.518 1.978.846 2.146 1.899-.074 1.293-1.03 2.326-1.654 3.428.585-.094 1.216-.155 1.842-.255-.16.506-.313 1.051-.557 1.53-.226.598-.996.279-1.465.354-.65-.056-1.306-.151-1.956-.208.484-1.479 1.268-2.846 2.102-4.141.1-.375.167-.708.267-1.083-.643-.018-1.241-.001-1.839.013l1.114-1.537z"/><path fill="#8AC5E1" stroke="#8AC5E1" d="M351.386 93.055c1.125-.981 2.249-1.961 3.573-2.692-1.077 1.773-2.331 3.454-3.86 4.901.175 1.093.275 2.237-.334 3.175-.709-.927-2.141-1.62-2.145-2.899.579-1.135 1.857-1.66 2.766-2.485z"/><path fill="#FEE80D" stroke="#FEE80D" d="M294.088 100.608c2.002 0 3.942.611 5.671 1.656.126.541.489.805 1.036.717.761.759 1.562 1.512 2.069 2.431.31 1.433-.854 2.42-1.518 3.526-.979 1.398-.978 3.16-1.748 4.604-1.222 1.878-3.2 3.034-4.854 4.458-1.648 1.469-12.396 9.389-14.256 10.529-.892-4.824-2.206-15.064-3.098-19.887-.629-.181 8.242-1.797 7.567-2.011 1.076-.533 2.244-.999 3.159-1.785 1.164-.987 1.726-2.479 2.799-3.532"/><path fill="#0791A0" stroke="#0791A0" d="M167.648 121.531c3.664-.795 7.913-1.465 12.737-2.236 1.706-.352 3.379-.66 5.095-.693 1.157-.025 2.42-.387 3.497.082.828.668 1.008 1.801 1.399 2.74-1.648 1.465-3.543 2.889-5.737 3.439a6.438 6.438 0 0 0-.366-.783c-3.22.396-6.378 1.18-9.612 1.496.379 1.621.648 3.299.877 4.986-1.433 2.313-3.963 3.516-5.635 5.584-.546-4.917-1.443-9.779-2.255-14.615z"/><path fill="#C5DDE2" stroke="#C5DDE2" d="M282.316 105.131c.575-.412 1.253-.681 1.887-.982-.563.491-1.126.98-1.682 1.51.817.351 1.595.707 2.438.973.675.214 1.343.386 1.974.565-3.194.311-6.313 1.09-9.541 1.445 1.609-.458 3.288-.728 4.922-1.027-.015-.839-.146-1.658.002-2.484z"/><path fill="#69AC78" stroke="#69AC78" d="M299.759 102.264c.514-.042.87.182 1.036.717-.547.088-.91-.176-1.036-.717z"/><path fill="#FFF" stroke="#FFF" d="M302.864 105.412c.725 1.526 1.768 3.042 1.69 4.816-.056 1.65-.186 3.353-.859 4.901-1.045 2.73-3.477 4.802-6.143 5.908-2.675.547-5.428.867-8.117 1.338-.023-.158-.075-.471-.099-.625 1.86-1.139 3.76-2.281 5.408-3.75 1.653-1.424 3.632-2.58 4.854-4.458.771-1.444.77-3.206 1.748-4.604.664-1.106 1.828-2.094 1.518-3.526z"/><path fill="#69AC78" stroke="#69AC78" d="M265.493 111.864"/><path fill="#FEE80D" stroke="#FEE80D" d="M257.562 117.855c1.514 2.963 3.106 5.912 4.516 8.971-1.328.211-2.656.424-3.982.637-.402-2.02-.857-4.109-.584-6.156.176-1.149.353-2.299.05-3.452z"/><path fill="#6BB6BD" stroke="#6BB6BD" d="M120.061 144.75c1.447-1.473 2.9-2.904 4.592-4.098.114.465.228.928.257 1.363-.65.945-1.72 1.516-2.602 2.256-1.901 1.387-3.421 3.15-5.426 4.393.447-1.715 2.008-2.725 3.179-3.914z"/><path fill="#C5DDE2" stroke="#C5DDE2" d="M110.815 148.031c1.181-1.631 2.634-3.064 4.299-4.17-1.889 2.461-4.495 4.441-5.706 7.396-.68 2.512-3.288 3.729-4.958 5.559-.128-.299-.262-.639-.396-.979.975-.916 1.905-1.865 2.885-2.74-.214-.09-.681-.254-.895-.34 1.687-1.468 3.374-2.943 4.771-4.726zM337.974 109.614c.466-.595 1.034-1.048 1.59-1.576.363.264.73.563 1.094.827a23.25 23.25 0 0 0-.89 1.943c-.423.868-.754 1.804-1.357 2.54-.802.488-1.791.566-2.664.866a20.206 20.206 0 0 1 2.382-1.382c-.092-1.066-.384-2.141-.155-3.218z"/><path fill="#FFF" stroke="#FFF" d="M312.979 118.092c.591-1.814 1.059-3.654 1.24-5.524.028.676.101 1.387.168 2.057.81-.45 1.578-.894 2.382-1.384-1.039 1.768-2.252 3.445-3.79 4.851z"/><path fill="#6BB6BD" stroke="#6BB6BD" d="M139.189 142.416"/><path fill="#C5DDE2" stroke="#C5DDE2" d="M318.514 116.887c.601-.496 1.329-.693 2.054-.928-.248 1.202-1.021 2.125-2.08 2.776-.022-.639-.083-1.27.026-1.848zM312.861 119.352c1.063-.611 2.08-1.254 3.146-1.863-.959 2.275-3.215 3.436-5.213 4.717.826-1.094 1.471-2.316 1.986-3.602.033.197.05.554.081.748z"/><path fill="#6BB6BD" stroke="#6BB6BD" d="M101.57 155.834c1.477-1.035 3.049-1.967 4.474-3.076.214.086.681.25.895.34-.98.875-1.91 1.824-2.885 2.74-.822.371-1.656.666-2.49.959l.006-.963z"/><path fill="#C5DDE2" stroke="#C5DDE2" d="M314.931 124.787c1.96-2.516 4.051-4.971 6.74-6.682.29.313.615.584.938.852-2.191 1.07-3.493 3.199-5.491 4.48-.726.477-1.451.954-2.187 1.35z"/><path fill="#6BB6BD" stroke="#6BB6BD" d="m114.721 151.932.352-.057c.435 2.975.909 5.941 1.501 8.891-2.032.564-4.077 1.051-6.116 1.576-2.516 1.045-4.621 2.902-6.971 4.238-.163-.012-.487-.041-.656-.094 1.689-1.713 3.604-3.26 5.57-4.736 1.314-1.049 3.151-.582 4.604-1.256.939-.391 2.261-.641 2.612-1.697"/><path fill="#C5DDE2" stroke="#C5DDE2" d="M273.497 128.125c.406.535.89 1.059 1.335 1.588 1.901-.383 3.77-.723 5.657-1.184.106.664.258 1.357.408 2.057-.315-.471-.473-1.205-1.188-1.172-1.586-.146-3.137.424-4.615.938-.008.203-.069.572-.076.773-.521-.996-1.001-2.002-1.521-3z"/><path fill="#6BB6BD" stroke="#6BB6BD" d="M306.478 126.777c1.732-1.195 3.109-2.857 4.316-4.572.524.277 1.088.549 1.613.822-1.714 1.559-3.563 3.014-5.192 4.598-.194-.211-.543-.637-.737-.848z"/><path fill="#FFF" stroke="#FFF" d="M320.045 123.211c1.853-.938 3.382-2.383 5.28-3.287a14.978 14.978 0 0 1-2.616 3.422c-2.078 1.533-4.355 2.816-6.427 4.389-1.287.967-2.632 1.822-4.145 2.383.408-.705.86-1.377 1.354-2.055 2.441-1.272 4.068-3.614 6.554-4.852z"/><path fill="#8AC5E1" stroke="#8AC5E1" d="M96.531 158.883c1.232-.557 2.49-.957 3.741-1.4-.233.799-.42 1.631-.647 2.469l1.274-.045c-1.691 1.191-3.653 1.947-5.403 3.025-.993-.199-1.979-.363-2.973-.566l-.382-.139c1.405-1.225 2.708-2.594 4.39-3.344z"/><path fill="#6BB6BD" stroke="#6BB6BD" d="M316.282 127.734c2.071-1.572 4.349-2.855 6.427-4.389.252.078.765.277 1.024.396-2.368 2.221-5.193 3.832-7.757 5.844-2.849 2.219-6.134 3.705-9.19 5.633.834-2.055 3.062-2.891 4.6-4.301-.794.047-1.587.098-2.382.143 1.366-1.219 2.901-2.146 4.487-2.998-.493.678-.945 1.35-1.354 2.055 1.513-.56 2.858-1.416 4.145-2.383z"/><path fill="#0791A0" stroke="#0791A0" d="M303.455 128.904c1.012-.684 2.023-1.365 3.022-2.127.194.211.543.637.737.848-2.355 3.059-5.472 5.357-8.459 7.717-1.075.531-2.208.951-3.311 1.328 2.671-2.59 6.045-4.529 8.011-7.766z"/><path fill="#8AC5E1" stroke="#8AC5E1" d="M308.455 127.863c1.69.053 2.71-1.834 4.333-1.691-.422 1.869-2.441 2.512-3.839 3.535l-.909-1.174c.163-.228.289-.447.415-.67z"/><path fill="#6BB6BD" stroke="#6BB6BD" d="M89.161 166.387c.357-1.777 1.672-3.068 2.979-4.16l.382.139a73.462 73.462 0 0 1-1.418 2.148l.97.809c-.869.575-1.917.786-2.913 1.064z"/><path fill="#FFF" stroke="#FFF" d="M92.522 162.365c.994.203 1.98.367 2.973.566-1.207.715-2.317 1.533-3.422 2.391-.323-.27-.646-.537-.97-.809a67.86 67.86 0 0 0 1.419-2.148z"/><path fill="#6BB6BD" stroke="#6BB6BD" d="M135.743 158.184c1.402-.746 2.656-1.666 3.975-2.436-.381.619-.756 1.279-1.137 1.9.319-.01.923.014 1.249.043-1.099.895-2.352 1.574-3.668 2.105-.127-.536-.254-1.077-.419-1.612z"/><path fill="#C5DDE2" stroke="#C5DDE2" d="M290.554 132.125c1.583-.373 3.223-.633 4.83-.85a11.01 11.01 0 0 1-1.563 1.49c-1.014-.32-1.83.332-2.678.787a8.667 8.667 0 0 0-.084-1.027c-.135-.095-.369-.3-.505-.4z"/><path fill="#39A186" stroke="#39A186" d="M295.384 131.275c.735-.16 1.511-.322 2.248-.479-1.291 1.445-2.782 2.645-4.17 3.988-.692.67-1.6 1.018-2.536 1.166.587-1.334 1.711-2.314 2.896-3.186.567-.45 1.09-.934 1.562-1.489z"/><path fill="#8AC5E1" stroke="#8AC5E1" d="M110.458 162.342c2.039-.525 4.083-1.012 6.116-1.576 4.755-.561 9.461-1.432 14.205-2.07-3.831 1.092-7.925 1.025-11.666 2.426-2.823 1.131-4.255 4.443-7.443 4.793.577-.65 1.102-1.377 1.633-2.063-1.826-.148-3.891-.541-5.465.631-1.402.746-2.559 2.533-4.35 2.098 2.349-1.337 4.455-3.194 6.97-4.239z"/><path fill="#6BB6BD" stroke="#6BB6BD" d="M92.242 167.377c.283-1.488 1.453-2.436 2.706-3.115.037.234.079.748.084 1.027-.883.74-1.805 1.492-2.79 2.088z"/><path fill="#C5DDE2" stroke="#C5DDE2" d="M305.425 134.717c.744-1.602 2.318-2.533 3.579-3.656.795-.045 1.588-.096 2.382-.143-1.538 1.41-3.766 2.246-4.6 4.301l-.549.328c-.192-.209-.618-.621-.812-.83zM107.837 164.482c1.575-1.172 3.64-.779 5.465-.631-.531.686-1.056 1.412-1.633 2.063-2.127 2.221-4.624 4.145-7.485 5.279-2.628 1.102-5.069 2.613-7.316 4.334-2.337 1.414-4.513 3.084-6.965 4.277.958-1.273 1.65-2.707 2.257-4.164.741-.881 1.63-1.584 2.558-2.291.519.236 1.06.869 1.629.42 2.605-1.74 4.713-4.078 7.126-6.025a17.38 17.38 0 0 1-.851-1.064l.209-.193c.168.053.493.082.656.094 1.792.435 2.948-1.352 4.35-2.099z"/><path fill="#6BB6BD" stroke="#6BB6BD" d="M300.604 136.127c1.22-.637 2.272-1.564 3.633-1.82-1.254 1.68-3.234 2.559-4.675 4.068-.577.652-1.372.941-2.213 1.195.241-1.761 1.858-2.66 3.255-3.443z"/><path fill="#C5DDE2" stroke="#C5DDE2" d="M90.132 171.719c1.578-1.654 3.279-3.289 5.534-3.969-1.424 1.869-2.66 3.908-4.315 5.576-.247-.041-.729-.045-.974-.084l-.245-1.523z"/><path fill="#8AC5E1" stroke="#8AC5E1" d="M94.718 173.35c2.699-2.154 5.16-4.551 7.905-6.67.257.359.554.713.851 1.064-2.413 1.947-4.521 4.285-7.126 6.025-.57.45-1.112-.183-1.63-.419z"/><path fill="#6BB6BD" stroke="#6BB6BD" d="M126.342 165.012c1.382-.621 2.815-1.172 3.747-2.361.163.014.325.029.442.01.734.084 1.468.166 2.202.248-.199.514-.39 1.066-.634 1.543-.657.146-1.321.252-1.985.357-.056.65-.113 1.301-.176 1.908-.882.744-1.914 1.311-2.892 1.947-.161-.254-.477-.725-.637-.98l.909-1.826c-.324-.27-.647-.54-.976-.846z"/><path fill="#8AC5E1" stroke="#8AC5E1" d="M295.445 136.67c1.103-.377 2.235-.797 3.311-1.328-1.981 1.637-3.612 3.701-5.902 4.908a7.447 7.447 0 0 1 2.591-3.58zM114.723 168.23c1.232-1.561 3.157-2.547 5.139-2.426-.545.85-1.135 1.664-2.062 2.135-.99.317-2.043.245-3.077.291zM119.207 170.477c2.243-2 4.841-3.537 7.136-5.465.329.307.652.576.976.846l-.909 1.826c.161.256.476.727.637.98-1.307.85-2.464 1.875-3.725 2.758-.186-.414-.521-.76-.89-1.061 1.423-.867 2.646-1.984 3.682-3.271-2.431.83-4.605 2.258-6.907 3.387zM130.114 164.809a32.608 32.608 0 0 0 1.985-.357 18.599 18.599 0 0 1-2.161 2.266c.063-.609.12-1.259.176-1.909zM84.521 176.699c1.954-1.553 3.753-3.322 5.611-4.98l.244 1.523c.246.039.727.043.974.084a32.297 32.297 0 0 0-2.579 2.652c-.786.848-1.811 1.453-2.815 1.934-1.708.592-2.592 2.576-4.498 2.68.63-1.58 1.75-2.842 3.063-3.893z"/><path fill="#6BB6BD" stroke="#6BB6BD" d="M106.262 172.664c1.426-2.348 4.027-3.365 6.465-4.396-.143.865-.33 1.695-.518 2.525.239.242.472.447.711.688-.195.031-.612.178-.841.252-1.23.32-2.224 1.119-3.127 1.984.057-1.65 1.313-2.813 2.276-4.049-1.348.336-2.277 1.285-3.071 2.332-.413.668-1.226.598-1.895.664z"/><path fill="#FFF" stroke="#FFF" d="M119.207 170.477c2.303-1.129 4.477-2.557 6.907-3.387-1.036 1.287-2.259 2.404-3.682 3.271a101.514 101.514 0 0 0-9.038 6.088c-1.123.74-2.359 1.779-3.819 1.412l.327-.213c2.737-1.918 5.421-3.908 7.997-6.082.424-.349.883-.742 1.308-1.089z"/><path fill="#8AC5E1" stroke="#8AC5E1" d="M108.157 172c.794-1.047 1.724-1.996 3.071-2.332-.963 1.236-2.219 2.398-2.276 4.049-.516 1.283-1.574 2.174-2.698 2.912-.805-.27-1.646-.777-2.486-.521-1.328.211-1.954 1.553-3.057 2.17-.84.254-1.77.201-2.647.223 2.84-1.777 5.307-4.133 8.198-5.836.669-.067 1.482.003 1.895-.665z"/><path fill="#6BB6BD" stroke="#6BB6BD" d="M80.814 175.809c-.114-1.225 1.261-.881 2.076-1.051-.647.463-1.358.777-2.076 1.051zM116.781 169.582c.066-.09.275-.283.341-.375.248.803.535 1.598.776 2.359-2.576 2.174-5.26 4.164-7.997 6.082l-.207-1.287c1.764-1.242 3.482-2.518 5.291-3.729 1.045-.728 1.412-1.946 1.796-3.05z"/><path fill="#C5DDE2" stroke="#C5DDE2" d="M112.92 171.48c1.419-.389 2.614-1.176 3.86-1.898-.384 1.104-.75 2.322-1.795 3.051-.966-.287-1.934-.574-2.907-.9.23-.075.647-.221.842-.253z"/><path fill="#6BB6BD" stroke="#6BB6BD" d="M74.091 179.086c2.07-1.334 4.486-1.998 6.568-3.252l.375 2.344c-2.52 1.523-4.763 3.523-7.668 4.387.036.477.072.951.069 1.434.979.361 1.926.773 2.905 1.137a36.877 36.877 0 0 0-1.179 2.15 37.178 37.178 0 0 0 3.331-1.211l.357 2.984c.58-.133 1.192-.313 1.771-.445-.381.623-.762 1.246-1.183 1.871-1.055 1.17-2.354 2.061-3.609 2.982.095-1.418.398-3.027-.445-4.297-.679-.49-1.478-.725-2.288-1.035.015-.402-.014-.838-.038-1.234-.061-.631-.115-1.223-.17-1.816-2.211 1.195-4.207 2.996-6.771 3.486.849-1.457 1.833-2.814 2.771-4.207 1.438-2.034 3.295-3.692 5.204-5.278z"/><path fill="#FFF" stroke="#FFF" d="M108.952 173.717c.903-.865 1.896-1.664 3.127-1.984.973.326 1.94.613 2.907.9-1.809 1.211-3.527 2.486-5.291 3.729-.392.301-.79.566-1.194.793a12.758 12.758 0 0 1-2.246-.525c1.123-.739 2.182-1.63 2.697-2.913z"/><path fill="#6BB6BD" stroke="#6BB6BD" d="M85.957 177.912c1.004-.48 2.029-1.086 2.815-1.934a98.102 98.102 0 0 0 3.389-.338c-.607 1.457-1.3 2.891-2.257 4.164 2.452-1.193 4.628-2.863 6.965-4.277-1.373 1.18-2.604 2.496-3.926 3.752-1.361 1.258-3.352 1.574-4.764 2.762-1.164.988-1.681 2.512-2.748 3.604-.804.729-1.989.838-3.018 1.162.116-.779.05-1.689.814-2.172 1.999-1.52 4.044-3.01 5.565-5.014.187-.59.373-1.182.519-1.768-1.118.022-2.243.001-3.354.059zM113.394 176.449a101.876 101.876 0 0 1 9.038-6.088c.369.301.705.646.89 1.061-1.835 1.293-3.98 2.156-5.622 3.66-2.198 2.033-5.039 3.047-7.501 4.682-2.031 1.324-3.856 2.938-5.893 4.225a5.687 5.687 0 0 1-.041-.754 13.726 13.726 0 0 0-.715-.967 521.298 521.298 0 0 0 6.023-4.406c1.461.367 2.698-.673 3.821-1.413z"/><path fill="#39A186" stroke="#39A186" d="M81.459 180.592c1.906-.104 2.79-2.088 4.498-2.68 1.112-.059 2.236-.037 3.354-.059-.146.586-.333 1.178-.519 1.768-.088-.309-.267-.92-.356-1.227-1.275.285-2.314 1.053-3.023 2.127-.389-.178-.732-.324-1.083-.508-.562.49-1.131.939-1.687 1.471-.408-.296-.776-.597-1.184-.892z"/><path fill="#C5DDE2" stroke="#C5DDE2" d="M64.931 185.916c1.344-1.617 2.687-3.232 4.463-4.398-.571.693-1.095 1.416-1.659 2.15.311.188.848.543 1.152.695-.938 1.393-1.923 2.75-2.771 4.207l-.232-.203c-.366-.783-.62-1.623-.953-2.451zM100.711 178.277c1.103-.617 1.729-1.959 3.057-2.17.84-.256 1.682.252 2.486.521.72.246 1.466.408 2.246.525-2.113 1.816-4.833 2.332-7.424 2.908l.262-1.365c-1.333.174-2.681.266-4.026.363.177-.148.574-.414.751-.561.878-.019 1.808.033 2.648-.221z"/><path fill="#6BB6BD" stroke="#6BB6BD" d="M82.643 181.484c.556-.531 1.125-.98 1.687-1.471.351.184.694.33 1.083.508-1.372 1.939-3.288 3.488-5.619 4.182a21.657 21.657 0 0 1 2.849-3.219zM77.079 181.494c1.077-.775.251 1.32 0 0z"/><path fill="#0791A0" stroke="#0791A0" d="M108.5 177.154a9.96 9.96 0 0 0 1.194-.793l.207 1.287-.327.213a521.298 521.298 0 0 1-6.023 4.406c-1.535 1.168-3.07 2.334-4.406 3.748.252.078.753.199 1.006.279-1.209.955-2.425 1.869-3.543 2.891-1.131.939-2.056 2.168-3.393 2.822-.563-.27-1.101-.625-1.632-.939-1.979 1.396-3.656 3.186-5.641 4.545.103-.857.317-1.773 1.023-2.367 1.223-1.115 1.683-2.752 2.193-4.314 1.197-.029 2.566.271 3.651-.463 1.39-.822 2.432-2.07 3.305-3.371.742-.119 1.484-.238 2.232-.316-.438-.734-.841-1.508-1.272-2.201 1.351-.814 2.644-1.74 4.002-2.518 2.591-.577 5.312-1.092 7.424-2.909z"/><path fill="#FFF" stroke="#FFF" d="M90.425 185.328c2.315-2.055 4.328-4.498 6.888-6.268 1.346-.098 2.693-.189 4.026-.363l-.262 1.365c-1.358.777-2.651 1.703-4.002 2.518-2.784 1.127-4.396 4.068-7.366 4.781.213-.673.419-1.386.716-2.033z"/><path fill="#6BB6BD" stroke="#6BB6BD" d="M89.708 187.361c2.97-.713 4.582-3.654 7.366-4.781.431.693.834 1.467 1.272 2.201-.748.078-1.49.197-2.232.316-.873 1.301-1.915 2.549-3.305 3.371-1.084.734-2.454.434-3.651.463-.511 1.563-.97 3.199-2.193 4.314.008-.199.056-.65.063-.85-.611.178-1.269.322-1.888.463.429-.83.85-1.699 1.272-2.568-1.22-.363-2.482-.242-3.527.484l-.331-.068c.886-1.221 2.01-2.203 3.141-3.145a24.095 24.095 0 0 0-.22 1.879c1.667-1.348 3.185-2.873 4.949-4.113-.296.648-.502 1.361-.716 2.034z"/><path fill="#8AC5E1" stroke="#8AC5E1" d="M67.644 192.369c2.026-1.605 3.342-3.896 5.413-5.469.023.396.053.832.038 1.234.81.311 1.608.545 2.288 1.035.843 1.27.54 2.879.445 4.297-.535.404-1.026.844-1.419 1.387.225.404.489.801.752 1.201-1.49 1.199-2.741 2.641-3.987 4.119l.965 1.529c-1.428 1.588-2.901 3.148-4.768 4.244-.429-.932-.74-2.123-1.783-2.637-1.313.049-2.275 1.045-3.282 1.766-1.239.518-2.58.891-3.883 1.26.85-1.695 2.192-3.072 3.695-4.191.85-.699 1.744-1.363 2.323-2.254.142-.865-.151-1.697-.282-2.518-2.064 1.369-4.052 2.967-6.449 3.754a28.505 28.505 0 0 1 4.343-4.9c1.681-1.509 3.878-2.302 5.591-3.857z"/><path fill="#FFF" stroke="#FFF" d="M99.145 186.016c1.336-1.414 2.871-2.58 4.406-3.748.252.32.503.641.715.967-1.45.953-2.802 2.01-4.116 3.061-.253-.081-.753-.202-1.005-.28z"/><path fill="#8AC5E1" stroke="#8AC5E1" d="M100.15 186.295c1.314-1.051 2.666-2.107 4.116-3.061-.008.201.016.598.041.754-1.211 1.195-2.273 2.566-3.671 3.592-1.183.869-2.653 1.184-4.028 1.605 1.118-1.021 2.333-1.935 3.542-2.89z"/><path fill="#FFF" stroke="#FFF" d="M67.582 193.982c1.727-1.719 3.43-3.592 5.673-4.592.413.574.825 1.148 1.237 1.725-.19.311-.42.629-.656.906-1.843 1.256-4.101 1.657-6.254 1.961z"/><path fill="#69AC78" stroke="#69AC78" d="M75.827 193.467c1.255-.922 2.554-1.813 3.609-2.982 1.052.072 2.1.107 3.119.223l.331.068c-2.721 1.516-5.217 3.438-7.726 5.279-.264-.4-.528-.797-.752-1.201.393-.543.884-.983 1.419-1.387z"/><path fill="#C5DDE2" stroke="#C5DDE2" d="M67.582 193.982c2.153-.305 4.412-.705 6.253-1.961-.153.547-.113 1.299-.706 1.594-1.313.811-2.942.391-4.388.861-.909.826-1.896 1.666-3.133 1.943.273-1.046.763-2.243 1.974-2.437zM78.646 197.82c.233-.799 1.098-.898 1.801-1.008.042.516.078.988.113 1.463a70.295 70.295 0 0 1 2.904-1.625c-.141 1.621-1.733 2.438-2.818 3.414-.446.471-1.128.459-1.758.52.12-.502.247-.961.373-1.422-.231-.443-.462-.885-.615-1.342zM56.796 204.676a17.39 17.39 0 0 1 4.397-3.305c.232.201.691.568.924.773-1.503 1.119-2.845 2.496-3.695 4.191 1.303-.369 2.644-.742 3.883-1.26-1.13.941-2.422 1.629-3.772 2.205l-1.737-2.604z"/></g><g fill="#010202" stroke="#FFF" stroke-width="2" stroke-miterlimit="10"><path d="M69.593 89.933c-.423 1.822-.635 3.236-.635 4.245 0 1.431.423 2.911 1.27 4.44.846 1.529 2.344 3.496 4.492 5.903 4.329 4.945 7.332 8.482 9.009 10.612 1.676 2.131 3.035 4.14 4.077 6.026 1.237 2.245 2.124 4.334 2.661 6.27s.806 4.01.806 6.221a23.63 23.63 0 0 1-1.416 8.075c-.944 2.618-2.263 4.92-3.955 6.904-4.492 5.271-11.377 7.904-20.654 7.904H46.79v-15.771h16.357c3.483 0 5.973-.862 7.471-2.588 1.204-1.433 1.807-2.979 1.807-4.639 0-1.921-.684-3.897-2.051-5.933-1.367-2.034-4.736-6.111-10.107-12.231-2.474-2.864-4.37-5.216-5.688-7.056-1.318-1.839-2.287-3.523-2.905-5.054-1.042-2.571-1.563-4.915-1.563-7.031 0-1.563.228-3.662.684-6.299h18.798zM114.759 89.933v15.82H96.595v-15.82h18.164zm0 25.634v40.967H96.595v-40.967h18.164zM122.767 89.933h47.266c5.501 0 9.847.391 13.037 1.172 3.092.749 5.811 2.572 8.154 5.469 1.497 1.855 2.571 4.061 3.223 6.615.651 2.555.977 5.833.977 9.833v43.513H177.26v-42.781c0-1.821-.122-3.187-.366-4.098-.244-.91-.692-1.675-1.343-2.292-.619-.585-1.408-1-2.368-1.244s-2.222-.366-3.784-.366h-28.467v50.781h-18.164V89.933zm44.775 25.634v40.967h-16.846v-40.967h16.846zM203.431 89.933h22.021c3.972 0 7.243.114 9.814.342 3.938.326 7.292 1.579 10.059 3.76 1.855 1.498 3.304 3.442 4.346 5.835s1.563 4.973 1.563 7.739c0 3.386-.716 6.348-2.148 8.887-.749 1.335-1.652 2.482-2.71 3.442-1.059.96-2.547 1.945-4.468 2.954 1.53.618 2.751 1.22 3.662 1.804.911.586 1.79 1.365 2.637 2.341 2.539 2.86 3.809 6.534 3.809 11.019 0 2.438-.439 4.812-1.318 7.119-.879 2.309-2.1 4.258-3.662 5.851-1.399 1.431-3.085 2.601-5.054 3.511a18.708 18.708 0 0 1-6.226 1.658c-2.214.227-4.851.341-7.91.341h-24.414v-15.771h21.729c2.409 0 4.069-.472 4.98-1.416.911-.977 1.367-2.181 1.367-3.613 0-1.367-.423-2.49-1.27-3.369-.879-.879-2.588-1.318-5.127-1.318h-21.68v-15.82h21.729c1.628 0 2.921-.13 3.882-.391.96-.26 1.701-.7 2.222-1.318.749-.879 1.123-1.953 1.123-3.223 0-1.53-.513-2.669-1.538-3.418-1.025-.749-2.58-1.123-4.663-1.123h-22.754V89.933zM294.544 89.933l20.85 66.602h-62.695l13.525-40.967h16.602l-7.129 25.195h17.139l-18.066-50.83h19.774zM318.03 89.933h21.875c4.752 0 9.017.578 12.793 1.732 3.775 1.155 7.129 2.903 10.059 5.245 3.906 3.124 6.958 7.018 9.155 11.686 2.197 4.667 3.296 9.604 3.296 14.809 0 7.384-2.197 14.02-6.592 19.907a34.318 34.318 0 0 1-6.763 6.806c-2.556 1.936-5.185 3.359-7.886 4.27-4.167 1.432-9.115 2.147-14.844 2.147H318.03v-40.967h18.164v25.312c3.385 0 6.29-.406 8.716-1.219 2.425-.814 4.517-2.082 6.274-3.807 1.595-1.594 2.856-3.521 3.784-5.781.928-2.26 1.392-4.545 1.392-6.854 0-2.277-.473-4.554-1.416-6.831-.944-2.276-2.214-4.211-3.809-5.805-1.758-1.756-3.769-3-6.03-3.732-2.263-.731-5.249-1.098-8.96-1.098H318.03v-15.82z"/></g></svg>