<?xml version="1.0" encoding="UTF-8" standalone="no"?>
<!-- Creator: Corel DESIGNER -->

<svg
   xmlns:dc="http://purl.org/dc/elements/1.1/"
   xmlns:cc="http://creativecommons.org/ns#"
   xmlns:rdf="http://www.w3.org/1999/02/22-rdf-syntax-ns#"
   xmlns:svg="http://www.w3.org/2000/svg"
   xmlns="http://www.w3.org/2000/svg"
   xmlns:xlink="http://www.w3.org/1999/xlink"
   xmlns:sodipodi="http://sodipodi.sourceforge.net/DTD/sodipodi-0.dtd"
   xmlns:inkscape="http://www.inkscape.org/namespaces/inkscape"
   xml:space="preserve"
   width="607.43256"
   height="394.0769"
   style="clip-rule:evenodd;fill-rule:evenodd;image-rendering:optimizeQuality;shape-rendering:geometricPrecision;text-rendering:geometricPrecision"
   viewBox="0 0 607.43256 393.81549"
   id="svg2"
   version="1.1"
   inkscape:version="0.91 r13725"
   sodipodi:docname="star_profile.svg"><metadata
     id="metadata22"><rdf:RDF><cc:Work
         rdf:about=""><dc:format>image/svg+xml</dc:format><dc:type
           rdf:resource="http://purl.org/dc/dcmitype/StillImage" /><dc:title></dc:title></cc:Work></rdf:RDF></metadata><sodipodi:namedview
     pagecolor="#ffffff"
     bordercolor="#666666"
     borderopacity="1"
     objecttolerance="10"
     gridtolerance="10"
     guidetolerance="10"
     inkscape:pageopacity="0"
     inkscape:pageshadow="2"
     inkscape:window-width="1920"
     inkscape:window-height="1019"
     id="namedview20"
     showgrid="false"
     inkscape:zoom="1.4228571"
     inkscape:cx="162.72555"
     inkscape:cy="153.2293"
     inkscape:window-x="1920"
     inkscape:window-y="0"
     inkscape:window-maximized="1"
     inkscape:current-layer="svg2"
     fit-margin-top="0"
     fit-margin-left="0"
     fit-margin-right="0"
     fit-margin-bottom="0" /><defs
     id="defs4"><linearGradient
       inkscape:collect="always"
       id="linearGradient4150"><stop
         style="stop-color:#000000;stop-opacity:1;"
         offset="0"
         id="stop4152" /><stop
         style="stop-color:#000000;stop-opacity:0;"
         offset="1"
         id="stop4154" /></linearGradient><style
       type="text/css"
       id="style6"><![CDATA[
    .str2 {stroke:#28166F;stroke-width:6.48189;stroke-linecap:round;stroke-linejoin:round}
    .str1 {stroke:black;stroke-width:6.48189}
    .str0 {stroke:black;stroke-width:6.48189;stroke-linecap:round;stroke-linejoin:round}
    .fil1 {fill:none;fill-rule:nonzero}
    .fil0 {fill:white}
   ]]></style><radialGradient
       inkscape:collect="always"
       xlink:href="#linearGradient4150"
       id="radialGradient4158"
       cx="350.00009"
       cy="250.83357"
       fx="350.00009"
       fy="250.83357"
       r="350.00101"
       gradientTransform="matrix(1,0,0,0.71666795,0,71.069194)"
       gradientUnits="userSpaceOnUse" /></defs><rect
     style="fill:none;fill-opacity:1"
     id="rect10"
     height="501.66901"
     width="700.00201"
     y="-45.180317"
     x="-40.760513"
     class="fil0" /><g
     id="g13"
     style="fill:none;fill-opacity:1"
     transform="translate(-40.759595,-45.1794)"><line
       id="_38865536"
       class="fil1 str0"
       x1="44.0467"
       y1="419.646"
       x2="644.90503"
       y2="419.646"
       style="fill:none;fill-opacity:1;fill-rule:nonzero;stroke:#000000;stroke-width:6.4818902;stroke-linecap:round;stroke-linejoin:round" /><path
       id="_38045336"
       class="fil1 str0"
       d="m 344.477,419.646 0,-371.346 m -240.343,371.346 0.97743,0 0.48044,-0.0156 0.94803,0 0.47678,-0.006 0.50065,-0.009 0.95355,0 0.49055,-0.0101 0.48044,-0.009 0.45748,0 0.48688,-0.0101 0.971,0 0.48136,-0.009 0.46116,-0.0101 0.49239,0 0.47677,-0.009 0.50984,-0.0101 0.95171,-0.0193 0.49238,0 0.48045,-0.009 0.46207,0 0.48596,-0.0193 0.47677,0 0.50066,-0.0101 0.48045,-0.009 0.46758,-0.0101 0.49055,-0.009 0.94344,-0.0193 0.48136,-0.006 0.46575,-0.0101 0.98202,-0.0193 0.46208,-0.009 0.49055,-0.0101 0.47218,-0.0193 0.9912,-0.0202 0.46116,-0.0101 0.50157,-0.0193 0.48137,-0.009 0.45748,-0.0101 0.48504,-0.009 0.47217,-0.0193 0.50066,-0.0193"
       style="fill:none;fill-opacity:1;fill-rule:nonzero;stroke:#000000;stroke-width:6.4818902;stroke-linecap:round;stroke-linejoin:round"
       inkscape:connector-curvature="0" /><polyline
       id="_37737360"
       class="fil1 str0"
       points="572.284,419.5 572.775,419.52 573.247,419.52 573.747,419.529 574.224,419.529 575.181,419.548 575.653,419.558 576.164,419.567 576.645,419.567 577.116,419.577 577.612,419.587 578.551,419.587 579.041,419.597 579.513,419.597 580.018,419.606 580.499,419.616 581.457,419.616 582.391,419.631 583.349,419.631 583.849,419.646 584.822,419.646 "
       style="fill:none;fill-opacity:1;fill-rule:nonzero;stroke:#000000;stroke-width:6.4818902;stroke-linecap:round;stroke-linejoin:round" /><path
       id="_39870176"
       class="fil1 str1"
       d="m 104.135,419.646 0,19.4438 m 120.171,-19.4438 0,19.4438 m 240.339,-19.4438 0,19.4438 m 120.177,-19.4438 0,19.4438"
       style="fill:none;fill-opacity:1;fill-rule:nonzero;stroke:#000000;stroke-width:6.4818902"
       inkscape:connector-curvature="0" /></g><path
     id="_39579056"
     class="fil1 str2"
     d="m 86.956405,374.0726 0.47677,-0.0101 0.46575,-0.0147 0.50157,-0.0193 0.47126,-0.0101 0.50985,-0.0193 0.48228,-0.0193 0.46575,-0.0193 0.49606,-0.0193 0.48045,-0.011 0.46299,-0.0193 0.49055,-0.0193 0.47126,-0.0193 0.50617,-0.0285 0.47677,-0.0156 0.47126,-0.0174 0.49606,-0.0211 0.47494,-0.0285 0.45748,-0.0193 0.49055,-0.0294 0.46207,-0.0193 0.50525,-0.0285 0.4731,-0.0156 0.46575,-0.0285 0.49606,-0.0294 0.47126,-0.0202 0.50525,-0.0386 0.48687,-0.0294 0.471265,-0.0285 0.49607,-0.0248 0.47126,-0.0294 0.46666,-0.0285 0.48688,-0.0386 0.47126,-0.0294 0.50525,-0.0395 0.47585,-0.0331 0.463,-0.0404 0.50433,-0.0386 0.47217,-0.0285 0.45657,-0.0386 0.48595,-0.0496 0.46759,-0.0331 0.49974,-0.0386 0.48136,-0.0496 0.45748,-0.0386 0.49607,-0.0487 0.47126,-0.0441 0.50524,-0.0478 0.48688,-0.0487 0.46116,-0.0496 0.49606,-0.0441 0.47585,-0.0579 0.46116,-0.0478 0.48687,-0.0579 0.47126,-0.0441 0.49607,-0.068 0.49147,-0.0496 0.45656,-0.0634 0.49606,-0.0579 0.47677,-0.0579 0.49974,-0.0634 0.49055,-0.0689 0.45748,-0.0671 0.50617,-0.068 0.47677,-0.0726 0.46116,-0.0689 0.48504,-0.0634 0.47677,-0.0772 0.50157,-0.0772 0.48504,-0.0735 0.46208,-0.0882 0.49606,-0.0772 0.47677,-0.0827 0.45748,-0.0781 0.49055,-0.0827 0.46667,-0.0873 0.49514,-0.0919 0.48229,-0.0882 0.46574,-0.0965 0.49147,-0.0928 0.47586,-0.0974 0.50157,-0.10197 0.48045,-0.10656 0.47126,-0.10289 0.49606,-0.10656 0.47677,-0.11116 0.45656,-0.0983 0.49147,-0.11116 0.47586,-0.11758 0.49606,-0.12126 0.48596,-0.12126 0.46207,-0.11667 0.49607,-0.13136 0.47677,-0.12126 0.49974,-0.14607 0.48687,-0.12126 0.47677,-0.13044 0.49055,-0.15709 0.47677,-0.13136 0.46575,-0.14055 0.49147,-0.14607 0.47585,-0.14974 0.49147,-0.16168 0.49056,-0.14973 0.46207,-0.15617 0.49974,-0.16903 0.47677,-0.16168 0.45748,-0.15984 0.49055,-0.17087 0.46759,-0.17454 0.49974,-0.17913 0.48136,-0.19016 0.46116,-0.16995 0.49239,-0.19016 0.47493,-0.18832 0.50157,-0.20026 0.49056,-0.20945 0.47126,-0.18832 0.49238,-0.21955 0.47494,-0.20945 0.46758,-0.20945 0.48044,-0.21772 0.47677,-0.21863 0.50066,-0.22874 0.48595,-0.22323 0.46759,-0.23884 0.49056,-0.23793 0.47676,-0.24803 0.46117,-0.22782 0.48687,-0.25722 0.46575,-0.24436 0.49607,-0.26732 0.48228,-0.26733 0.46575,-0.26181 0.48044,-0.27651 0.47677,-0.27742 0.50617,-0.29213 0.48045,-0.2958 0.46758,-0.28294 0.49974,-0.30591 0.47677,-0.29212 0.46207,-0.2958 0.48595,-0.32153 0.46759,-0.31509 0.50984,-0.33071 0.47677,-0.33071 0.46575,-0.32519 0.48596,-0.35 0.47677,-0.33071 0.50985,-0.38491 0.48228,-0.35919 0.47126,-0.34081 0.49606,-0.38858 0.47585,-0.36929 0.46667,-0.37021 0.48689,-0.39318 0.47126,-0.37848 0.50524,-0.4189 0.48136,-0.40787 0.46667,-0.39869 0.49055,-0.42808 0.48137,-0.42349 0.46115,-0.40788 0.48228,-0.43635 0.46576,-0.43819 0.50617,-0.46758 0.47676,-0.45565 0.46117,-0.44278 0.49606,-0.47677 0.47126,-0.47677 0.50617,-0.50984 0.48596,-0.48596 0.46207,-0.48137 0.50525,-0.52454 0.47676,-0.51168 0.45656,-0.49606 0.49606,-0.53832 0.46667,-0.52546 0.50617,-0.55945 0.47493,-0.55761 0.46208,-0.53465 0.49606,-0.57874 0.47126,-0.56955 0.46667,-0.54935 0.48687,-0.59803 0.46667,-0.56771 0.49514,-0.62743 0.47678,-0.61732 0.46666,-0.58793 0.49607,-0.64672 0.47126,-0.61824 0.49606,-0.6752 0.49055,-0.66142 0.45748,-0.63661 0.50433,-0.69449 0.4731,-0.67703 0.46115,-0.6504 0.49055,-0.70551 0.46208,-0.68071 0.50157,-0.74409 0.49055,-0.71929 0.45748,-0.70368 0.49423,-0.7496 0.47677,-0.73859 0.50066,-0.80196 0.49147,-0.76798 0.45656,-0.74777 0.50157,-0.80748 0.48596,-0.7983 0.45197,-0.75787 0.49515,-0.82677 0.47217,-0.80565 0.49515,-0.86535 0.48596,-0.83688 0.46207,-0.81666 0.49606,-0.87914 0.47677,-0.86535 0.46116,-0.82677 0.48688,-0.90394 0.47126,-0.85984 0.49606,-0.94436 0.48596,-0.90945 0.45656,-0.89383 0.49147,-0.94803 0.47585,-0.92323 0.50158,-0.99672 0.48504,-0.96732 0.46666,-0.94803 0.49055,-1.00591 0.48688,-0.97651 0.45197,-0.96365 0.49606,-1.0252 0.46667,-0.9958 0.50066,-1.06929 0.48595,-1.03622 0.46759,-1.01601 0.49055,-1.0748 0.47677,-1.06378 0.49974,-1.12808 0.48688,-1.1042 0.47126,-1.06378 0.49606,-1.13819 0.48596,-1.11706 0.45197,-1.0748 0.49514,-1.15656 0.47677,-1.12257 0.49055,-1.20617 0.49147,-1.16667 0.46208,-1.13268 0.49973,-1.21995 0.47678,-1.18228 0.45197,-1.14646 0.49606,-1.22454 0.46758,-1.18688 0.49423,-1.28241 0.48228,-1.23465 0.46575,-1.20617 0.49239,-1.27874 0.47493,-1.24383 0.50158,-1.34213 0.48504,-1.28885 0.46758,-1.26312 0.49606,-1.34672 0.48045,-1.30171 0.45748,-1.26496 0.49055,-1.34672 0.47126,-1.31181 0.50617,-1.40551 0.47677,-1.35591 0.46667,-1.30722 0.49514,-1.40551 0.47677,-1.36969 0.46116,-1.31916 0.48228,-1.41378 0.46575,-1.36509 0.50158,-1.46339 0.48136,-1.41562 0.46116,-1.36509 0.48687,-1.46339 0.47677,-1.4248 0.50434,-1.51207 0.48595,-1.46706 0.46208,-1.41929 0.49606,-1.51759 0.47677,-1.47257 0.46667,-1.41562 0.48136,-1.50564 0.47126,-1.47349 0.49974,-1.55525 0.48228,-1.52126 0.46575,-1.46339 0.49239,-1.56535 0.47493,-1.50656 0.50617,-1.60945 0.48045,-1.55525 0.4731,-1.50748 0.49055,-1.60853 0.48044,-1.54606 0.46759,-1.49738 0.48044,-1.60394 0.47677,-1.54606 0.50617,-1.64803 0.48045,-1.58465 0.46758,-1.53504 0.49055,-1.63517 0.47678,-1.58465 0.45564,-1.52126 0.48688,-1.62323 0.47677,-1.56535 0.49974,-1.67283 0.48136,-1.61312 0.46299,-1.55617 0.49055,-1.65722 0.47126,-1.59016 0.50525,-1.70039 0.48137,-1.64436 0.47126,-1.58465 0.49606,-1.6811 0.47677,-1.62415 0.45565,-1.56535 0.49606,-1.66181 0.46299,-1.59475 0.50984,-1.70591 0.47678,-1.64344 0.46574,-1.58465 0.49607,-1.68294 0.47126,-1.61312 0.50617,-1.73071 0.49147,-1.66181 0.46207,-1.58465 0.49974,-1.70223 0.48136,-1.62874 0.46116,-1.56903 0.49238,-1.66732 0.47126,-1.60394 0.50525,-1.70223 0.48137,-1.64252 0.46667,-1.57454 0.49606,-1.67283 0.47585,-1.60394 0.45748,-1.54606 0.49055,-1.64252 0.47126,-1.57087 0.49607,-1.67192 0.48228,-1.59934 0.46115,-1.54606 0.49515,-1.63885 0.47218,-1.56535 0.50984,-1.66732 0.48136,-1.58832 0.46667,-1.53688 0.49606,-1.61864 0.48137,-1.55617 0.46115,-1.49646 0.49055,-1.58005 0.4731,-1.51575 0.49423,-1.60394 0.48687,-1.53688 0.46116,-1.47257 0.49606,-1.56168 0.48229,-1.49646 0.45656,-1.4248 0.48596,-1.51667 0.46758,-1.45236 0.49974,-1.52677 0.48688,-1.46339 0.45564,-1.40459 0.49239,-1.48268 0.47493,-1.4147 0.50158,-1.50197 0.48503,-1.4248 0.463,-1.37152 0.50065,-1.44226 0.47677,-1.37152 0.45565,-1.32283 0.48687,-1.39449 0.47678,-1.31732 0.49973,-1.4 0.48137,-1.33661 0.45748,-1.26864 0.49606,-1.34213 0.48596,-1.27874 0.50066,-1.34121 0.48595,-1.28793 0.46208,-1.21535 0.49974,-1.28885 0.48228,-1.21903 0.46207,-1.16759 0.48504,-1.22454 0.47677,-1.15748 0.49974,-1.22546 0.48688,-1.16115 0.46115,-1.10787 0.49607,-1.15748 0.47677,-1.1042 0.46207,-1.04449 0.48596,-1.08858 0.47126,-1.0399 0.49606,-1.09042 0.48137,-1.03438 0.45748,-0.96732 0.49606,-1.0252 0.47493,-0.96733 0.50617,-1.00774 0.49147,-0.96181 0.45656,-0.89934 0.49974,-0.94252 0.48228,-0.89016 0.45657,-0.83688 0.49147,-0.86903 0.47126,-0.821256 0.49606,-0.859843 0.49055,-0.803806 0.46207,-0.757874 0.48596,-0.788189 0.47677,-0.738583 0.46208,-0.694488 0.48595,-0.709186 0.47586,-0.677034 0.49147,-0.694488 0.47585,-0.640289 0.46667,-0.609055 0.49055,-0.627428 0.47677,-0.57874 0.49055,-0.598031 0.49239,-0.553937 0.47126,-0.515354 0.49055,-0.524541 0.48045,-0.485039 0.45748,-0.448294 0.48687,-0.455643 0.47678,-0.418898 0.49055,-0.417979 0.48595,-0.389501 0.46575,-0.35 0.48688,-0.349081 0.47677,-0.320604 0.50525,-0.316929 0.48504,-0.277428 0.4731,-0.251706 0.49422,-0.244357 0.47677,-0.213123 0.46759,-0.179134 0.48596,-0.180971 0.47126,-0.149738 0.50065,-0.136877 0.48596,-0.101969 0.46207,-0.08819 0.24252,-0.03307 0.25355,-0.03399 0.24803,-0.01929 0.22874,-0.01929 0.11115,-0.0055 0.12126,0 0.12678,-0.0101 0.068,0 0.0579,-0.0092 0.47218,0 0.12585,0.0092 0.10197,0.0101 0.25722,0.0055 0.24803,0.01929 0.21955,0.01929 0.48596,0.06706 0.46207,0.08819 0.49974,0.112073 0.47677,0.126772 0.46208,0.149738 0.48595,0.170866 0.46759,0.189239 0.49974,0.22874 0.47769,0.22874 0.46574,0.251706 0.49607,0.286614 0.47126,0.296719 0.50525,0.339895 0.48687,0.340814 0.46667,0.35 0.49606,0.403281 0.47586,0.404199 0.46666,0.407874 0.48137,0.45748 0.47677,0.466667 0.49974,0.500656 0.48688,0.519029 0.46115,0.506168 0.49606,0.574147 0.47126,0.55853 0.45748,0.568635 0.49607,0.608136 0.46574,0.622835 0.50158,0.665092 0.47585,0.671522 0.45748,0.661417 0.49607,0.719291 0.47126,0.722966 0.50524,0.779003 0.48137,0.76706 0.46667,0.768898 0.49606,0.82126 0.47585,0.815748 0.46299,0.801973 0.49056,0.87546 0.46666,0.85524 0.50066,0.92874 0.48596,0.91405 0.46207,0.89567 0.49606,0.97559 0.47126,0.94803 0.9958,2.04213 0.46759,0.98661 0.49055,1.06929 0.48045,1.04541 0.46207,1.01601 0.49147,1.10328 0.47126,1.0794 0.50617,1.15748 0.94803,2.23596 0.49606,1.18504 0.47126,1.16299 0.45564,1.13176 0.49607,1.22087 0.46207,1.18045 0.50157,1.27507 0.48504,1.24383 0.45748,1.20984 0.49607,1.29252 0.47677,1.26404 0.49422,1.35131 0.48688,1.32283 0.46667,1.27874 0.50065,1.38071 0.47678,1.32743 0.46115,1.30171 0.48688,1.38622 0.47677,1.35591 0.49423,1.43858 0.48687,1.40551 0.46116,1.3605 0.49606,1.45879 0.47677,1.41929 0.45197,1.36142 0.49055,1.46798 0.46759,1.42297 0.49974,1.5231 0.48228,1.46706 0.45656,1.4248 0.49055,1.53136 0.47677,1.47257 0.50158,1.57546 0.48045,1.52677 0.47126,1.48268 0.49055,1.57454 0.48228,1.52585 0.45656,1.47257 0.48596,1.57546 0.47677,1.52677 0.49606,1.62874 0.48137,1.56535 0.46575,1.52126 0.96273,3.18858 0.50617,1.66273 0.48595,1.61404 0.47126,1.54974 0.49055,1.65814 0.48137,1.60394 0.46299,1.53596 0.48504,1.64803 0.47677,1.58465 0.49607,1.69672 0.49055,1.62874 0.46115,1.57087 0.49239,1.671 0.48045,1.61955 0.45748,1.55525 0.48503,1.65262 0.47126,1.59934 0.49607,1.69213 0.48136,1.63701 0.46299,1.57087 0.49056,1.6811 0.47126,1.61496 0.50524,1.7105 0.48688,1.65354 0.46667,1.58832 0.49055,1.69213 0.48136,1.62874 0.46116,1.55984 0.48688,1.66365 0.47126,1.60394 0.50157,1.69213 0.47494,1.63241 0.47309,1.57546 0.49055,1.67283 0.47494,1.60394 0.50617,1.6958 0.48595,1.64252 0.47126,1.57087 0.49607,1.66732 0.47677,1.60394 0.46207,1.54606 0.49055,1.63885 0.46667,1.56535 0.50984,1.66181 0.48229,1.60394 0.46574,1.53228 0.49239,1.63701 0.48045,1.55617 0.45748,1.50197 0.48504,1.59016 0.46758,1.52677 0.50984,1.62323 0.47678,1.54974 0.46115,1.48819 0.49606,1.58465 0.47126,1.50748 0.50158,1.60394 0.48504,1.54055 0.46758,1.47349 0.49974,1.56535 0.4731,1.48635 0.46575,1.43491 0.48228,1.52126 0.47493,1.46339 0.50158,1.53596 0.48504,1.48268 0.46299,1.40459 0.49514,1.49738 0.47218,1.43491 0.45656,1.38071 0.49147,1.44777 0.46575,1.3853 0.50066,1.47257 0.47677,1.40551 0.46667,1.35039 0.49055,1.4248 0.47126,1.36601 0.50157,1.44409 0.48504,1.3752 0.4731,1.31824 0.49055,1.40459 0.48045,1.33202 0.45748,1.27323 0.48687,1.35591 0.47126,1.28885 0.49974,1.36142 0.48688,1.29803 0.45748,1.25394 0.49422,1.31181 0.4731,1.26496 0.50525,1.31732 0.49055,1.28241 0.46207,1.20617 0.49974,1.27874 0.47126,1.22454 0.46759,1.17126 0.49606,1.23465 0.46115,1.17677 0.51168,1.23924 0.48045,1.19147 0.46759,1.13727 0.49422,1.19606 0.4731,1.14186 0.46115,1.0794 0.49055,1.16115 0.46208,1.08858 0.50157,1.15748 0.48504,1.11339 0.45748,1.05459 0.49606,1.10879 0.47494,1.06378 0.49606,1.11339 0.48688,1.0601 0.46667,1.02612 0.49514,1.07388 0.48228,1.01509 0.45197,0.97835 0.49606,1.0252 0.47126,0.97743 0.49974,1.03622 0.48229,0.9765 0.46207,0.94252 0.49422,0.98662 0.47678,0.93884 0.50616,0.98662 0.49056,0.94344 0.45748,0.89842 0.49973,0.93885 0.48688,0.90393 0.45748,0.86536 0.49606,0.89934 0.47126,0.86535 0.49974,0.90394 0.48688,0.85984 0.46115,0.81759 0.50066,0.86535 0.47677,0.81667 0.45197,0.78727 0.49606,0.81667 0.47126,0.78727 0.49607,0.82677 0.48044,0.77716 0.45748,0.74961 0.49607,0.78268 0.47677,0.74777 0.50065,0.77716 0.49055,0.74961 0.46667,0.70459 0.49606,0.74777 0.48137,0.70551 0.45748,0.67152 0.49055,0.71378 0.47677,0.67612 0.49423,0.7 0.48228,0.6752 0.47126,0.64671 0.49055,0.66142 0.47677,0.63662 0.45197,0.60721 0.49607,0.63662 0.46758,0.60813 0.49423,0.62651 0.48687,0.60814 0.45748,0.56863 0.49056,0.60814 0.47677,0.56863 0.49974,0.59804 0.48136,0.56404 0.47126,0.54015 0.49606,0.56772 0.47678,0.54016 0.46115,0.51535 0.48688,0.53005 0.47126,0.51444 0.49974,0.52087 0.48228,0.51535 0.46575,0.48045 0.48687,0.49606 0.47678,0.48136 0.50524,0.50525 0.48688,0.47678 0.47126,0.44278 0.49606,0.47493 0.47494,0.4483 0.46758,0.42808 0.48596,0.44646 0.47126,0.41798 0.50066,0.44186 0.49147,0.4189 0.46207,0.39869 0.49055,0.40787 0.48045,0.39961 0.46299,0.36929 0.48136,0.40236 0.47126,0.37021 0.49607,0.38858 0.48044,0.36929 0.46759,0.34082 0.48596,0.36929 0.47585,0.3454 0.51076,0.3693 0.48137,0.34081 0.47126,0.3252 0.97283,0.65131 0.45564,0.3059 0.49239,0.32153 0.47126,0.3059 0.50525,0.31142 0.47585,0.2958 0.46667,0.28294 0.49606,0.2958 0.47678,0.28662 0.45656,0.26181 0.48044,0.27834 0.4731,0.26181 0.49974,0.26733 0.48136,0.26732 0.45748,0.23884 0.49607,0.26182 0.47126,0.24803 m -0.006,0 0.51076,0.24803 0.47585,0.23792 0.47218,0.22874 0.49606,0.23334 0.47585,0.22874 0.45748,0.20945 0.49055,0.21863 0.47126,0.20853 0.50158,0.21864 0.47493,0.20945 0.463,0.19842 0.49514,0.20026 0.47218,0.18832 0.50617,0.20026 0.48503,0.19016 0.47126,0.17914 0.49147,0.19015 0.48137,0.17454 0.46115,0.16995 0.49056,0.17087 0.47309,0.16903 0.49974,0.17086 0.48137,0.15985 0.46666,0.15616 0.50066,0.16076 0.47126,0.15066 0.45748,0.14055 0.48596,0.14606 0.46758,0.14056 0.49974,0.14055 0.48688,0.14606 0.45564,0.13228 0.49606,0.13045 0.47126,0.13688 0.50617,0.13044 0.48045,0.12126 0.46758,0.11759 0.50158,0.12126 0.47493,0.11666 0.46207,0.11208 0.48596,0.11574 0.47126,0.113 0.50158,0.11115 0.48136,0.10656 0.46116,0.0919 0.49606,0.10748 0.47677,0.10197 0.50617,0.10748 0.49055,0.0928 0.45564,0.0863 0.50158,0.0983 0.48688,0.0827 0.45564,0.0863 0.49606,0.0928 0.47126,0.0781 0.50158,0.0827 0.48136,0.0772 0.46575,0.0882 0.49606,0.0735 0.48229,0.0772 0.45196,0.0671 0.49056,0.0735 0.46666,0.0689 0.50617,0.0726 0.48045,0.068 0.45656,0.0579 0.49606,0.0689 0.47677,0.0634 0.49607,0.0579 0.49055,0.0671 0.46115,0.0542 0.50158,0.0588 0.47585,0.0579 0.46116,0.0542 0.48687,0.0579 0.47677,0.0478 0.49974,0.0579 0.48688,0.0441 0.45748,0.0496 0.49606,0.0487 0.47494,0.0478 0.46207,0.0441 0.48596,0.0386 0.47126,0.0386 0.49606,0.0597 0.48137,0.0386 0.45748,0.0331 0.49055,0.0395 0.47677,0.0386 0.50525,0.0386 0.48136,0.0386 0.47126,0.0404 0.48596,0.0331 0.48688,0.0303 0.45748,0.0386 0.49055,0.0285 0.46667,0.0294 0.49514,0.0386 0.48596,0.0248 0.46758,0.0285 0.49055,0.0294 0.47678,0.0285 0.49973,0.0303 0.49055,0.0294 0.463,0.0285 0.49606,0.0156 0.48504,0.0285 0.46207,0.0193 0.48596,0.0294 0.47677,0.0193 0.49606,0.0285 0.48688,0.0211 0.46575,0.0175 0.49606,0.0156 0.47677,0.0285 0.45565,0.0193 0.48228,0.0193 0.47585,0.0193 0.50158,0.011 0.48044,0.0193 0.46208,0.0193 0.49055,0.0193 0.47218,0.0193 0.50616,0.0101 0.48504,0.0193 0.46667,0.009 0.49055,0.0156 0.48137,0.0193 0.46299,0.0193 0.48504,0.009 0.47218,0.0101 0.50433,0.009 0.48228,0.0193 0.46207,0.0101 0.49055,0.009 0.47678,0.011 0.51535,0.0193 0.48045,0.0101 0.47126,0.009 0.49238,0.0101 0.48045,0.009 0.46207,0.0101 0.49055,0.006 0.47678,0.008 0.98661,0.0202 0.46115,0.0101 0.49607,0.009 0.47677,0.0101 0.45656,0"
     style="fill:#ffffff;fill-opacity:1;fill-rule:nonzero;stroke:#28166f;stroke-width:6.4818902;stroke-linecap:round;stroke-linejoin:round"
     inkscape:connector-curvature="0" /></svg>