<?xml version="1.0" encoding="UTF-8" standalone="no"?>
<!-- Created with Inkscape (http://www.inkscape.org/) -->

<svg
   xmlns:dc="http://purl.org/dc/elements/1.1/"
   xmlns:cc="http://creativecommons.org/ns#"
   xmlns:rdf="http://www.w3.org/1999/02/22-rdf-syntax-ns#"
   xmlns:svg="http://www.w3.org/2000/svg"
   xmlns="http://www.w3.org/2000/svg"
   xmlns:sodipodi="http://sodipodi.sourceforge.net/DTD/sodipodi-0.dtd"
   xmlns:inkscape="http://www.inkscape.org/namespaces/inkscape"
   id="svg4496"
   version="1.1"
   inkscape:version="0.91 r13725"
   width="5cm"
   height="5cm"
   viewBox="0 0 177.16536 177.16536"
   sodipodi:docname="stellarmate_logo_vector_no_text.svg"
   inkscape:export-filename="/movies/Dropbox/Documents/StellarMate/icon_1024.png"
   inkscape:export-xdpi="520.19196"
   inkscape:export-ydpi="520.19196">
  <metadata
     id="metadata4502">
    <rdf:RDF>
      <cc:Work
         rdf:about="">
        <dc:format>image/svg+xml</dc:format>
        <dc:type
           rdf:resource="http://purl.org/dc/dcmitype/StillImage" />
        <dc:title></dc:title>
      </cc:Work>
    </rdf:RDF>
  </metadata>
  <defs
     id="defs4500" />
  <sodipodi:namedview
     pagecolor="#ffffff"
     bordercolor="#666666"
     borderopacity="1"
     objecttolerance="10"
     gridtolerance="10"
     guidetolerance="10"
     inkscape:pageopacity="0"
     inkscape:pageshadow="2"
     inkscape:window-width="1920"
     inkscape:window-height="1023"
     id="namedview4498"
     showgrid="false"
     inkscape:document-units="px"
     units="cm"
     fit-margin-top="0"
     fit-margin-left="0"
     fit-margin-right="0"
     fit-margin-bottom="0"
     inkscape:zoom="3.4162163"
     inkscape:cx="41.210182"
     inkscape:cy="96.98795"
     inkscape:window-x="3916"
     inkscape:window-y="0"
     inkscape:window-maximized="1"
     inkscape:current-layer="svg4496" />
  <g
     id="g4690"
     transform="matrix(0.73360729,0,0,0.75829143,-5.7953594,-9.5225769)">
    <path
       id="path4524"
       d="m 121.62658,239.57198 c -11.28112,-1.14443 -19.93103,-2.99656 -27.951948,-5.9851 -22.933045,-8.54469 -41.391712,-25.18185 -50.337292,-45.36999 -8.37033,-18.88992 -9.130983,-38.49905 -2.230812,-57.50867 2.432703,-6.70197 7.771695,-16.03396 12.781266,-22.3403 2.682885,-3.37737 11.408391,-12.13138 14.188788,-14.235152 1.773063,-1.34157 1.607715,-1.1238 -1.822284,2.400002 -5.476815,5.62661 -8.899947,10.24435 -12.658014,17.07546 -4.328355,7.86771 -7.662024,17.66009 -9.089613,26.69999 -0.745872,4.72309 -0.902496,14.77175 -0.306273,19.65 1.093419,8.94627 3.550983,17.08258 7.678359,25.42093 4.66023,9.41486 10.417122,17.42528 17.844033,24.82907 10.157388,10.12577 22.140202,17.43787 36.15379,22.0616 10.52476,3.47261 19.40467,4.97652 31.2,5.28407 9.83745,0.2565 18.07766,-0.5078 26.22178,-2.43213 1.7981,-0.42487 3.32388,-0.71788 3.39061,-0.65115 0.1943,0.1943 -9.58413,2.50493 -14.01239,3.31111 -7.56409,1.37708 -11.662,1.73321 -21,1.825 -4.8675,0.0479 -9.39,0.0322 -10.05,-0.0347 z"
       style="fill:#d45500"
       inkscape:connector-curvature="0" />
    <path
       id="path4522"
       d="m 132.87658,227.55309 c -14.71402,-0.8395 -29.9625,-5.85471 -42.299998,-13.91242 -16.888197,-11.02981 -28.45962,-26.86309 -33.186228,-45.40899 -5.103678,-20.02542 -2.076867,-39.29252 8.960865,-57.04017 5.94825,-9.56424 13.62708,-17.471892 21.703584,-22.350332 13.410047,-8.10005 30.010327,-10.771124 44.371777,-7.139654 12.45094,3.148374 22.6056,11.991254 26.13248,22.756706 0.79147,2.41587 0.83552,2.84193 0.83737,8.1 0.002,5.0876 -0.0654,5.79994 -0.80622,8.55 -1.03107,3.82743 -3.80207,9.41198 -6.34166,12.7807 -3.9417,5.22861 -10.36492,10.59985 -16.16059,13.51385 -9.09586,4.57331 -20.2559,5.44329 -24.19339,1.88601 -2.63662,-2.38203 -3.33019,-6.98434 -1.73288,-11.49884 2.50934,-7.09219 8.95534,-13.57778 15.08058,-15.17321 2.35051,-0.61223 3.8162,-0.5813 4.65539,0.0982 0.62933,0.5096 0.65481,0.63577 0.30096,1.49005 -0.21263,0.51332 -0.57457,1.08932 -0.80432,1.27999 -0.3349,0.27795 -0.41772,0.21897 -0.41772,-0.29748 0,-0.84134 -1.25686,-1.32312 -2.78027,-1.06574 -2.12207,0.35852 -5.22725,2.17419 -7.42486,4.3415 -4.16323,4.1058 -6.15034,8.5501 -5.95119,13.3102 0.11425,2.73084 0.48847,3.56024 2.17299,4.8162 0.74468,0.55522 1.23411,0.6158 4.78146,0.59181 4.65298,-0.0315 7.37833,-0.71346 12.35187,-3.09094 8.56443,-4.09401 15.7355,-12.6074 18.65128,-22.14252 0.71943,-2.35266 0.80856,-3.12932 0.81937,-7.13981 0.0111,-4.12172 -0.0566,-4.70505 -0.80598,-6.93916 -1.05211,-3.13676 -3.15477,-6.31195 -5.9469,-8.98032 -2.69232,-2.57299 -4.29744,-3.689072 -7.53995,-5.242712 -4.05363,-1.9423 -7.6512,-2.72762 -13.32719,-2.9092 -3.02427,-0.0968 -5.79051,-0.02 -7.35,0.20385 -22.078029,3.16943 -39.505796,19.958902 -44.393471,42.767532 -0.629199,2.9362 -0.707157,4.07721 -0.707157,10.35 0,6.17991 0.08562,7.47277 0.69372,10.4755 3.498792,17.27654 15.039735,34.19021 30.506278,44.70807 24.02605,16.33865 56.94816,18.02175 84.26761,4.30806 18.85509,-9.46479 36.16971,-27.19062 45.95035,-47.04163 2.70235,-5.48474 4.24735,-9.71965 5.19878,-14.25 0.5767,-2.74607 0.59289,-2.77889 0.44406,-0.9 -0.28241,3.56536 -1.35596,9.40601 -2.38857,12.99503 -6.26423,21.77252 -23.83325,44.64512 -43.96046,57.23084 -4.36284,2.72812 -14.91675,7.9181 -19.75719,9.71578 -13.10404,4.86666 -26.58901,6.99582 -39.60458,6.25322 z"
       style="fill:#d45500"
       inkscape:connector-curvature="0" />
    <path
       id="path4520"
       d="m 124.0172,183.30228 c -14.17678,-0.74684 -27.082459,-7.36369 -33.985078,-17.42444 -8.019472,-11.6886 -8.640595,-26.03659 -1.680793,-38.82653 3.908233,-7.18212 10.633822,-13.68493 18.275251,-17.66992 2.96146,-1.5444 3.02986,-1.46796 0.30161,0.33703 -4.05367,2.68188 -8.976779,8.14089 -12.229229,13.56041 -6.747919,11.24403 -8.118019,25.71999 -3.400659,35.9301 5.127619,11.09806 17.050138,19.54153 31.542508,22.33827 4.3225,0.83416 9.77869,1.27089 13.63577,1.09145 2.64753,-0.12318 2.8868,-0.10057 1.5,0.14171 -2.72935,0.47682 -9.79836,0.74112 -13.95938,0.52192 z"
       style="fill:#d45500"
       inkscape:connector-curvature="0" />
    <path
       id="path4518"
       d="m 140.15729,182.25033 c 0.29189,-0.0761 0.69689,-0.0711 0.9,0.0111 0.20311,0.0822 -0.0357,0.14441 -0.53071,0.13829 -0.495,-0.006 -0.66118,-0.0734 -0.36929,-0.14941 z"
       style="fill:#d45500"
       inkscape:connector-curvature="0" />
    <path
       id="path4516"
       d="m 131.07658,175.08466 c -0.4125,-0.0706 -1.7625,-0.27349 -3,-0.45091 -7.86066,-1.127 -14.7591,-4.17039 -20.71712,-9.13981 -9.830489,-8.19934 -13.409118,-19.35036 -10.066259,-31.36651 2.738459,-9.84359 9.769389,-18.63954 19.683379,-24.6246 7.88514,-4.76025 18.06706,-6.81801 24.25276,-4.90146 5.34416,1.6558 6.80532,8.60011 3.28056,15.59117 -3.6234,7.18669 -9.93341,12.3623 -15.791,12.95212 -3.03987,0.3061 -4.0897,-0.69701 -2.7909,-2.6667 l 0.54748,-0.83026 0.33133,0.72721 c 1.04869,2.30162 6.52781,0.34404 10.48749,-3.74697 2.20282,-2.27589 3.01063,-3.41304 4.13422,-5.81971 2.16016,-4.62697 2.20523,-9.21025 0.11248,-11.43787 -0.9714,-1.03401 -2.89919,-1.40936 -6.34046,-1.2345 -3.89162,0.19774 -7.38545,1.19178 -11.77396,3.34982 -3.96335,1.94897 -6.3942,3.74684 -9.60764,7.10584 -9.06526,9.47592 -12.2395,21.88626 -7.95087,31.08557 3.04716,6.53631 9.93998,11.95601 17.81418,14.00698 3.43775,0.89542 6.49862,1.15854 11.41186,0.98097 7.28287,-0.2632 12.8487,-1.71738 19.83247,-5.18158 12.32334,-6.11282 22.05945,-17.31491 26.6862,-30.70439 3.13912,-9.08436 3.71661,-19.55668 1.61947,-29.36777 -3.25443,-15.225227 -13.5661,-30.781727 -27.25567,-41.118733 -9.76012,-7.369875 -21.88322,-12.528828 -34.2,-14.553717 -10.69069,-1.757556 -23.270759,-1.32744 -33.723859,1.153026 -15.718674,3.72996 -30.057219,11.695911 -42.762684,23.757326 -14.009958,13.29978 -25.347462,31.682028 -27.729099,44.959028 -0.560293,3.12348 -0.592079,1.48933 -0.0496,-2.55 1.600533,-11.91771 6.371103,-23.780432 14.417013,-35.850005 7.905,-11.858196 18.568956,-22.740701 29.098233,-29.694584 14.114187,-9.32147 29.26628,-15.018188 45.599996,-17.144183 5.45159,-0.709578 16.62322,-0.707808 21.9,0.0035 13.76362,1.855251 26.3389,6.497925 37.19974,13.733786 5.21763,3.476163 8.28645,5.979162 12.62299,10.295586 12.30981,12.25271 19.59301,27.028553 21.86473,44.35819 0.58264,4.44466 0.59695,13.65969 0.0278,17.89774 -2.1923,16.32401 -10.5079,32.52253 -22.71735,44.25265 -8.48202,8.14902 -18.97349,13.45375 -30.8479,15.59741 -2.71179,0.48956 -13.72858,0.8966 -15.6,0.57638 z"
       style="fill:#d45500"
       inkscape:connector-curvature="0" />
    <path
       id="path4514"
       d="m 188.95373,159.66489 c 11.93183,-11.99356 19.68243,-27.65306 22.42431,-45.30666 0.74822,-4.81738 0.75027,-15.85942 0.004,-20.700002 -1.91574,-12.422718 -6.18448,-23.09433 -13.74046,-34.350002 -3.51492,-5.23596 -5.9722,-8.258367 -10.45489,-12.859311 -11.22202,-11.518061 -24.31637,-19.391634 -40.21011,-24.178165 -10.0655,-3.031306 -19.42313,-4.340325 -31.05,-4.343515 -8.19265,-0.0023 -11.75136,0.262201 -17.999999,1.337591 -5.274049,0.907661 -5.563919,0.940687 -3.899999,0.44434 2.612419,-0.779286 9.742388,-2.189674 14.249998,-2.818811 12.68865,-1.770984 26.10939,-1.559955 37.65,0.592011 25.34322,4.725724 47.33713,18.902219 60.74612,39.154792 5.85488,8.843039 10.28092,20.667263 12.061,32.221066 0.62554,4.060124 0.52821,17.040196 -0.15859,21.150006 -1.3351,7.9892 -3.79166,15.47331 -7.46524,22.74348 -2.26963,4.49169 -6.45255,10.97517 -9.52995,14.77129 -3.64748,4.49933 -10.2875,10.99056 -15.15334,14.81379 -0.33,0.25929 0.80722,-0.94307 2.52715,-2.6719 z"
       style="fill:#000000"
       inkscape:connector-curvature="0" />
    <path
       id="path4512"
       d="m 146.07658,147.57363 c 0.0825,-0.0856 1.23,-0.87006 2.55,-1.74315 3.00081,-1.98484 7.81792,-6.80476 10.25352,-10.25951 7.53639,-10.68991 10.2927,-24.27676 7.13528,-35.17235 -1.57162,-5.423332 -4.61476,-10.305942 -9.1077,-14.612959 -7.68942,-7.371213 -18.25477,-11.782563 -30.7811,-12.852024 -2.145,-0.183132 -5.1825,-0.262026 -6.75,-0.17532 l -2.85,0.157647 2.7,-0.439509 c 3.79355,-0.617517 12.92212,-0.616896 16.95,0.0012 18.81146,2.886489 32.06203,14.400897 35.39532,30.757635 0.74456,3.65364 0.80495,9.29593 0.14029,13.10737 -2.20335,12.63496 -11.17579,24.06303 -23.9005,30.44174 -1.03681,0.51974 -1.81761,0.87491 -1.73511,0.78927 z"
       style="fill:#000000"
       inkscape:connector-curvature="0" />
    <path
       id="path4510"
       d="m 126.61169,128.39441 c -0.36379,-0.9834 -0.0608,-1.7183 0.79717,-1.93364 0.94408,-0.23695 1.68685,0.20059 1.81575,1.06961 0.1361,0.91756 -0.46084,1.52784 -1.49443,1.52784 -0.62692,0 -0.94214,-0.18707 -1.11849,-0.66381 z"
       style="fill:#d45500"
       inkscape:connector-curvature="0" />
    <path
       id="path4506"
       d="m 91.720332,20.253293 c 0.21656,-0.08666 0.47531,-0.076 0.575,0.02368 0.0997,0.09969 -0.0775,0.170592 -0.39375,0.157566 -0.34948,-0.01439 -0.42057,-0.08548 -0.18125,-0.18125 z"
       style="fill:#d45500"
       inkscape:connector-curvature="0" />
  </g>
</svg>
