<?xml version="1.0" encoding="UTF-8" standalone="no"?>
<svg
   xmlns:dc="http://purl.org/dc/elements/1.1/"
   xmlns:cc="http://creativecommons.org/ns#"
   xmlns:rdf="http://www.w3.org/1999/02/22-rdf-syntax-ns#"
   xmlns:svg="http://www.w3.org/2000/svg"
   xmlns="http://www.w3.org/2000/svg"
   xmlns:sodipodi="http://sodipodi.sourceforge.net/DTD/sodipodi-0.dtd"
   xmlns:inkscape="http://www.inkscape.org/namespaces/inkscape"
   class="icon"
   height="512"
   viewBox="0 0 1024 1024"
   version="1.1"
   id="svg8"
   sodipodi:docname="timedout.svg"
   inkscape:version="0.92.3 (2405546, 2018-03-11)">
  <metadata
     id="metadata14">
    <rdf:RDF>
      <cc:Work
         rdf:about="">
        <dc:format>image/svg+xml</dc:format>
        <dc:type
           rdf:resource="http://purl.org/dc/dcmitype/StillImage" />
      </cc:Work>
    </rdf:RDF>
  </metadata>
  <defs
     id="defs12" />
  <sodipodi:namedview
     pagecolor="#ffffff"
     bordercolor="#666666"
     borderopacity="1"
     objecttolerance="10"
     gridtolerance="10"
     guidetolerance="10"
     inkscape:pageopacity="0"
     inkscape:pageshadow="2"
     inkscape:window-width="1920"
     inkscape:window-height="1055"
     id="namedview10"
     showgrid="false"
     inkscape:zoom="0.23046875"
     inkscape:cx="512"
     inkscape:cy="256"
     inkscape:window-x="0"
     inkscape:window-y="0"
     inkscape:window-maximized="1"
     inkscape:current-layer="svg8" />
  <path
     d="M486.4 280.00256V512H254.40256c-22.4 0-40.00256 17.60256-40.00256 40.00256s17.60256 40.00256 40.00256 40.00256h272c22.4 0 40.00256-17.60256 40.00256-40.00256V280.00256c0-22.4-17.60256-40.00256-40.00256-40.00256S486.4 257.60256 486.4 280.00256z"
     fill="#515151"
     id="path2"
     style="fill:#ff0000" />
  <path
     d="M643.77344 882.24768a401.28 401.28 0 0 1-153.53344 30.39232c-222.32576 0-402.56-180.23424-402.56-402.56C87.68 287.74912 267.91424 107.52 490.24 107.52s402.56 180.22912 402.56 402.56c0 18.01216-1.3056 35.712-3.59424 53.0944a216.6784 216.6784 0 0 1 72.84736 35.47648 482.14528 482.14528 0 0 0 8.192-88.57088c0-265.09824-214.90688-480-480-480S10.24 244.98176 10.24 510.08c0 265.09312 214.90688 480 480 480 73.92256 0 143.93856-16.73216 206.4896-46.58176a218.5216 218.5216 0 0 1-52.95616-61.25056z"
     fill="#515151"
     id="path4"
     style="fill:#ff0000" />
  <path
     d="M833.28 596.48c-98.26304 0-177.92 79.65696-177.92 177.92S735.01696 952.32 833.28 952.32s177.92-79.65696 177.92-177.92-79.65696-177.92-177.92-177.92z m27.0848 307.18464c-3.29728 5.49888-7.14752 9.52832-11.5456 12.09856-4.39808 2.55488-9.34912 3.65568-14.84288 3.29728-5.86752 0-11.08992-1.28512-15.67744-3.84512-4.59264-2.57024-8.1664-6.3232-10.7264-11.26912a33.69472 33.69472 0 0 1-3.84512-15.67744c0-5.14048 1.28512-10.09152 3.84512-14.84288a24.91904 24.91904 0 0 1 10.99776-10.72128 39.91552 39.91552 0 0 1 15.40096-4.12672c5.49376 0 10.4448 1.28512 14.84288 3.84512 4.39296 2.57536 8.05888 6.3232 10.99776 11.26912 2.92352 4.95616 4.47488 9.90208 4.66944 14.848 0.19456 4.95616-1.18272 9.98912-4.11648 15.12448z m8.71424-218.73152l-17.23904 132.94592c-0.89088 4.41856-2.7648 8.7296-5.63712 12.928-2.87744 4.20352-7.18336 6.07744-12.92288 5.63712-4.86912 0-8.84736-1.87904-11.93472-5.63712a23.0656 23.0656 0 0 1-5.2992-12.928l-16.56832-132.94592c-1.3312-7.0656-1.11104-13.2608 0.66048-18.56512 1.75616-5.30432 5.52448-10.27584 11.264-14.91456s13.03552-7.17824 21.87776-7.62368a38.7072 38.7072 0 0 1 21.87776 6.6304c6.62528 4.41856 10.82368 9.61024 12.59008 15.58016 1.76128 5.9648 2.21184 12.25728 1.3312 18.8928z"
     fill="#515151"
     id="path6" />
</svg>
