<svg fill="#CECECE" version="1.1" xmlns="http://www.w3.org/2000/svg" xmlns:xlink="http://www.w3.org/1999/xlink" width="60" height="60" viewBox="0 0 471.829 471.829" xml:space="preserve"><g><path d="M319.089,27.221h-36.475V0h-95.27v27.221h-34.607c-22.517,0-40.829,18.317-40.829,40.832v362.946 c0,22.51,18.317,40.83,40.829,40.83h166.352c22.524,0,40.832-18.32,40.832-40.83V68.052 C359.921,45.538,341.613,27.221,319.089,27.221z M332.705,431.002c0,7.501-6.108,13.607-13.616,13.607H152.737 c-7.501,0-13.608-6.095-13.608-13.607V68.052c0-7.501,6.107-13.611,13.608-13.611h166.352c7.508,0,13.616,6.109,13.616,13.611 V431.002z M317.862,428.5H153.966v-59.719h163.896V428.5z M317.862,354.071H153.966v-59.716h163.896V354.071z M317.862,279.64 H153.966v-59.72h163.896V279.64z"></path></g></svg>