<svg width="60" height="60" viewBox="0 0 25 25" fill="#CECECE" xmlns="http://www.w3.org/2000/svg"><g clip-path="url(#clip0_1292_4966)"><path d="M12.5469 24.1619C18.9594 24.1619 24.1719 18.9494 24.1719 12.5369C24.1719 6.12437 18.9594 0.911865 12.5469 0.911865C6.13438 0.911865 0.921875 6.12437 0.921875 12.5369C0.921875 18.9494 6.13438 24.1619 12.5469 24.1619ZM9.92188 12.5369C9.92188 11.8319 10.1919 11.1794 10.6944 10.6768C11.1894 10.1819 11.8494 9.91187 12.5469 9.91187C13.2444 9.91187 13.9044 10.1819 14.3994 10.6843C14.9019 11.1794 15.1719 11.8319 15.1719 12.5369C15.1719 13.2419 14.9019 13.8944 14.3994 14.3969C13.4094 15.3869 11.6844 15.3869 10.6944 14.3969C10.6944 14.3969 10.6944 14.3969 10.6944 14.3893C10.1919 13.8944 9.92188 13.2419 9.92188 12.5369ZM12.5469 3.16187C16.0869 3.16187 19.1694 5.13437 20.7669 8.02936L17.3094 11.4869C17.1069 10.5868 16.6644 9.76186 15.9969 9.08684L10.3419 3.43186C11.0469 3.25937 11.7819 3.16187 12.5469 3.16187ZM7.78439 13.5868C7.98686 14.4868 8.42938 15.3119 9.09689 15.9868C9.10435 15.9868 9.10435 15.9868 9.10435 15.9868L14.7519 21.6419C14.0469 21.8144 13.3119 21.9119 12.5469 21.9119C9.0069 21.9119 5.92436 19.9394 4.32686 17.0444L7.78439 13.5868Z"></path></g><defs><clipPath id="clip0_1292_4966"><rect width="24" height="24" fill="white" transform="translate(0.546875 0.536865)"></rect></clipPath></defs></svg>