<svg fill="#CECECE" height="60" width="60" version="1.1" xmlns="http://www.w3.org/2000/svg" xmlns:xlink="http://www.w3.org/1999/xlink" viewBox="0 0 512 512" xml:space="preserve"><g><g><circle cx="256" cy="329.574" r="25.005"></circle></g></g><g><g><circle cx="165.65" cy="329.574" r="25.005"></circle></g></g><g><g><circle cx="346.35" cy="329.574" r="25.005"></circle></g></g><g><g><path d="M465.047,475.559v-92.542h-35.49V276.124h17.629v-35.721h-18.544c-3.195-31.111-14.649-59.806-32.117-83.868 l43.306-43.306l17.353,17.353l25.258-25.258L377.841,0.72l-25.258,25.258l17.353,17.353l-52.582,52.584 C298.267,88.678,277.591,84.704,256,84.704c-89.67,0-163.674,68.357-172.644,155.698H64.813v35.721h17.629v106.893h-35.49v92.543 H0v35.721h512v-35.721H465.047z M395.195,68.591l19.38,19.38l-41.905,41.905c-6.811-6.195-14.12-11.847-21.85-16.909 L395.195,68.591z M256,120.426c69.952,0,127.896,52.38,136.681,119.977H119.319C128.104,172.806,186.048,120.426,256,120.426z M118.164,276.124h275.673v106.893H118.164V276.124z M429.327,475.56H82.674v-56.823h346.654V475.56z"></path></g></g></svg>