<svg width="60" height="60" viewBox="0 0 25 25" fill="#CECECE" xmlns="http://www.w3.org/2000/svg"><g clip-path="url(#clip0_1292_4672)"><path d="M22.3384 10.6619C22.3395 8.9371 21.9 7.24065 21.0615 5.7334C20.2231 4.22615 19.0135 2.95807 17.5475 2.04941C16.0815 1.14076 14.4077 0.621661 12.6848 0.541349C10.962 0.461037 9.24712 0.822174 7.70295 1.59051C6.15879 2.35885 4.83649 3.50891 3.86147 4.93162C2.88645 6.35434 2.29103 8.00255 2.13169 9.71993C1.97234 11.4373 2.25434 13.1669 2.95095 14.7447C3.64757 16.3226 4.73569 17.6963 6.11213 18.7356C5.4489 19.5488 5.08722 20.5663 5.08838 21.6156V23.7869C5.08838 23.9858 5.1674 24.1765 5.30805 24.3172C5.4487 24.4578 5.63947 24.5369 5.83838 24.5369H18.5884C18.7873 24.5369 18.9781 24.4578 19.1187 24.3172C19.2594 24.1765 19.3384 23.9858 19.3384 23.7869V21.6156C19.3395 20.5663 18.9779 19.5488 18.3146 18.7356C19.5637 17.7924 20.5772 16.5725 21.2753 15.1716C21.9735 13.7707 22.3374 12.2271 22.3384 10.6619ZM17.8384 23.0369H6.58838V21.6156C6.58915 20.8546 6.87246 20.1209 7.38338 19.5569C8.86533 20.3639 10.5259 20.7868 12.2134 20.7868C13.9009 20.7868 15.5614 20.3639 17.0434 19.5569C17.5543 20.1209 17.8376 20.8546 17.8384 21.6156V23.0369ZM12.2134 19.2869C10.5075 19.2869 8.83996 18.781 7.42159 17.8333C6.00321 16.8856 4.89772 15.5385 4.24492 13.9625C3.59211 12.3865 3.42131 10.6523 3.75411 8.97921C4.0869 7.30612 4.90836 5.76929 6.11458 4.56306C7.32081 3.35684 8.85764 2.53539 10.5307 2.20259C12.2038 1.86979 13.938 2.04059 15.514 2.6934C17.09 3.34621 18.4371 4.45169 19.3848 5.87007C20.3325 7.28844 20.8384 8.956 20.8384 10.6619C20.8384 12.9494 19.9297 15.1432 18.3122 16.7607C16.6947 18.3782 14.5009 19.2869 12.2134 19.2869Z"></path><path d="M19.2035 8.41187C19.1587 8.27497 19.0754 8.15386 18.9636 8.06302C18.8518 7.97219 18.7162 7.91547 18.5731 7.89965C18.4299 7.88383 18.2852 7.90958 18.1562 7.97381C18.0273 8.03805 17.9196 8.13805 17.846 8.26187C17.6483 8.59666 17.3787 8.88335 17.0566 9.10122C16.7346 9.31908 16.3682 9.4627 15.9839 9.52167C15.5996 9.58064 15.2069 9.55351 14.8344 9.44222C14.4619 9.33094 14.1187 9.13829 13.8297 8.87819C13.5407 8.61809 13.3131 8.29703 13.1633 7.93823C13.0135 7.57943 12.9453 7.19183 12.9636 6.80345C12.9819 6.41507 13.0863 6.03561 13.2692 5.69248C13.452 5.34936 13.7088 5.05114 14.021 4.81937C14.1404 4.73313 14.2317 4.61366 14.2836 4.47585C14.3355 4.33805 14.3457 4.18801 14.3129 4.04445C14.2801 3.90089 14.2058 3.77016 14.0992 3.66856C13.9926 3.56696 13.8585 3.49899 13.7135 3.47312C12.1324 3.14276 10.4864 3.34272 9.03042 4.04205C7.57439 4.74139 6.38944 5.90112 5.65894 7.34176C4.92844 8.78241 4.69311 10.4237 4.98938 12.0115C5.28565 13.5994 6.097 15.0453 7.29786 16.1256C8.49872 17.2059 10.0222 17.8603 11.6324 17.9875C13.2427 18.1147 14.8499 17.7077 16.2056 16.8294C17.5612 15.9511 18.5895 14.6505 19.1314 13.1288C19.6734 11.6072 19.6987 9.94936 19.2035 8.41187Z"></path></g><defs><clipPath id="clip0_1292_4672"><rect width="24" height="24" fill="white" transform="translate(0.213379 0.536865)"></rect></clipPath></defs></svg>