<svg width="60" height="60" viewBox="0 0 25 25" fill="#CECECE" xmlns="http://www.w3.org/2000/svg"><g clip-path="url(#clip0_1292_11459)"><path d="M11.2132 4.60685V2.58685C9.20318 2.78685 7.37318 3.58685 5.88818 4.79685L7.31318 6.22185C8.42318 5.36685 9.75318 4.78685 11.2132 4.60685ZM18.5382 4.79685C17.0197 3.55159 15.1672 2.78273 13.2132 2.58685V4.60685C14.6732 4.79185 16.0032 5.36685 17.1132 6.22685L18.5382 4.79685ZM20.1432 11.5369H22.1632C21.9632 9.52685 21.1632 7.69685 19.9532 6.21185L18.5282 7.63685C19.3832 8.74685 19.9632 10.0769 20.1432 11.5369ZM5.90318 7.63685L4.47818 6.21185C3.26318 7.69685 2.46318 9.52685 2.26318 11.5369H4.28318C4.46818 10.0769 5.04318 8.74685 5.90318 7.63685ZM4.28318 13.5369H2.26318C2.46318 15.5469 3.26318 17.3769 4.47318 18.8619L5.89818 17.4369C5.02246 16.3037 4.46496 14.9574 4.28318 13.5369ZM15.2132 12.5369C15.2132 10.8819 13.8682 9.53685 12.2132 9.53685C10.5582 9.53685 9.21318 10.8819 9.21318 12.5369C9.21318 14.1919 10.5582 15.5369 12.2132 15.5369C13.8682 15.5369 15.2132 14.1919 15.2132 12.5369ZM18.5232 17.4319L19.9482 18.8569C21.1632 17.3769 21.9632 15.5469 22.1632 13.5369H20.1432C19.9632 14.9919 19.3832 16.3269 18.5232 17.4319ZM13.2132 20.4669V22.4869C15.2232 22.2869 17.0532 21.4869 18.5382 20.2769L17.1132 18.8519C15.9805 19.7284 14.634 20.286 13.2132 20.4669ZM5.88818 20.2769C7.37318 21.4869 9.20318 22.2869 11.2132 22.4869V20.4669C9.75318 20.2819 8.42318 19.7069 7.31318 18.8469L5.88818 20.2769Z"></path></g><defs><clipPath id="clip0_1292_11459"><rect width="24" height="24" fill="white" transform="translate(0.213379 0.536865)"></rect></clipPath></defs></svg>