<svg width="60" height="60" viewBox="0 0 17 17" fill="#CECECE" xmlns="http://www.w3.org/2000/svg"><path d="M8.24512 5.94131C7.77044 5.94131 7.30643 6.08207 6.91175 6.34578C6.51707 6.6095 6.20946 6.98433 6.02781 7.42287C5.84616 7.86141 5.79863 8.34397 5.89123 8.80953C5.98384 9.27508 6.21241 9.70272 6.54806 10.0384C6.88371 10.374 7.31135 10.6026 7.7769 10.6952C8.24246 10.7878 8.72501 10.7403 9.16356 10.5586C9.6021 10.377 9.97693 10.0694 10.2406 9.67468C10.5044 9.28 10.6451 8.81598 10.6451 8.34131C10.6451 7.70479 10.3923 7.09434 9.94217 6.64425C9.49209 6.19416 8.88164 5.94131 8.24512 5.94131ZM8.24512 9.14131C8.08689 9.14131 7.93222 9.09439 7.80066 9.00648C7.6691 8.91858 7.56656 8.79364 7.50601 8.64746C7.44546 8.50127 7.42962 8.34042 7.46049 8.18524C7.49136 8.03005 7.56755 7.88751 7.67943 7.77562C7.79131 7.66374 7.93386 7.58755 8.08904 7.55668C8.24423 7.52581 8.40508 7.54166 8.55126 7.60221C8.69744 7.66276 8.82239 7.76529 8.91029 7.89685C8.9982 8.02841 9.04512 8.18308 9.04512 8.34131C9.04512 8.55348 8.96083 8.75696 8.8108 8.90699C8.66077 9.05702 8.45729 9.14131 8.24512 9.14131ZM15.4451 7.54131H14.5891C14.4106 6.13329 13.769 4.82457 12.7654 3.82098C11.7619 2.81738 10.4531 2.17586 9.04512 1.99731V1.14131C9.04512 0.929135 8.96083 0.725652 8.8108 0.575623C8.66077 0.425594 8.45729 0.341309 8.24512 0.341309C8.03294 0.341309 7.82946 0.425594 7.67943 0.575623C7.5294 0.725652 7.44512 0.929135 7.44512 1.14131V1.99731C6.0371 2.17586 4.72838 2.81738 3.72479 3.82098C2.72119 4.82457 2.07967 6.13329 1.90112 7.54131H1.04512C0.832944 7.54131 0.629461 7.62559 0.479432 7.77562C0.329403 7.92565 0.245117 8.12914 0.245117 8.34131C0.245117 8.55348 0.329403 8.75696 0.479432 8.90699C0.629461 9.05702 0.832944 9.14131 1.04512 9.14131H1.90112C2.07967 10.5493 2.72119 11.858 3.72479 12.8616C4.72838 13.8652 6.0371 14.5068 7.44512 14.6853V15.5413C7.44512 15.7535 7.5294 15.957 7.67943 16.107C7.82946 16.257 8.03294 16.3413 8.24512 16.3413C8.45729 16.3413 8.66077 16.257 8.8108 16.107C8.96083 15.957 9.04512 15.7535 9.04512 15.5413V14.6853C10.4531 14.5068 11.7619 13.8652 12.7654 12.8616C13.769 11.858 14.4106 10.5493 14.5891 9.14131H15.4451C15.6573 9.14131 15.8608 9.05702 16.0108 8.90699C16.1608 8.75696 16.2451 8.55348 16.2451 8.34131C16.2451 8.12914 16.1608 7.92565 16.0108 7.77562C15.8608 7.62559 15.6573 7.54131 15.4451 7.54131ZM8.24512 13.1413C7.29577 13.1413 6.36774 12.8598 5.57838 12.3324C4.78902 11.8049 4.1738 11.0553 3.8105 10.1782C3.44719 9.3011 3.35214 8.33598 3.53735 7.40488C3.72256 6.47377 4.17971 5.61849 4.851 4.9472C5.5223 4.2759 6.37757 3.81875 7.30868 3.63354C8.23979 3.44833 9.20491 3.54339 10.082 3.90669C10.9591 4.26999 11.7087 4.88522 12.2362 5.67457C12.7636 6.46393 13.0451 7.39196 13.0451 8.34131C13.0451 9.61435 12.5394 10.8352 11.6392 11.7354C10.7391 12.6356 9.51816 13.1413 8.24512 13.1413Z"></path></svg>