<svg width="60" height="60" viewBox="0 0 25 25" fill="#CECECE" xmlns="http://www.w3.org/2000/svg"><g clip-path="url(#clip0_1292_13213)"><path d="M10.0839 4.68231C2.44122 4.68231 0.880371 10.8089 0.880371 12.4493C0.880371 14.4799 3.2173 20.3915 10.3561 20.3915C13.7071 20.3915 14.9187 18.4448 14.9187 17.148V7.6928C14.9187 7.66422 14.8777 4.79043 10.3754 4.70282L10.0839 4.68231ZM18.2008 7.30383C17.8012 7.30383 17.4818 7.62321 17.4818 8.02212C17.4818 8.42165 17.8012 8.74103 18.2008 8.74103H24.1615C24.561 8.74103 24.8804 8.42165 24.8804 8.02212C24.8804 7.62321 24.561 7.30383 24.1615 7.30383H18.2008ZM18.2008 11.8087C17.8012 11.8087 17.4818 12.1467 17.4818 12.5469C17.4818 12.9458 17.8012 13.2651 18.2008 13.2651H24.1615C24.561 13.2651 24.8804 12.9458 24.8804 12.5469C24.8804 12.1467 24.561 11.8087 24.1615 11.8087H18.2008ZM18.2008 16.3328C17.8012 16.3328 17.4818 16.6522 17.4818 17.0517C17.4818 17.4512 17.8012 17.77 18.2008 17.77H24.1615C24.561 17.77 24.8804 17.4512 24.8804 17.0517C24.8804 16.6522 24.561 16.3328 24.1615 16.3328H18.2008Z"></path></g><defs><clipPath id="clip0_1292_13213"><rect width="24" height="24" fill="white" transform="translate(0.880371 0.536865)"></rect></clipPath></defs></svg>