<svg width="60" height="60" viewBox="0 0 25 25" fill="#CECECE" xmlns="http://www.w3.org/2000/svg"><g clip-path="url(#clip0_1292_4972)"><path d="M6.96338 12.5369C6.96338 10.6442 5.97488 9.16187 4.71338 9.16187C3.45188 9.16187 2.46338 10.6442 2.46338 12.5369C2.46338 14.4295 3.45188 15.9119 4.71338 15.9119C5.97488 15.9119 6.96338 14.4295 6.96338 12.5369ZM3.21338 12.5369C3.21338 11.1141 3.90038 9.91187 4.71338 9.91187C5.52638 9.91187 6.21338 11.1141 6.21338 12.5369C6.21338 13.9596 5.52638 15.1619 4.71338 15.1619C3.90038 15.1619 3.21338 13.9596 3.21338 12.5369Z"></path><path d="M23.0884 13.6619H18.8786C19.1359 11.7584 18.7305 9.59199 17.6599 8.52174C17.5897 8.4515 17.4944 8.41199 17.3951 8.41187H11.8384C11.8106 8.41187 11.7859 8.42199 11.7596 8.42762C11.6194 8.17112 11.4615 7.94836 11.2853 7.77174C11.2149 7.70141 11.1196 7.66189 11.0201 7.66187H4.71338C2.64563 7.66187 0.963379 9.84887 0.963379 12.5369C0.963379 15.2249 2.64563 17.4119 4.71338 17.4119H11.0201C11.1196 17.4118 11.2149 17.3723 11.2853 17.302C11.4615 17.1257 11.619 16.9026 11.76 16.6457C11.7863 16.6517 11.8106 16.6619 11.8384 16.6619H23.0884C23.1878 16.6619 23.2832 16.6224 23.3535 16.552C23.4239 16.4817 23.4634 16.3863 23.4634 16.2869V14.0369C23.4634 13.9374 23.4239 13.842 23.3535 13.7717C23.2832 13.7014 23.1878 13.6619 23.0884 13.6619ZM1.71338 12.5369C1.71338 10.2625 3.05925 8.41187 4.71338 8.41187C6.3675 8.41187 7.71338 10.2625 7.71338 12.5369C7.71338 14.8112 6.3675 16.6619 4.71338 16.6619C3.05925 16.6619 1.71338 14.8112 1.71338 12.5369ZM10.8551 16.6619H6.70275C7.75838 15.7986 8.46338 14.2746 8.46338 12.5369C8.46338 10.7991 7.75838 9.27512 6.70275 8.41187H10.8551C12.1463 9.95574 12.1463 15.118 10.8551 16.6619ZM17.0884 15.9119H12.084C12.7556 14.008 12.7556 11.0657 12.084 9.16187H17.2328C18.5288 10.6461 18.5288 14.4276 17.2328 15.9119H17.0884ZM22.7134 15.9119H19.3384V15.5369C19.3384 15.4374 19.2989 15.342 19.2285 15.2717C19.1582 15.2014 19.0628 15.1619 18.9634 15.1619C18.8639 15.1619 18.7685 15.2014 18.6982 15.2717C18.6279 15.342 18.5884 15.4374 18.5884 15.5369V15.9119H18.1444C18.4043 15.4795 18.6019 14.9684 18.7361 14.4119H20.0884V14.7869C20.0884 14.8863 20.1279 14.9817 20.1982 15.052C20.2685 15.1224 20.3639 15.1619 20.4634 15.1619C20.5628 15.1619 20.6582 15.1224 20.7285 15.052C20.7989 14.9817 20.8384 14.8863 20.8384 14.7869V14.4119H21.5884V14.7869C21.5884 14.8863 21.6279 14.9817 21.6982 15.052C21.7685 15.1224 21.8639 15.1619 21.9634 15.1619C22.0628 15.1619 22.1582 15.1224 22.2285 15.052C22.2989 14.9817 22.3384 14.8863 22.3384 14.7869V14.4119H22.7134V15.9119Z"></path></g><defs><clipPath id="clip0_1292_4972"><rect width="24" height="24" fill="white" transform="translate(0.213379 0.536865)"></rect></clipPath></defs></svg>