<svg xmlns="http://www.w3.org/2000/svg" width="60" height="60" viewBox="0 0 24 24" fill="none" stroke="#CECECE" stroke-width="2" stroke-linecap="round" stroke-linejoin="round"><path d="M8 7 C8 7 7 7 7 8 L7 10 C7 11 8 11 8 11 L16 11 C16 11 17 11 17 10 L17 8 C17 7 16 7 16 7 Z"></path><path d="M9 11 L15 11 L15 14 L9 14 Z"></path><circle cx="12" cy="16" r="2.5"></circle><circle cx="12" cy="16" r="1.5"></circle><path d="M11.25 14.5 L12.75 17.5" stroke-width="0.5"></path><path d="M12.75 14.5 L11.25 17.5" stroke-width="0.5"></path><line x1="8" y1="8.5" x2="16" y2="8.5" stroke-width="0.5"></line><line x1="8" y1="9.5" x2="16" y2="9.5" stroke-width="0.5"></line><line x1="12" y1="7" x2="12" y2="16" stroke-dasharray="1 1" stroke-width="1"></line></svg>